<svg id="Capa_1" enable-background="new 0 0 512 512" height="512" viewBox="0 0 512 512" width="512" xmlns="http://www.w3.org/2000/svg"><path d="m105.475 225-105.475 105.475v84.525h295.475z" fill="#438240"/><path d="m406.525 225 105.475 105.475v84.525h-295.475z" fill="#295c46"/><path d="m256 0-69 138 69 138c76.215 0 138-61.785 138-138s-61.785-138-138-138z" fill="#ffd567"/><path d="m118 138c0 76.215 61.785 138 138 138v-276c-76.215 0-138 61.785-138 138z" fill="#ffe7ad"/><path d="m364.263 267.263-148.263-40v237.737l296-50z" fill="#10354d"/><path d="m147.737 267.263-147.737 147.737 256 50v-237.737z" fill="#295c46"/><path d="m310.131 321.394 54.132-54.131-108.263-108.263-30 54.131 30 54.132z" fill="#bcf7fc"/><path d="m256 267.263v-108.263l-108.263 108.263 54.132 54.131z" fill="#fff"/><path d="m512 415h-256l-60 48.5 60 48.5h256z" fill="#438240"/><path d="m0 415h256v97h-256z" fill="#5ca239"/></svg>