<svg id="Capa_1" enable-background="new 0 0 512 512" height="512" viewBox="0 0 512 512" width="512" xmlns="http://www.w3.org/2000/svg"><path d="m467 0h-211l-40 20v190l99-60 28.056-30h33.944c23.662 0 45.915-11.304 59.979-30h30.021c24.813 0 45-20.187 45-45s-20.187-45-45-45z" fill="#3d474e"/><path d="m45 0c-24.813 0-45 20.187-45 45s20.187 45 45 45h30.021c14.064 18.696 36.317 30 59.979 30h34.5l27.5 30 59 60v-210z" fill="#565f65"/><path d="m370.724 205.724h-144.724v221.276l286-80z" fill="#0b1820"/><path d="m141.276 205.724-141.276 141.276 256 80v-221.276z" fill="#482725"/><path d="m0 347v165h256l-165-165z" fill="#a33d2c"/><path d="m512 347h-91l-165 165h256z" fill="#763229"/><path d="m186 407 70 105c90.981 0 165-74.019 165-165h-60z" fill="#ff364e"/><path d="m91 347c0 90.981 74.019 165 165 165v-115l-105-50z" fill="#ff5233"/><path d="m256 347-40 45 40 60c57.897 0 105-47.103 105-105z" fill="#ff5233"/><path d="m151 347c0 57.897 47.103 105 105 105v-105z" fill="#ff6e2e"/><path d="m370.724 205.724-55.724-55.724h-59l-20 113.5 20 113.5c16.569 0 30-13.431 30-30v-94.445c33.08-6.408 62.502-23.194 84.724-46.831z" fill="#ff6e2e"/><path d="m197 150-55.724 55.724c22.222 23.637 51.644 40.424 84.724 46.832v94.444c0 16.569 13.431 30 30 30v-227z" fill="#ffa725"/></svg>