<svg id="Capa_1" enable-background="new 0 0 512 512" height="512" viewBox="0 0 512 512" width="512" xmlns="http://www.w3.org/2000/svg"><path d="m331 75-75-75-75 151h150z" fill="#58c4fe"/><path d="m181 75v76h75v-151z" fill="#8adefd"/><path d="m512 196-20-60h-426l190 376h256z" fill="#1b70a6"/><path d="m0 196v316h256v-376h-236z" fill="#218ed2"/><path d="m106 181v81.213l150 150v-231.213z" fill="#8adefd"/><path d="m256 181v231.213l150-150v-81.213z" fill="#26abff"/><path d="m166 181h130v181h-130z" fill="#fff"/><path d="m166 362 90 90 40-90-40-90z" fill="#bcf7fc"/><path d="m256 181v271l90-90v-181z" fill="#58c4fe"/><path d="m512 121h-256l-60 37.5 60 37.5h256z" fill="#8adefd"/><path d="m0 121h256v75h-256z" fill="#bcf7fc"/></svg>