<svg id="Capa_1" enable-background="new 0 0 512 512" height="512" viewBox="0 0 512 512" width="512" xmlns="http://www.w3.org/2000/svg"><path d="m332 45-30 40v-85h30z" fill="#0b1820"/><path d="m210 85-30-40v-45h30z" fill="#10354d"/><path d="m332 45h-76l-76 90h152z" fill="#0b1820"/><path d="m180 45h76v90h-76z" fill="#10354d"/><path d="m377 225h75v30h-75z" fill="#10354d"/><path d="m60 225h75v30h-75z" fill="#1b70a6"/><path d="m497 0c-41.355 0-75 33.645-75 75v90h-45v30h60c41.355 0 75-33.645 75-75v-120z" fill="#10354d"/><path d="m437 285h-60v30h45v122c0 41.355 33.645 75 75 75h15v-152c0-41.355-33.645-75-75-75z" fill="#10354d"/><path d="m90 75c0-41.355-33.645-75-75-75h-15v120c0 41.355 33.645 75 75 75h60v-30h-45z" fill="#1b70a6"/><path d="m0 360v152h15c41.355 0 75-33.645 75-75v-122h45v-30h-60c-41.355 0-75 33.645-75 75z" fill="#1b70a6"/><path d="m196.001 180 59.999 272c74.99 0 136-61.009 136-136v-136z" fill="#0b1820"/><path d="m120 180v136c0 74.991 61.01 136 136 136v-272z" fill="#10354d"/><path d="m256 105-50 83.659 50 83.658 12.493-18.8c5.624-8.464 14.973-13.517 25.007-13.517h38.5c33.084 0 60-26.916 60-60v-75z" fill="#10354d"/><path d="m180 240h38.5c10.033 0 19.382 5.053 25.007 13.518l12.493 18.799v-167.317h-136v75c0 33.084 26.916 60 60 60z" fill="#165379"/></svg>