<svg id="Capa_1" enable-background="new 0 0 512.007 512.007" height="512" viewBox="0 0 512.007 512.007" width="512" xmlns="http://www.w3.org/2000/svg"><path d="m434.721 425.585-29.384-101.455 83.406-64.807c20.208-15.702 28.156-41.575 20.248-65.915h-252.987v199.219l156.355 98.185c20.704-15.042 29.482-40.646 22.362-65.227z" fill="#ff6e2e"/><path d="m256.004 275.609-60 78.509 60 78.509 87.409 59.297c10.312 6.995 22.015 10.481 33.703 10.48 12.318 0 24.619-3.873 35.243-11.592-.001.001-156.355-215.203-156.355-215.203z" fill="#ff5233"/><path d="m453.866 151.984-105.569-3.405-35.861-99.35c-8.689-24.072-30.84-39.626-56.432-39.626l-60 133.003 60 133.003 252.987-82.201c-7.909-24.339-29.547-40.599-55.125-41.424z" fill="#ff8b2a"/><path d="m3.016 193.408c-7.908 24.34.04 50.213 20.248 65.915l83.405 64.807-29.383 101.455c-7.12 24.581 1.658 50.185 22.363 65.228l136.355-98.185v-199.22z" fill="#ff8b2a"/><path d="m256.004 9.603c-25.592 0-47.743 15.554-56.432 39.626l-35.861 99.35-105.569 3.405c-25.578.825-47.216 17.085-55.125 41.425l252.987 82.201z" fill="#ffa725"/><path d="m99.649 490.813c20.704 15.042 47.767 15.479 68.946 1.111l87.409-59.297v-157.018s-156.355 215.204-156.355 215.204z" fill="#ff6e2e"/><path d="m319.767 254.892-63.763-46.323-20 60.635 20 60.636h39.399z" fill="#ff364e"/><path d="m192.24 254.892 24.364 74.948h39.4v-121.271z" fill="#ff5233"/></svg>