<svg id="Capa_1" enable-background="new 0 0 511.818 511.818" height="512" viewBox="0 0 511.818 511.818" width="512" xmlns="http://www.w3.org/2000/svg"><path d="m0 345.91h15c49.626 0 90-40.374 90-90l-52.5-50-52.5 50z" fill="#1b70a6"/><path d="m15 165.91h-15v90h105c0-49.626-40.374-90-90-90z" fill="#218ed2"/><path d="m336.702 178.11-243.17 243.17 3.835 9.26c11.893 28.71 39.82 46.309 69.35 46.307 8.069 0 16.263-1.315 24.274-4.077l169.609-57.811z" fill="#1b70a6"/><path d="m336.702 333.708-243.17-243.17 3.835-9.26c11.893-28.71 39.82-46.309 69.35-46.307 8.069 0 16.263 1.315 24.274 4.077l169.609 57.811z" fill="#218ed2"/><path d="m99.574 255.91v30.787l88.007 88.007c31.73 31.731 73.919 49.206 118.794 49.206 17.959 0 35.632-2.901 52.389-8.411v-269.589z" fill="#26abff"/><path d="m306.375 87.91c-44.874 0-87.063 17.475-118.794 49.207l-88.007 88.006v30.787h259.189v-159.589c-16.756-5.51-34.429-8.411-52.388-8.411z" fill="#58c4fe"/><path d="m431.158 368.389 65.224-72.309c9.954-11.037 15.437-25.303 15.437-40.17l-112.5-60-112.5 60c0 63.536 27.827 120.564 71.945 159.589 27.542-9.057 52.609-25.173 72.394-47.11z" fill="#58c4fe"/><path d="m286.818 255.91h225c0-14.866-5.481-29.132-15.437-40.171l-65.224-72.308c-19.786-21.938-44.853-38.053-72.395-47.11-44.117 39.026-71.944 96.053-71.944 159.589z" fill="#8adefd"/><path d="m406.818 255.91-30-15-30 15c0 16.569 13.431 30 30 30s30-13.431 30-30z" fill="#bcf7fc"/><path d="m376.818 225.91c-16.569 0-30 13.431-30 30h60c0-16.568-13.431-30-30-30z" fill="#fff"/></svg>