<svg id="Capa_1" enable-background="new 0 0 512 512" height="512" viewBox="0 0 512 512" width="512" xmlns="http://www.w3.org/2000/svg"><path d="m451.028 195.027-111.668 60.973 111.668 60.973 60.972-60.973z" fill="#8adefd"/><path d="m384 34.297-83.29 22.318-3.03 127.193 108.638-66.22z" fill="#8adefd"/><g fill="#bcf7fc"><path d="m128 34.297-22.318 83.291 108.638 66.22-3.03-127.193z"/><path d="m60.973 195.027-60.973 60.973 60.972 60.973 111.668-60.973z"/><path d="m128 477.703 83.29-22.318 3.03-127.193-108.638 66.22z"/></g><path d="m300.71 455.385 83.29 22.318 22.318-83.291-108.638-66.22z" fill="#8adefd"/><path d="m387.98 256-65.99-114.298h-65.99l-30 15 30 15h31.35l-21.651 37.5 25.981 15 21.65-37.5 31.35 54.298h-43.302v30h43.302l-31.35 54.298-21.65-37.5-25.981 15 21.651 37.5h-31.35l-30 15 30 15h65.99z" fill="#8adefd"/><path d="m224.65 340.298 21.651-37.5-25.981-15-21.65 37.5-31.35-54.298h43.302v-30h-43.302l31.35-54.298 21.65 37.5 25.981-15-21.651-37.5h31.35v-30h-65.99l-65.99 114.298 65.99 114.298h65.99v-30z" fill="#bcf7fc"/><path d="m318.698 256-31.348-54.298h-31.35l-30 54.298 30 54.298h31.35z" fill="#58c4fe"/><path d="m224.65 201.702-31.348 54.298 31.348 54.298h31.35v-108.596z" fill="#8adefd"/></svg>