<svg id="Capa_1" enable-background="new 0 0 512 512" height="512" viewBox="0 0 512 512" width="512" xmlns="http://www.w3.org/2000/svg"><g fill="#75c231"><path d="m301.434 459.044h30.001v45h-30.001z" transform="matrix(.966 -.259 .259 .966 -113.855 98.313)"/><path d="m357.75 435.717h30v45h-30z" transform="matrix(.866 -.5 .5 .866 -179.17 247.767)"/><path d="m406.11 398.609h30v45.001h-30z" transform="matrix(.707 -.707 .707 .707 -174.429 421.109)"/><path d="m443.217 350.25h30v45h-30z" transform="matrix(.5 -.866 .866 .5 -93.704 583.2)"/><path d="m466.543 293.934h30.001v45h-30.001z" transform="matrix(.259 -.966 .966 .259 51.255 699.665)"/><path d="m467 241h45v30h-45z"/><path d="m459.044 180.565h45v30.001h-45z" transform="matrix(.966 -.259 .259 .966 -34.209 131.303)"/><path d="m435.717 124.25h45v30h-45z" transform="matrix(.866 -.5 .5 .866 -8.235 247.767)"/><path d="m398.609 75.891h45.001v30h-45.001z" transform="matrix(.707 -.707 .707 .707 59.071 324.391)"/><path d="m350.25 38.783h45v30h-45z" transform="matrix(.5 -.866 .866 .5 139.796 349.701)"/><path d="m293.934 15.456h45v30.001h-45z" transform="matrix(.259 -.966 .966 .259 205.108 328.222)"/><path d="m256 512h15v-45h-25v35z"/><path d="m246 45h25v-45h-15l-10 10z"/></g><path d="m241 467h15v45h-15z" fill="#add04d"/><path d="m241 0h15v45h-15z" fill="#add04d"/><path d="m180.566 7.956h30v45h-30z" fill="#add04d" transform="matrix(.966 -.259 .259 .966 -1.219 51.654)"/><path d="m124.25 31.283h30v45h-30z" fill="#add04d" transform="matrix(.866 -.5 .5 .866 -8.236 76.831)"/><path d="m75.891 68.391h30v45h-30z" fill="#add04d" transform="matrix(.707 -.707 .707 .707 -37.648 90.889)"/><path d="m38.783 116.75h30v45h-30z" fill="#add04d" transform="matrix(.5 -.866 .866 .5 -93.703 116.203)"/><path d="m15.456 173.066h30.001v45h-30.001z" fill="#add04d" transform="matrix(.259 -.966 .966 .259 -166.328 174.365)"/><path d="m0 241h45v30h-45z" fill="#add04d"/><path d="m7.956 301.434h45v30.001h-45z" fill="#add04d" transform="matrix(.966 -.259 .259 .966 -80.866 18.667)"/><path d="m31.283 357.75h45v30h-45z" fill="#add04d" transform="matrix(.866 -.5 .5 .866 -179.169 76.83)"/><path d="m68.39 406.109h45v30h-45z" fill="#add04d" transform="matrix(.707 -.707 .707 .707 -271.15 187.612)"/><path d="m116.75 443.217h45v30h-45z" fill="#add04d" transform="matrix(.5 -.866 .866 .5 -327.202 349.7)"/><path d="m173.066 466.544h45v30h-45z" fill="#add04d" transform="matrix(.259 -.966 .966 .259 -320.184 545.827)"/><path d="m256 30-113 226 113 226c124.816 0 226-101.184 226-226s-101.184-226-226-226z" fill="#438240"/><path d="m30 256c0 124.816 101.184 226 226 226v-452c-124.816 0-226 101.184-226 226z" fill="#5ca239"/><path d="m256 60-98 196 98 196c108.248 0 196-87.752 196-196s-87.752-196-196-196z" fill="#5ca239"/><path d="m60 256c0 108.248 87.752 196 196 196v-392c-108.248 0-196 87.752-196 196z" fill="#75c231"/><path d="m256 150-53 106 53 106c58.542 0 106-47.458 106-106s-47.458-106-106-106z" fill="#295c46"/><path d="m150 256c0 58.542 47.458 106 106 106v-212c-58.542 0-106 47.458-106 106z" fill="#438240"/><path d="m271 392h-15l-10 15 10 15h15z" fill="#438240"/><path d="m241 392h15v30h-15z" fill="#5ca239"/><path d="m316.5 371.77h30v30h-30z" fill="#438240" transform="matrix(.866 -.5 .5 .866 -148.972 217.567)"/><path d="m392 241h30v30h-30z" fill="#438240" transform="matrix(0 -1 1 0 151 663)"/><path d="m316.5 110.23h30v30h-30z" fill="#438240" transform="matrix(-.866 -.5 .5 -.866 555.972 399.433)"/><path d="m271 90h-15l-10 15 10 15h15z" fill="#438240"/><path d="m241 90h15v30h-15z" fill="#5ca239"/><path d="m110.23 165.5h30v30h-30z" fill="#5ca239" transform="matrix(-.5 .866 -.866 -.5 344.163 162.298)"/><path d="m90 241h30v30h-30z" fill="#5ca239" transform="matrix(0 1 -1 0 361 151)"/></svg>