<svg id="Capa_1" enable-background="new 0 0 512 512" height="512" viewBox="0 0 512 512" width="512" xmlns="http://www.w3.org/2000/svg"><path d="m512 19.962h-15c-14.263 0-27.802-4.537-39.153-13.121l-9.047-6.841-9.047 6.841c-11.352 8.584-24.891 13.121-39.153 13.121s-27.801-4.537-39.152-13.121l-9.048-6.841-9.047 6.841c-11.353 8.584-24.892 13.121-39.153 13.121-14.263 0-27.802-4.537-39.153-13.121l-9.047-6.841-130 256 130 256h256z" fill="#218ed2"/><path d="m246.953 6.841c-11.352 8.584-24.891 13.121-39.153 13.121s-27.801-4.537-39.153-13.121l-9.047-6.841-9.047 6.841c-11.352 8.584-24.891 13.121-39.152 13.121-14.263 0-27.802-4.537-39.153-13.121l-9.048-6.841-9.047 6.841c-11.352 8.584-24.891 13.121-39.153 13.121h-15v492.038h256v-512z" fill="#26abff"/><path d="m392 91h30v30h-30z" fill="#58c4fe"/><path d="m135 91h30v30h-30z" fill="#bcf7fc"/><circle cx="105" cy="196" fill="#fff" r="30"/><path d="m302 422h30v30h-30z" fill="#8adefd"/><path d="m90 332h30v30h-30z" fill="#bcf7fc"/><path d="m150 392h30v30h-30z" fill="#8adefd"/><circle cx="407" cy="407" fill="#bcf7fc" r="30"/><path d="m272 241h30v30h-30z" fill="#58c4fe"/><path d="m332 181h30v30h-30z" fill="#8adefd"/></svg>