<svg id="Capa_1" enable-background="new 0 0 512 512" height="512" viewBox="0 0 512 512" width="512" xmlns="http://www.w3.org/2000/svg"><path d="m1 105h45v30h-45z" fill="#ffd567"/><path d="m466 45h45v30h-45z" fill="#ffc320"/><g fill="#ffd567"><path d="m1 165h45v30h-45z"/><path d="m1 225h45v30h-45z"/><path d="m126 105h45v30h-45z"/><path d="m126 225h45v30h-45z"/><path d="m171 45h45v30h-45z"/><path d="m171 165h45v30h-45z"/></g><path d="m466 105h45v30h-45z" fill="#ffc320"/><path d="m466 165h45v30h-45z" fill="#ffc320"/><path d="m341 165h45v30h-45z" fill="#ffc320"/><path d="m296 45h45v30h-45z" fill="#ffc320"/><path d="m296 105h45v30h-45z" fill="#ffc320"/><path d="m171 442h45v30h-45z" fill="#ffd567"/><path d="m296 442h45v30h-45z" fill="#ffc320"/><path d="m296 382h45v30h-45z" fill="#ffc320"/><path d="m426 0c-30.327 0-55 24.673-55 55v142c0 24.813-20.187 45-45 45h-15v-187c0-30.327-24.673-55-55-55l-40 40v452l40 20h55v-160h15c85.468 0 155-69.532 155-155v-142c0-30.327-24.673-55-55-55z" fill="#5ca239"/><path d="m201 55v247h-15c-24.813 0-45-20.187-45-45v-142c0-30.327-24.673-55-55-55s-55 24.673-55 55v142c0 85.468 69.532 155 155 155h15v100h55v-512c-30.327 0-55 24.673-55 55z" fill="#75c231"/></svg>