<svg id="Capa_1" enable-background="new 0 0 512 512" height="512" viewBox="0 0 512 512" width="512" xmlns="http://www.w3.org/2000/svg"><path d="m334.974 348.836v-108.718h-142.708l63.734 264.116c53.995 0 97.766-43.772 97.766-97.767 0-21.551-6.979-41.47-18.792-57.631z" fill="#ff364e"/><path d="m177.018 240.118v108.717c-11.812 16.16-18.784 36.082-18.784 57.631 0 53.995 43.772 97.767 97.766 97.767v-264.115z" fill="#ff5d6b"/><path d="m444.419 198.542c-20.497-6.66-41.597-6.178-60.618.064l-103.397-33.596-24.404 75.108 78.989 108.712c11.719 16.227 28.511 29.015 49.006 35.674 51.352 16.685 106.508-11.418 123.193-62.77 16.686-51.352-11.417-106.507-62.769-123.192z" fill="#ff5d6b"/><path d="m411.243 26.445c-43.683-31.738-104.823-22.054-136.56 21.629-12.668 17.436-18.73 37.652-18.671 57.671l-63.902 87.954 63.89 46.419 127.801-41.529c19.055-6.131 36.405-18.15 49.072-35.584 31.736-43.683 22.053-104.823-21.63-136.56z" fill="#ff364e"/><path d="m255.996 105.74c.057-20.017-6.012-40.232-18.678-57.666-31.738-43.683-92.878-53.367-136.561-21.629-43.683 31.737-53.366 92.878-21.629 136.56 12.668 17.436 30.022 29.448 49.079 35.579l63.902 87.954 63.891-46.42z" fill="#ff5d6b"/><path d="m128.197 198.597c-19.019-6.24-40.12-6.715-60.615-.056-51.352 16.685-79.455 71.841-62.77 123.193s71.841 79.455 123.193 62.77c20.497-6.66 37.284-19.453 49.004-35.682l78.991-108.704z" fill="#ff8488"/><path d="m246 300.356v86.603l10 10h15v-96.603z" fill="#ffd1c2"/><path d="m241 300.356h15v96.603h-15z" fill="#fff"/><path d="m344 225.522h30v96.602h-30z" fill="#ffd1c2" transform="matrix(.309 -.951 .951 .309 -12.358 530.636)"/><path d="m271.357 137.739h96.602v30h-96.602z" fill="#ffd1c2" transform="matrix(.588 -.809 .809 .588 8.203 321.576)"/><path d="m177.342 104.438h30v96.602h-30z" fill="#fff" transform="matrix(.809 -.588 .588 .809 -53.044 142.227)"/><path d="m104.699 258.823h96.602v30h-96.602z" fill="#fff" transform="matrix(.951 -.309 .309 .951 -77.129 60.682)"/><path d="m256 165.356-37.5 75 37.5 75c41.421 0 75-33.579 75-75s-33.579-75-75-75z" fill="#ffc320"/><path d="m181 240.356c0 41.421 33.579 75 75 75v-150c-41.421 0-75 33.579-75 75z" fill="#ffd567"/></svg>