<svg id="Capa_1" enable-background="new 0 0 512 512" height="512" viewBox="0 0 512 512" width="512" xmlns="http://www.w3.org/2000/svg"><path d="m151 342.182v34.818c0 57.897 47.103 105 105 105v-139.818z" fill="#438240"/><path d="m256 342.182v139.818c57.897 0 105-47.103 105-105v-34.818z" fill="#295c46"/><path d="m376 142.5h-120v255c103.388 0 187.5-84.112 187.5-187.5 0-37.22-30.28-67.5-67.5-67.5z" fill="#438240"/><path d="m136 142.5c-37.22 0-67.5 30.28-67.5 67.5 0 103.388 84.112 187.5 187.5 187.5v-255z" fill="#5ca239"/><path d="m338.5 37.5c-5.546 0-11.073.69-16.431 2.033-12.87-23.88-38.163-39.533-66.069-39.533l-60 127.5 60 127.5c82.71 0 150-67.29 150-150 0-37.22-30.28-67.5-67.5-67.5z" fill="#5ca239"/><path d="m189.931 39.533c-5.358-1.343-10.885-2.033-16.431-2.033-37.22 0-67.5 30.28-67.5 67.5 0 82.71 67.29 150 150 150v-255c-27.906 0-53.199 15.653-66.069 39.533z" fill="#75c231"/><path d="m271 105h-15l-10 10v387l10 10h15z" fill="#75c231"/><path d="m241 105h15v407h-15z" fill="#add04d"/></svg>