<svg id="Capa_1" enable-background="new 0 0 512 512" height="512" viewBox="0 0 512 512" width="512" xmlns="http://www.w3.org/2000/svg"><path d="m256 0-128 256 128 256c141.385 0 256-114.615 256-256s-114.615-256-256-256z" fill="#10354d"/><path d="m0 256c0 141.385 114.615 256 256 256v-512c-141.385 0-256 114.615-256 256z" fill="#165379"/><path d="m256 118-69 138 69 138c25.137 0 48.702-6.724 69-18.467v-239.066c-20.298-11.743-43.863-18.467-69-18.467z" fill="#fff3d6"/><ellipse cx="325" cy="256" fill="#0b1820" rx="69" ry="119.533"/><path d="m118 256c0 76.215 61.785 138 138 138v-276c-76.215 0-138 61.785-138 138z" fill="#fff"/></svg>