<?xml version="1.0" encoding="utf-8"?>
<!-- Generator: Adobe Illustrator 16.0.0, SVG Export Plug-In . SVG Version: 6.00 Build 0)  -->
<!DOCTYPE svg PUBLIC "-//W3C//DTD SVG 1.1//EN" "http://www.w3.org/Graphics/SVG/1.1/DTD/svg11.dtd">
<svg version="1.1" id="Layer_1" xmlns="http://www.w3.org/2000/svg" xmlns:xlink="http://www.w3.org/1999/xlink" x="0px" y="0px"
	 width="100px" height="100px" viewBox="0 0 100 100" enable-background="new 0 0 100 100" xml:space="preserve">
<g>
	<polygon fill="#D1D3D4" points="69.144,48.04 64.664,31.893 59.325,28.63 33.902,32.788 34.195,33.226 21.546,39.72 24.188,52.66 
		33.316,57.628 46.256,48.732 46.221,48.684 	"/>
	<polygon fill="#E6E7E8" points="45.544,48.652 67.42,48.04 62.943,30.289 57.599,27.024 33.88,32.51 	"/>
	<polygon fill="none" points="34.819,32.903 21.546,39.72 24.188,52.66 33.316,57.628 46.256,48.732 	"/>
	<polygon fill="#D1D3D4" points="58.151,47.667 58.151,85.492 98.23,82.475 98.23,67.97 	"/>
	<polygon fill="#E6E7E8" points="58.151,47.667 58.151,85.492 3.037,82.937 3.037,67.97 	"/>
	<polygon fill="#BCBEC0" points="11.249,34.642 3.037,46.195 3.451,67.816 11.062,62.79 25.49,64.652 25.49,38.354 	"/>
	<polygon fill="#808285" points="11.249,62.814 25.034,64.337 8.166,68.657 3.037,67.97 	"/>
	<polygon fill="#A7A9AC" points="11.249,34.642 3.037,46.195 3.037,67.97 11.249,62.814 11.249,62.814 	"/>
	<g>
		<rect x="68.937" y="56.6" fill="#D5D6DC" width="4.559" height="3.948"/>
		<polygon fill="#ECF0F3" points="68.937,60.548 68.937,56.6 73.499,56.6 		"/>
		<rect x="68.937" y="63.319" fill="#D5D6DC" width="4.559" height="3.952"/>
		<polygon fill="#ECF0F3" points="68.937,67.271 68.937,63.321 73.499,63.321 		"/>
		<rect x="68.937" y="70.043" fill="#D5D6DC" width="4.559" height="3.953"/>
		<polygon fill="#ECF0F3" points="68.937,73.996 68.937,70.043 73.499,70.043 		"/>
		<rect x="68.937" y="76.77" fill="#D5D6DC" width="4.559" height="3.951"/>
		<polygon fill="#ECF0F3" points="68.937,80.721 68.937,76.768 73.499,76.768 		"/>
		<rect x="61.344" y="56.6" fill="#D5D6DC" width="4.559" height="3.948"/>
		<polygon fill="#ECF0F3" points="61.339,60.548 61.339,56.6 65.902,56.6 		"/>
		<rect x="61.344" y="63.319" fill="#D5D6DC" width="4.559" height="3.952"/>
		<polygon fill="#ECF0F3" points="61.339,67.271 61.339,63.321 65.902,63.321 		"/>
		<rect x="61.344" y="70.043" fill="#D5D6DC" width="4.559" height="3.953"/>
		<polygon fill="#ECF0F3" points="61.339,73.996 61.339,70.043 65.902,70.043 		"/>
		<rect x="61.344" y="76.77" fill="#D5D6DC" width="4.559" height="3.951"/>
		<polygon fill="#ECF0F3" points="61.339,80.721 61.339,76.768 65.902,76.768 		"/>
	</g>
	<rect x="12.765" y="70.215" fill="#D5D6DC" width="4.561" height="3.951"/>
	<polygon fill="#ECF0F3" points="12.769,74.166 12.769,70.215 17.325,70.215 	"/>
	<rect x="12.765" y="76.936" fill="#D5D6DC" width="4.561" height="3.952"/>
	<polygon fill="#ECF0F3" points="12.769,80.888 12.769,76.939 17.325,76.939 	"/>
	<rect x="5.17" y="70.215" fill="#D5D6DC" width="4.563" height="3.951"/>
	<polygon fill="#ECF0F3" points="5.17,74.166 5.17,70.215 9.73,70.215 	"/>
	<rect x="5.17" y="76.936" fill="#D5D6DC" width="4.563" height="3.952"/>
	<polygon fill="#ECF0F3" points="5.17,80.888 5.17,76.939 9.73,76.939 	"/>
	<g>
		
			<rect x="38.075" y="53.945" transform="matrix(-0.7066 0.7076 -0.7076 -0.7066 108.4408 66.8848)" fill="#D5D6DC" width="4.559" height="3.955"/>
		<polygon fill="#ECF0F3" points="40.142,58.931 37.346,56.137 40.574,52.911 		"/>
		
			<rect x="42.83" y="58.699" transform="matrix(-0.7066 0.7076 -0.7076 -0.7066 119.9175 71.6312)" fill="#D5D6DC" width="4.559" height="3.952"/>
		<polygon fill="#ECF0F3" points="44.895,63.685 42.103,60.892 45.326,57.666 		"/>
		
			<rect x="47.584" y="63.454" transform="matrix(-0.7071 0.7072 -0.7072 -0.7071 131.387 76.4293)" fill="#D5D6DC" width="4.559" height="3.95"/>
		<polygon fill="#ECF0F3" points="49.653,68.439 46.855,65.644 50.079,62.42 		"/>
		
			<rect x="52.337" y="68.21" transform="matrix(-0.7069 0.7073 -0.7073 -0.7069 142.8687 81.1656)" fill="#D5D6DC" width="4.56" height="3.95"/>
		<polygon fill="#ECF0F3" points="54.403,73.194 51.609,70.396 54.833,67.173 		"/>
		
			<rect x="32.709" y="59.314" transform="matrix(-0.7073 0.7069 -0.7069 -0.7073 103.0619 79.9042)" fill="#D5D6DC" width="4.557" height="3.951"/>
		<polygon fill="#ECF0F3" points="34.772,64.302 31.979,61.506 35.202,58.282 		"/>
		<polygon fill="#D5D6DC" points="36.731,66.258 39.955,63.033 42.744,65.826 39.523,69.052 		"/>
		<polygon fill="#ECF0F3" points="39.527,69.054 36.731,66.261 39.955,63.037 		"/>
		
			<rect x="42.212" y="68.822" transform="matrix(-0.7073 0.7069 -0.7069 -0.7073 126.011 89.4226)" fill="#D5D6DC" width="4.563" height="3.951"/>
		<polygon fill="#ECF0F3" points="44.28,73.807 41.484,71.013 44.711,67.792 		"/>
		
			<rect x="46.971" y="73.578" transform="matrix(-0.7071 0.7072 -0.7072 -0.7071 137.5021 94.148)" fill="#D5D6DC" width="4.559" height="3.953"/>
		<polygon fill="#ECF0F3" points="49.034,78.562 46.241,75.768 49.464,72.546 		"/>
	</g>
	
		<rect x="27.676" y="64.072" transform="matrix(-0.7069 0.7073 -0.7073 -0.7069 97.8485 91.5462)" fill="#D5D6DC" width="4.56" height="3.95"/>
	<polygon fill="#ECF0F3" points="29.747,69.054 26.949,66.261 30.172,63.037 	"/>
	
		<rect x="32.429" y="68.825" transform="matrix(-0.7072 0.7071 -0.7071 -0.7072 109.3109 96.3264)" fill="#D5D6DC" width="4.558" height="3.951"/>
	<polygon fill="#ECF0F3" points="34.5,73.811 31.704,71.015 34.925,67.792 	"/>
	
		<rect x="37.185" y="73.579" transform="matrix(-0.7071 0.7072 -0.7072 -0.7071 120.7975 101.0681)" fill="#D5D6DC" width="4.559" height="3.951"/>
	<polygon fill="#ECF0F3" points="39.252,78.563 36.456,75.77 39.686,72.546 	"/>
	<polygon fill="#D5D6DC" points="41.21,80.524 44.438,77.301 47.228,80.095 44.006,83.32 	"/>
	<polygon fill="#ECF0F3" points="44.006,83.32 41.21,80.522 44.438,77.297 	"/>
	<polygon fill="#D5D6DC" points="21.578,71.63 24.805,68.408 27.594,71.202 24.374,74.424 	"/>
	<polygon fill="#ECF0F3" points="24.374,74.424 21.578,71.632 24.801,68.408 	"/>
	<polygon fill="#D5D6DC" points="26.33,76.385 29.558,73.159 32.349,75.952 29.128,79.178 	"/>
	<polygon fill="#ECF0F3" points="29.128,79.181 26.334,76.385 29.558,73.163 	"/>
	
		<rect x="31.819" y="78.947" transform="matrix(-0.7072 0.7071 -0.7071 -0.7072 115.4237 114.0388)" fill="#D5D6DC" width="4.555" height="3.949"/>
	<polygon fill="#ECF0F3" points="33.88,83.933 31.089,81.139 34.31,77.918 	"/>
	<path fill="#939598" d="M93.476,51.208c-10.064,7.476-11.638,3.673-25.105-3.43c-13.473-7.104-29.409-0.111-39.383,2.845
		c-18.467,5.474-11.796,22.696-6.791,21.405c8.208-2.117,22.165-6.493,22.165-6.493l14.085-14.448c0,0,13.348-0.37,18.005,19.102
		c4.655,19.473,10.228,5.147,10.228,5.147l9.734-19.843C96.413,55.493,102.047,44.84,93.476,51.208z"/>
	<path fill="#D5D6DC" d="M75.23,32.903c-2.652-2.204-9.383-4.487-12.633-5.542c-3.506-1.137-8.817-3.871-16.602-8.842
		c-11.27-7.194-4.605,14.989-4.605,14.989s14.089-5.124,18.329-3.488c3.062,1.182,4.299,4.248,4.561,5.326
		c1.481,6.046,4.73,28.017,11.953,18.448C83.46,44.221,79.247,36.25,75.23,32.903z"/>
	<path fill="#D5D6DC" d="M37.357,45.267l-6.762,2.4c0,0-14.249-12.227-10.564-14.267c11.507-6.376,24.09-3.611,24.09-3.611
		s-7.304,1.616-8.518,2.83C34.389,33.833,31.036,37.813,37.357,45.267z"/>
	<path fill="#BCBEC0" d="M61.621,37.876c0,0-7.742-11.899-25.72-7.235c-3.559,0.922-8.364,7.343,1.456,14.626
		c0,0-4.307-10.6-1.729-11.318C42.473,32.042,61.621,37.876,61.621,37.876z"/>
</g>
</svg>
