<?xml version="1.0" encoding="utf-8"?>
<!-- Generator: Adobe Illustrator 16.0.0, SVG Export Plug-In . SVG Version: 6.00 Build 0)  -->
<!DOCTYPE svg PUBLIC "-//W3C//DTD SVG 1.1//EN" "http://www.w3.org/Graphics/SVG/1.1/DTD/svg11.dtd">
<svg version="1.1" id="Layer_1" xmlns="http://www.w3.org/2000/svg" xmlns:xlink="http://www.w3.org/1999/xlink" x="0px" y="0px"
	 width="100px" height="100px" viewBox="0 0 100 100" enable-background="new 0 0 100 100" xml:space="preserve">
<g>
	<path fill="#95A5A4" d="M20.284,36.978l59.541-0.375l0.273,43.317l-59.542,0.372L20.284,36.978z"/>
	<path fill="#D1D4D1" d="M74.444,39.164L84.552,39.1l0.238,37.782l-10.106,0.062L74.444,39.164z"/>
	<path fill="#D1D4D1" d="M25.587,76.583L15.48,76.646l-0.226-35.787l10.107-0.065L25.587,76.583z"/>
	<g>
		<path fill="#BDC3C7" d="M71.536,35.933l15.883-0.101l0.022,3.61c0.011,1.596-1.274,2.897-2.868,2.907l-10.107,0.064
			c-1.595,0.01-2.896-1.275-2.907-2.871L71.536,35.933z"/>
		<path fill="#BDC3C7" d="M74.666,74.177l10.107-0.062c1.595-0.011,2.895,1.274,2.904,2.868l0.022,3.611l-15.883,0.101l-0.022-3.611
			C71.786,75.489,73.07,74.188,74.666,74.177z"/>
		<path fill="#BDC3C7" d="M25.373,42.721l-10.106,0.065c-1.595,0.009-2.895-1.275-2.906-2.872l-0.022-3.61l15.883-0.1l0.022,3.61
			C28.253,41.411,26.969,42.711,25.373,42.721z"/>
		<path fill="#BDC3C7" d="M28.502,80.967L12.62,81.064l-0.022-3.609c-0.009-1.596,1.274-2.895,2.869-2.905l10.107-0.062
			c1.595-0.012,2.896,1.274,2.906,2.868L28.502,80.967z"/>
	</g>
	<path fill="#295781" d="M10.85,29.384l79.413-0.499l0.04,6.208c0.005,0.798-0.639,1.448-1.436,1.453l-76.524,0.482
		c-0.797,0.004-1.448-0.637-1.453-1.436L10.85,29.384z"/>
	<path fill="#295781" d="M12.616,80.344l76.523-0.482c0.798-0.004,1.449,0.639,1.453,1.436l0.047,7.221l-79.413,0.499l-0.047-7.22
		C11.176,81,11.818,80.349,12.616,80.344z"/>
	<path fill="#4482C4" d="M90.276,30.761L9.419,31.271c-0.798,0.005-1.448-0.637-1.453-1.436l-0.048-7.599
		c-0.004-0.63,0.402-1.193,1.003-1.385L48.42,8.321c0.835-0.266,1.73-0.271,2.568-0.016l39.656,12.03
		c0.604,0.188,1.017,0.742,1.019,1.373l0.049,7.6C91.716,30.105,91.072,30.757,90.276,30.761z"/>
	<path fill="#295781" d="M13.713,25.467v-0.076l35.594-11.296c0.278-0.087,0.576-0.089,0.855-0.004l35.745,10.845l0.001,0.076
		L13.713,25.467z"/>
	<path fill="#82CA9C" d="M65.902,58.35c0.055,8.772-7.011,15.928-15.783,15.981c-8.771,0.056-15.927-7.011-15.982-15.782
		c-0.056-8.772,7.011-15.927,15.782-15.981S65.848,49.577,65.902,58.35z"/>
	<path fill="#25AE5F" d="M50.028,59.893c-3.188,0.02-5.791-2.549-5.811-5.738s2.549-5.792,5.738-5.812
		c3.19-0.021,5.792,2.55,5.812,5.737c0.005,0.799-0.636,1.451-1.434,1.455c-0.798,0.005-1.449-0.638-1.454-1.437
		c-0.009-1.594-1.311-2.88-2.906-2.868c-1.595,0.011-2.879,1.31-2.869,2.903c0.01,1.599,1.311,2.882,2.906,2.873
		c0.798-0.007,1.448,0.636,1.454,1.435C51.469,59.238,50.826,59.888,50.028,59.893z"/>
	<path fill="#25AE5F" d="M50.083,68.557c-3.189,0.021-5.79-2.549-5.81-5.738c-0.006-0.799,0.636-1.448,1.433-1.453
		c0.797-0.007,1.449,0.637,1.453,1.436c0.01,1.594,1.311,2.877,2.906,2.868c1.596-0.012,2.879-1.311,2.871-2.906
		c-0.012-1.596-1.312-2.879-2.907-2.87c-0.797,0.007-1.447-0.637-1.452-1.434c-0.005-0.799,0.636-1.448,1.434-1.452
		c3.19-0.022,5.791,2.549,5.811,5.738S53.272,68.537,50.083,68.557z"/>
	<path fill="#25AE5F" d="M50.092,70.001c-0.797,0.004-1.447-0.639-1.453-1.436l-0.127-20.214c-0.004-0.797,0.638-1.449,1.435-1.453
		c0.798-0.005,1.449,0.637,1.453,1.435l0.128,20.214C51.531,69.345,50.89,69.996,50.092,70.001z"/>
	<path fill="#4482C4" d="M9.765,86.138l80.856-0.509c0.798-0.005,1.447,0.636,1.451,1.436l0.02,2.886
		c0.006,0.799-0.638,1.448-1.435,1.455L9.801,91.914c-0.797,0.005-1.449-0.639-1.453-1.436L8.33,87.591
		C8.324,86.792,8.967,86.143,9.765,86.138z"/>
</g>
</svg>
