<?xml version="1.0" encoding="utf-8"?>
<!-- Generator: Adobe Illustrator 16.0.0, SVG Export Plug-In . SVG Version: 6.00 Build 0)  -->
<!DOCTYPE svg PUBLIC "-//W3C//DTD SVG 1.1//EN" "http://www.w3.org/Graphics/SVG/1.1/DTD/svg11.dtd">
<svg version="1.1" id="Layer_1" xmlns="http://www.w3.org/2000/svg" xmlns:xlink="http://www.w3.org/1999/xlink" x="0px" y="0px"
	 width="100px" height="100px" viewBox="0 0 100 100" enable-background="new 0 0 100 100" xml:space="preserve">
<g id="Page-1">
	<g id="_x30_13---Study">
		<path id="Shape_23_" fill="#C03B2B" d="M88.253,78.301H40.459c-0.754,0-1.365,0.611-1.365,1.365v9.559
			c0,0.754,0.611,1.365,1.365,1.365h47.794c0.754,0,1.365-0.611,1.365-1.365v-9.559C89.618,78.912,89.007,78.301,88.253,78.301z"/>
		<path id="Shape_22_" fill="#34907C" d="M32.265,29.14h-9.559c-0.755,0-1.366,0.611-1.366,1.366v58.719
			c0,0.754,0.611,1.365,1.366,1.365h9.559c0.755,0,1.367-0.611,1.367-1.365V30.506C33.632,29.751,33.02,29.14,32.265,29.14z"/>
		<path id="Shape_21_" fill="#E47E26" d="M19.976,44.161h-8.194c-0.754,0-1.365,0.611-1.365,1.366v43.698
			c0,0.754,0.611,1.365,1.365,1.365h8.194c0.753,0,1.364-0.611,1.364-1.365V45.527C21.34,44.772,20.729,44.161,19.976,44.161z"/>
		<path id="Shape_20_" fill="#3C97D3" d="M79.664,24.688c-1.886-3.118-4.519-5.718-7.66-7.565
			c-9.487-5.554-21.626-3.177-28.317,5.545c-6.69,8.722-5.842,21.061,1.98,28.785c7.821,7.726,20.17,8.419,28.809,1.619
			C83.112,46.271,85.337,34.104,79.664,24.688z"/>
		<path id="Rectangle-path" fill="#D25727" d="M59.576,63.279h2.731v8.193h-2.731V63.279z"/>
		<path id="Shape_19_" fill="#F19C22" d="M60.982,64.662c-6.12-0.083-12.096-1.872-17.254-5.164
			c-0.601-0.412-0.772-1.223-0.39-1.844c0.382-0.619,1.185-0.829,1.821-0.479c9.375,5.773,19.722,6.309,28.392,1.467
			c8.41-4.676,13.541-13.623,13.331-23.242c-0.212-9.62-5.729-18.333-14.332-22.638c-0.675-0.34-0.946-1.162-0.606-1.835
			c0.339-0.673,1.16-0.945,1.834-0.605c9.513,4.754,15.611,14.382,15.845,25.014c0.233,10.631-5.437,20.519-14.729,25.687
			C70.646,63.412,65.855,64.666,60.982,64.662z"/>
		<path id="Shape_18_" fill="#82CA9C" d="M50.018,46.087v2.854c-0.003,0.429-0.205,0.833-0.546,1.093l-3.032,2.28
			c-4.501-3.999-7.155-9.678-7.336-15.696c-0.181-6.019,2.126-11.846,6.381-16.108l3.987,3.987c0.341,0.338,0.477,0.833,0.354,1.297
			l-1.119,4.479c-0.034,0.152-0.1,0.296-0.19,0.423l-2.362,3.564c-0.15,0.222-0.23,0.483-0.232,0.751v5.858
			c0.003,0.358,0.146,0.7,0.396,0.956l3.306,3.305C49.872,45.386,50.015,45.729,50.018,46.087L50.018,46.087z"/>
		<path id="Shape_17_" fill="#82CA9C" d="M79.664,24.688l-7.318,4.179c-0.306,0.18-0.67,0.229-1.011,0.136l-4.602-1.146
			c-0.216-0.055-0.441-0.055-0.657,0l-4.26,1.065c-0.532,0.134-1.094-0.066-1.421-0.506l-2.841-3.796
			c-0.407-0.539-0.354-1.297,0.124-1.775l2.978-2.976c0.183-0.184,0.414-0.312,0.669-0.369l10.679-2.376
			C75.146,18.97,77.778,21.57,79.664,24.688z"/>
		<path id="Rectangle-path_1_" fill="#F19C22" d="M10.416,49.623H21.34v27.312H10.416V49.623z"/>
		<path id="Rectangle-path_2_" fill="#29B99A" d="M21.34,34.603h12.292v39.601H21.34V34.603z"/>
		<path id="Rectangle-path_3_" fill="#81CCB8" d="M21.34,74.203h12.292v6.828H21.34V74.203z"/>
		<path id="Rectangle-path_4_" fill="#FDD7AD" d="M10.416,76.936H21.34v6.827H10.416V76.936z"/>
		<path id="Shape_16_" fill="#82CA9C" d="M73.164,43.15l-3.51,0.888c-0.331,0.072-0.622,0.273-0.805,0.56l-4.767,7.142
			c-0.256,0.383-0.686,0.613-1.147,0.614h-1.993c-0.754,0-1.366-0.611-1.366-1.365v-4.726c0-0.46-0.23-0.891-0.613-1.146
			l-3.251-2.171c-0.153-0.1-0.283-0.229-0.381-0.383l-1.789-2.676c-0.206-0.311-0.276-0.693-0.193-1.056
			c0.08-0.364,0.31-0.678,0.629-0.869l5.162-3.1c0.279-0.167,0.608-0.229,0.93-0.179l7.496,1.257
			c0.135,0.012,0.266,0.054,0.381,0.123l4.78,2.376c0.325,0.162,0.571,0.448,0.684,0.792l0.724,2.171
			c0.117,0.36,0.079,0.754-0.104,1.084C73.846,42.819,73.531,43.06,73.164,43.15L73.164,43.15z"/>
		<path id="Shape_15_" fill="#F19C22" d="M55.48,71.473h10.925c3.017,0,5.461,2.445,5.461,5.463c0,0.754-0.611,1.365-1.365,1.365
			H51.383c-0.753,0-1.365-0.611-1.365-1.365C50.018,73.918,52.463,71.473,55.48,71.473z"/>
		<path id="Rectangle-path_5_" fill="#E54D3C" d="M54.115,78.301h30.042V90.59H54.115V78.301z"/>
		<path id="Rectangle-path_6_" fill="#F37A76" d="M47.286,78.301h6.829V90.59h-6.829V78.301z"/>
	</g>
</g>
</svg>
