<?xml version="1.0" encoding="utf-8"?>
<!-- Generator: Adobe Illustrator 16.0.0, SVG Export Plug-In . SVG Version: 6.00 Build 0)  -->
<!DOCTYPE svg PUBLIC "-//W3C//DTD SVG 1.1//EN" "http://www.w3.org/Graphics/SVG/1.1/DTD/svg11.dtd">
<svg version="1.1" id="Layer_1" xmlns="http://www.w3.org/2000/svg" xmlns:xlink="http://www.w3.org/1999/xlink" x="0px" y="0px"
	 width="100px" height="100px" viewBox="0 0 100 100" enable-background="new 0 0 100 100" xml:space="preserve">
<g>
	<path fill="#FDCC09" d="M37.322,34.201L3.358,50.005c0,0-2.207,1.302-2.207,4.446v12.122l30.692,3.848l0.594-26.296
		C32.438,44.125,34.597,34.945,37.322,34.201z"/>
	<path fill="#EA8E23" d="M28.871,40.012l-7.251,2.883c0,0-1.484,1.311-1.223,3.932l7.512-2.708
		C27.91,44.118,27.787,42.389,28.871,40.012z"/>
	<path fill="#EA8E23" d="M18.399,44.326l-4.93,2.046c0,0-1.111,0.64-1.084,2.967l5.191-2.032
		C17.576,47.308,17.46,46.385,18.399,44.326z"/>
	<path fill="#EA8E23" d="M10.946,47.492l-2.751,1.163c0,0-0.854,0.083-1.078,2.535l3.044-1.311
		C10.16,49.878,10.005,49.55,10.946,47.492z"/>
	<path fill="#EA8E23" d="M5.865,49.54l-2.16,0.986c0,0-0.545,0.282-1.029,2.113l2.399-0.825C5.075,51.813,4.928,51.598,5.865,49.54z
		"/>
	<path fill="#FBAE18" d="M98.887,40.012l-54.638-6.451c0,0-12.405-3.283-12.405,12.506c0,15.79,0,24.354,0,24.354l67.043-3.587
		V40.012z"/>
	<path fill="#FDCC09" d="M46.878,36.974L35.12,40.885c0,0-0.876,0.393-0.876,2.885v17.496h11.142V39.914
		c0,0,2.809-1.479,3.368-2.439c0.149-0.253,0.478-0.8-0.162-0.838C48.321,36.621,46.714,36.974,46.878,36.974z"/>
	<path fill="#EA8E23" d="M97.039,41.067l-46.803-4.245c0,0-4.85-1.421-4.85,3.091v21.352l53.501-0.155V41.067H97.039z"/>
	<polygon fill="#FDCC09" points="31.843,70.421 31.894,68.173 31.613,70.39 	"/>
	<polygon fill="#AAB8C7" points="1.151,67.622 31.843,71.468 31.843,66.467 1.113,65.527 	"/>
	<path fill="#FBAE18" d="M31.843,70.421l0.104-0.006l-0.104-1.964C31.843,69.737,31.843,70.421,31.843,70.421z"/>
	<path fill="#8D9CA8" d="M98.887,65.527l-67.043,0.939c0,1.296,0,4.995,0,4.995l67.043-3.578V65.527z"/>
</g>
</svg>
