<?xml version="1.0" encoding="utf-8"?>
<!-- Generator: Adobe Illustrator 16.0.0, SVG Export Plug-In . SVG Version: 6.00 Build 0)  -->
<!DOCTYPE svg PUBLIC "-//W3C//DTD SVG 1.1//EN" "http://www.w3.org/Graphics/SVG/1.1/DTD/svg11.dtd">
<svg version="1.1" id="Layer_1" xmlns="http://www.w3.org/2000/svg" xmlns:xlink="http://www.w3.org/1999/xlink" x="0px" y="0px"
	 width="100px" height="100px" viewBox="0 0 100 100" enable-background="new 0 0 100 100" xml:space="preserve">
<g>
	
		<rect x="4.018" y="63.222" fill="#E1C9BB" stroke="#E1C9BB" stroke-width="0.8735" stroke-linecap="round" stroke-linejoin="round" stroke-miterlimit="10" width="92.005" height="30.522"/>
	<rect x="11.644" y="68.365" fill="#BAE4FA" width="68.695" height="22.954"/>
	<polygon fill="#BAE4FA" points="45.355,34.223 22.818,63.476 45.355,63.476 67.887,63.476 	"/>
	<polyline fill="#2BA2DC" points="39.798,63.476 67.887,63.476 45.355,34.223 	"/>
	
		<rect x="3.963" y="63.251" fill="#C5937E" stroke="#C5937E" stroke-width="0.8455" stroke-linecap="round" stroke-linejoin="round" stroke-miterlimit="10" width="82.781" height="5.242"/>
	
		<rect x="4.111" y="91.319" fill="#C5937E" stroke="#C5937E" stroke-width="0.8286" stroke-linecap="round" stroke-linejoin="round" stroke-miterlimit="10" width="82.78" height="2.462"/>
	<rect x="67.813" y="61.58" fill="#1C1112" width="5.089" height="32.623"/>
	<rect x="58.18" y="61.58" fill="#1C1112" width="5.091" height="32.623"/>
	<rect x="48.547" y="61.58" fill="#1C1112" width="5.09" height="32.623"/>
	<rect x="38.913" y="61.58" fill="#1C1112" width="5.089" height="32.623"/>
	<rect x="29.279" y="61.58" fill="#1C1112" width="5.092" height="32.623"/>
	<rect x="19.646" y="61.58" fill="#1C1112" width="5.092" height="32.623"/>
	<rect x="67.897" y="60.85" fill="#A87369" width="3.52" height="33.354"/>
	<rect x="58.162" y="60.85" fill="#A87369" width="3.52" height="33.354"/>
	<rect x="48.426" y="60.85" fill="#A87369" width="3.52" height="33.354"/>
	<rect x="38.688" y="60.85" fill="#A87369" width="3.522" height="33.354"/>
	<rect x="28.955" y="60.85" fill="#A87369" width="3.522" height="33.354"/>
	<rect x="19.219" y="60.85" fill="#A87369" width="3.52" height="33.354"/>
	<rect x="76.746" y="12.371" fill="#FBAE18" width="17.396" height="81.832"/>
	<rect x="76.746" y="8.022" fill="#FDCC09" width="14.187" height="86.181"/>
	
		<rect x="79.301" y="27.095" transform="matrix(-0.7071 -0.7071 0.7071 -0.7071 120.7585 113.2886)" fill="#F3FAF8" width="9.08" height="9.081"/>
</g>
</svg>
