<?xml version="1.0" encoding="utf-8"?>
<!-- Generator: Adobe Illustrator 16.0.0, SVG Export Plug-In . SVG Version: 6.00 Build 0)  -->
<!DOCTYPE svg PUBLIC "-//W3C//DTD SVG 1.1//EN" "http://www.w3.org/Graphics/SVG/1.1/DTD/svg11.dtd">
<svg version="1.1" id="Layer_1" xmlns="http://www.w3.org/2000/svg" xmlns:xlink="http://www.w3.org/1999/xlink" x="0px" y="0px"
	 width="100px" height="100px" viewBox="0 0 100 100" enable-background="new 0 0 100 100" xml:space="preserve">
<g>
	<g>
		<path fill="#90A4AA" d="M51.654,18.476v11.28c0.002,0.291-0.117,0.554-0.307,0.743s-0.453,0.305-0.743,0.306
			c-0.579-0.001-1.048-0.47-1.05-1.049v-5.333c-0.001-0.001,0-0.004,0-0.007l0.002-5.939c-0.001-0.58,0.468-1.05,1.048-1.05
			C51.186,17.427,51.654,17.896,51.654,18.476z"/>
		<path fill="#EB1D26" d="M51.654,18.476v5.938c0.002,0.291-0.117,0.554-0.307,0.742c-0.189,0.19-0.454,0.307-0.744,0.308
			c-0.577-0.001-1.043-0.466-1.049-1.041c-0.001-0.001,0-0.004,0-0.007l0.002-5.939c-0.001-0.58,0.468-1.05,1.048-1.05
			C51.186,17.427,51.654,17.896,51.654,18.476z"/>
		<g>
			<path fill="#F39F1E" d="M47.732,17.293c-0.383,0.434-1.047,0.474-1.48,0.09l-3.723-3.293c-0.434-0.384-0.475-1.047-0.09-1.481
				s1.047-0.475,1.48-0.091l3.725,3.294C48.076,16.195,48.117,16.859,47.732,17.293z"/>
			<path fill="#F39F1E" d="M58.789,27.074c-0.385,0.435-1.047,0.476-1.482,0.091l-3.723-3.295c-0.434-0.383-0.475-1.047-0.09-1.48
				c0.383-0.435,1.047-0.475,1.48-0.092l3.725,3.295C59.133,25.978,59.172,26.64,58.789,27.074z"/>
			<path fill="#F39F1E" d="M46.505,20.409c-0.197,0.224-0.49,0.361-0.812,0.354l-4.97-0.132c-0.579-0.015-1.036-0.496-1.021-1.076
				c0.016-0.579,0.496-1.036,1.076-1.021l4.969,0.13c0.579,0.015,1.036,0.497,1.021,1.077C46.761,19.997,46.664,20.23,46.505,20.409
				z"/>
			<path fill="#F39F1E" d="M61.264,20.795c-0.199,0.224-0.492,0.361-0.814,0.354l-4.971-0.13c-0.578-0.015-1.035-0.497-1.021-1.076
				c0.018-0.58,0.5-1.036,1.078-1.021l4.969,0.129c0.578,0.016,1.037,0.498,1.021,1.078C61.518,20.384,61.42,20.617,61.264,20.795z"
				/>
			<path fill="#F39F1E" d="M47.57,23.583c-0.041,0.045-0.084,0.087-0.137,0.126l-3.889,3.093c-0.453,0.362-1.111,0.287-1.474-0.167
				c-0.36-0.454-0.286-1.113,0.169-1.474l3.889-3.094c0.453-0.361,1.114-0.286,1.475,0.168C47.925,22.64,47.9,23.209,47.57,23.583z"
				/>
			<path fill="#F39F1E" d="M59.121,14.394c-0.039,0.046-0.086,0.087-0.133,0.127l-3.891,3.094c-0.455,0.36-1.113,0.286-1.473-0.168
				c-0.363-0.454-0.287-1.114,0.168-1.475l3.891-3.093c0.451-0.361,1.111-0.285,1.473,0.168
				C59.479,13.451,59.453,14.02,59.121,14.394z"/>
			<path fill="#F39F1E" d="M52.375,15.739c-0.238,0.271-0.615,0.411-0.994,0.334c-0.568-0.117-0.936-0.669-0.819-1.238l0.991-4.87
				c0.115-0.567,0.67-0.935,1.236-0.819c0.568,0.115,0.936,0.669,0.82,1.238l-0.992,4.87C52.58,15.441,52.494,15.605,52.375,15.739z
				"/>
		</g>
	</g>
	<g>
		<path fill="#C03B2B" d="M67.441,32.144H67.43h-7.461h-0.012c-1.297,0-2.361,0.991-2.479,2.258v-2.258
			c0-1.376-1.115-2.491-2.49-2.491h-0.012h-9.953h-0.013c-1.374,0-2.49,1.115-2.49,2.491v2.258
			c-0.117-1.267-1.182-2.258-2.479-2.258H40.03h-7.461h-0.011c-1.376,0-2.49,1.113-2.49,2.49V86.94c0,1.377,1.114,2.492,2.49,2.492
			h7.472c0.003,0,0.008,0,0.012,0h0.001c1.293,0,2.355-0.986,2.479-2.248c-0.004,1.145-0.022,1.861,0.012,2.371v1.121l0.319,0.004
			c0.039,0.064,0.081,0.129,0.131,0.195L50,90.78l7.018,0.096c0.049-0.066,0.092-0.131,0.131-0.195l0.318-0.004v-1.121
			c0.035-0.51,0.016-1.227,0.012-2.371c0.123,1.262,1.186,2.248,2.479,2.248h0.002c0.004,0,0.008,0,0.01,0h7.473
			c1.377,0,2.49-1.115,2.49-2.492V34.634C69.932,33.257,68.818,32.144,67.441,32.144z M50,65.77c-0.066,0-0.133-0.003-0.2-0.003
			c-1.665-0.023-3.349-0.325-4.985-0.933c-6.781-2.516-10.789-9.527-9.51-16.648c0.996-5.561,4.992-9.94,10.141-11.593
			c0.005-0.002,0.011-0.004,0.016-0.005c0.35-0.112,0.707-0.209,1.067-0.295c0.083-0.021,0.168-0.041,0.252-0.061
			c0.159-0.035,0.318-0.066,0.478-0.098c0.145-0.025,0.289-0.049,0.433-0.072c0.187-0.028,0.374-0.054,0.562-0.077
			c0.191-0.021,0.381-0.042,0.573-0.058c0.107-0.007,0.216-0.015,0.324-0.021c0.272-0.015,0.544-0.026,0.819-0.026
			c0.011,0,0.021,0,0.031,0c0.01,0,0.021,0,0.031,0c0.274,0,0.548,0.012,0.82,0.026c0.107,0.007,0.215,0.015,0.323,0.021
			c0.193,0.016,0.385,0.036,0.574,0.058c0.188,0.023,0.375,0.049,0.561,0.077c0.145,0.023,0.289,0.047,0.434,0.072
			c0.16,0.031,0.318,0.062,0.477,0.098c0.086,0.02,0.17,0.039,0.252,0.061c0.361,0.086,0.717,0.183,1.068,0.295
			c0.006,0.001,0.01,0.003,0.016,0.005c5.148,1.652,9.145,6.032,10.141,11.593c1.279,7.121-2.729,14.133-9.51,16.648
			c-1.637,0.607-3.32,0.909-4.987,0.933C50.132,65.767,50.066,65.77,50,65.77z"/>
		<path id="Shape_88_" fill="#E54D3C" d="M42.533,90.677V63.777c4.624,2.669,10.323,2.669,14.946,0v25.655
			c0,0.518-0.162,1.021-0.461,1.443L42.533,90.677z"/>
		<path id="Shape_87_" fill="#E54D3C" d="M57.479,32.144v5.729c-4.623-2.67-10.322-2.67-14.946,0v-5.729
			c0-1.376,1.115-2.491,2.491-2.491h9.964C56.363,29.652,57.479,30.768,57.479,32.144z"/>
		<path id="Shape_86_" fill="#85B6CC" d="M63.02,43.476c-2.65-4.694-7.623-7.598-13.014-7.598
			c-13.625,0-20.125,16.825-10.113,25.942c2.748,2.555,6.363,3.968,10.113,3.949c5.313,0,10.229-2.824,12.907-7.413
			C65.592,53.77,65.631,48.104,63.02,43.476z"/>
		<path id="Shape_85_" fill="#A0C9D3" d="M58.725,38.694c-5.494,0.921-18.372,4.832-21.647,19.603l-0.088-0.15
			c-2.6-4.626-2.551-10.283,0.127-14.864s7.584-7.397,12.889-7.404C53.137,35.858,56.195,36.843,58.725,38.694L58.725,38.694z"/>
		<g>
			<path id="Shape_84_" fill="#405D6C" d="M57.479,52.069h-7.473c-0.688,0-1.246-0.558-1.246-1.246v-7.473
				c0-0.687,0.559-1.244,1.246-1.244s1.245,0.558,1.245,1.244v6.228h6.229c0.688,0,1.246,0.558,1.246,1.245
				C58.725,51.512,58.166,52.069,57.479,52.069z"/>
			<path id="Shape_83_" fill="#405D6C" d="M50.005,39.615c-0.688,0-1.246-0.559-1.246-1.246v-2.491c0-0.688,0.559-1.244,1.246-1.244
				s1.245,0.557,1.245,1.244v2.491C51.25,39.057,50.693,39.615,50.005,39.615z"/>
			<path id="Shape_82_" fill="#405D6C" d="M50.005,67.013c-0.688,0-1.246-0.557-1.246-1.243v-2.492c0-0.688,0.559-1.245,1.246-1.245
				s1.245,0.558,1.245,1.245v2.492C51.25,66.456,50.693,67.013,50.005,67.013z"/>
			<path id="Shape_80_" fill="#405D6C" d="M64.951,52.069h-2.492c-0.688,0-1.244-0.558-1.244-1.246c0-0.688,0.557-1.245,1.244-1.245
				h2.492c0.688,0,1.246,0.558,1.246,1.245C66.197,51.512,65.639,52.069,64.951,52.069z"/>
			<path id="Shape_79_" fill="#405D6C" d="M37.552,52.069H35.06c-0.688,0-1.244-0.558-1.244-1.246c0-0.688,0.557-1.245,1.244-1.245
				h2.492c0.686,0,1.244,0.558,1.244,1.245C38.796,51.512,38.238,52.069,37.552,52.069z"/>
			<path id="Shape_78_" fill="#405D6C" d="M43.779,41.285c-0.447,0.001-0.861-0.236-1.084-0.623l-1.245-2.156
				c-0.222-0.387-0.222-0.863,0.002-1.248c0.225-0.388,0.638-0.624,1.085-0.623c0.445,0.001,0.857,0.239,1.079,0.627l1.245,2.154
				c0.225,0.387,0.223,0.862,0,1.248C44.637,41.051,44.224,41.286,43.779,41.285z"/>
			<path id="Shape_77_" fill="#405D6C" d="M57.479,65.008c-0.447,0.001-0.859-0.234-1.084-0.622l-1.246-2.154
				c-0.221-0.387-0.221-0.863,0.004-1.249c0.223-0.387,0.635-0.625,1.084-0.623c0.445,0.001,0.857,0.24,1.08,0.627l1.246,2.154
				c0.221,0.388,0.221,0.863-0.002,1.248C58.336,64.774,57.924,65.009,57.479,65.008z"/>
			<path id="Shape_73_" fill="#405D6C" d="M56.232,41.285c-0.445,0.001-0.857-0.234-1.082-0.621
				c-0.223-0.386-0.225-0.861-0.002-1.248l1.246-2.154c0.225-0.388,0.635-0.626,1.082-0.627c0.445-0.001,0.859,0.235,1.084,0.623
				c0.223,0.385,0.223,0.861,0.002,1.248l-1.246,2.156C57.092,41.049,56.68,41.286,56.232,41.285z"/>
			<path id="Shape_72_" fill="#405D6C" d="M42.533,65.008c-0.445,0.001-0.857-0.233-1.082-0.619
				c-0.223-0.385-0.225-0.86-0.001-1.248l1.245-2.154c0.345-0.6,1.107-0.805,1.705-0.461c0.6,0.344,0.807,1.107,0.461,1.706
				l-1.245,2.154C43.392,64.773,42.98,65.009,42.533,65.008z"/>
			<path id="Shape_71_" fill="#405D6C" d="M36.99,59.418c-0.592,0.032-1.127-0.356-1.277-0.934
				c-0.147-0.576,0.131-1.177,0.668-1.433l2.167-1.245c0.599-0.339,1.356-0.127,1.694,0.473c0.338,0.596,0.132,1.353-0.461,1.693
				C37.341,59.404,37.415,59.418,36.99,59.418z"/>
			<path id="Shape_70_" fill="#405D6C" d="M60.854,45.942c-0.568,0.003-1.066-0.376-1.213-0.924
				c-0.146-0.549,0.096-1.126,0.59-1.406l2.18-1.244c0.598-0.345,1.363-0.138,1.707,0.46c0.342,0.598,0.137,1.362-0.463,1.707
				C61.215,45.929,61.215,45.942,60.854,45.942z"/>
			<path id="Shape_56_" fill="#405D6C" d="M39.283,45.742c-0.449,0-0.473-0.075-2.777-1.445c-0.434-0.195-0.717-0.62-0.732-1.094
				c-0.015-0.477,0.242-0.918,0.662-1.142c0.422-0.221,0.932-0.186,1.314,0.095l2.156,1.244c0.508,0.274,0.76,0.859,0.611,1.419
				C40.371,45.375,39.859,45.758,39.283,45.742z"/>
			<path id="Shape_52_" fill="#405D6C" d="M62.871,59.665c-0.412,0-0.412-0.122-2.777-1.443c-0.518-0.375-0.666-1.08-0.344-1.635
				c0.32-0.551,1.008-0.771,1.59-0.505l2.141,1.243c0.506,0.272,0.758,0.854,0.613,1.41C63.951,59.291,63.443,59.675,62.871,59.665z
				"/>
		</g>
		<path id="Shape_51_" fill="#E54D3C" d="M64.951,69.506c-0.689,0-1.246-0.558-1.246-1.246v-2.49c0-0.688,0.557-1.246,1.246-1.246
			c0.688,0,1.246,0.558,1.246,1.246v2.49C66.197,68.948,65.639,69.506,64.951,69.506z"/>
		<path id="Shape_50_" fill="#E54D3C" d="M64.951,85.696c-0.689,0-1.246-0.559-1.246-1.247V73.241c0-0.688,0.557-1.246,1.246-1.246
			c0.688,0,1.246,0.558,1.246,1.246v11.208C66.197,85.138,65.639,85.696,64.951,85.696z"/>
		<path id="Shape_49_" fill="#EDF0F1" d="M50.005,67.013c-8.942,0-16.189-7.248-16.189-16.189c0-8.94,7.247-16.189,16.189-16.189
			c8.942,0,16.192,7.249,16.192,16.189c0,4.293-1.707,8.413-4.742,11.449C58.418,65.307,54.301,67.013,50.005,67.013z
			 M50.005,37.124c-7.566,0-13.699,6.135-13.699,13.699c0,7.566,6.133,13.7,13.699,13.7c7.567,0,13.7-6.134,13.7-13.7
			c0-3.632-1.443-7.117-4.012-9.687C57.123,38.567,53.641,37.124,50.005,37.124z"/>
	</g>
</g>
</svg>
