<?xml version="1.0" encoding="utf-8"?>
<!-- Generator: Adobe Illustrator 16.0.0, SVG Export Plug-In . SVG Version: 6.00 Build 0)  -->
<!DOCTYPE svg PUBLIC "-//W3C//DTD SVG 1.1//EN" "http://www.w3.org/Graphics/SVG/1.1/DTD/svg11.dtd">
<svg version="1.1" id="Layer_1" xmlns="http://www.w3.org/2000/svg" xmlns:xlink="http://www.w3.org/1999/xlink" x="0px" y="0px"
	 width="100px" height="100px" viewBox="0 0 100 100" enable-background="new 0 0 100 100" xml:space="preserve">
<g>
	<path fill="#FCDA4F" d="M39.021,72.577l0.122-0.023c3.005-0.595,4.959-3.514,4.364-6.518l-3.149-15.907l-5.562,1.102L39.021,72.577
		z"/>
	<path fill="#CCC033" d="M41.341,18.374c-6.37-0.133-11.694,7.422-11.894,16.875c-0.197,9.454,4.805,17.227,11.175,17.361
		c6.369,0.134,11.694-7.422,11.893-16.876C52.713,26.28,47.711,18.508,41.341,18.374z"/>
	<path fill="#97AF3B" d="M47.022,31.174c-1.033-5.226-3.351-9.702-6.293-12.787c-6.233,0.356-11.258,8.02-11.286,17.321
		c-0.027,9.102,4.737,16.453,10.778,16.884C45.919,49.529,48.906,40.687,47.022,31.174z"/>
	<path fill="#FCDA4F" d="M39.021,72.577l-0.123,0.025c-3.004,0.594-5.922-1.359-6.517-4.364l-3.148-15.907l5.562-1.101
		L39.021,72.577z"/>
	<path fill="#97AF3B" d="M33.698,34.41c-3.786-8.664-11.588-13.622-17.427-11.071c-5.838,2.551-7.501,11.645-3.716,20.31
		c3.787,8.666,11.589,13.622,17.427,11.071C35.821,52.169,37.483,43.075,33.698,34.41z"/>
	<path fill="#EBCF31" d="M44.847,31.606c-2.156-10.896-9.884-18.544-17.261-17.084c-7.375,1.46-11.606,11.477-9.449,22.371
		c2.156,10.896,9.885,18.545,17.261,17.084C42.774,52.519,47.004,42.503,44.847,31.606z"/>
	<path fill="#CCC033" d="M25.393,35.456c-1.789-9.037,0.816-17.469,5.967-20.915c-1.248-0.252-2.516-0.269-3.773-0.019
		c-7.375,1.459-11.606,11.476-9.449,22.37c2.156,10.896,9.885,18.544,17.26,17.085c1.258-0.25,2.423-0.748,3.482-1.457
		C32.805,51.298,27.182,44.493,25.393,35.456z"/>
	<path fill="#FEEDA4" d="M30.597,35.822c-2.786,0-5.03-1.493-5.141-1.567c-0.468-0.317-0.591-0.953-0.274-1.421
		s0.951-0.591,1.419-0.275c0.036,0.023,2.509,1.645,5.081,1.108c1.455-0.305,2.704-1.259,3.716-2.837
		c0.304-0.477,0.937-0.615,1.414-0.31c0.475,0.305,0.613,0.938,0.309,1.413c-1.324,2.065-3.019,3.324-5.04,3.74
		C31.576,35.778,31.079,35.822,30.597,35.822z"/>
	<path fill="#FEEDA4" d="M32.277,44.995c-4.2,0-7.734-2.949-7.902-3.09c-0.431-0.365-0.484-1.012-0.119-1.442
		c0.364-0.431,1.009-0.484,1.44-0.121c0.039,0.034,3.961,3.29,7.891,2.475c2.236-0.462,4.113-2.188,5.578-5.127
		c0.252-0.506,0.867-0.711,1.372-0.46c0.505,0.253,0.711,0.867,0.46,1.372c-1.763,3.534-4.12,5.628-7.009,6.222
		C33.411,44.942,32.836,44.995,32.277,44.995z"/>
	<path fill="#FFF9DD" d="M31.727,28.083c-0.154-0.673-0.868-1.093-1.609-0.945c-0.739,0.146-1.238,0.802-1.127,1.483l6.799,41.87
		c0.019,0.11,0.052,0.213,0.098,0.311c0.392,1.268,1.735,2.053,3.126,1.777c0.011-0.002,0.02-0.005,0.028-0.008
		c0.012-0.001,0.023-0.002,0.035-0.005c1.374-0.271,2.301-1.509,2.165-2.825c0.005-0.104-0.003-0.211-0.027-0.318L31.727,28.083z"/>
	<path fill="#FFF4C1" d="M37.531,70.476c-0.046-0.098-0.08-0.199-0.097-0.31l-6.801-41.871c-0.064-0.396,0.08-0.784,0.356-1.067
		c-0.261-0.113-0.563-0.151-0.872-0.09c-0.739,0.146-1.238,0.802-1.127,1.482l6.799,41.871c0.019,0.109,0.052,0.213,0.098,0.311
		c0.392,1.268,1.735,2.053,3.126,1.777c0.011-0.002,0.02-0.005,0.028-0.008c0.012-0.002,0.023-0.002,0.035-0.005
		c0.273-0.054,0.529-0.147,0.762-0.271C38.768,72.194,37.843,71.491,37.531,70.476z"/>
	<path fill="#F2634F" d="M59.842,66.7c-1.627-0.901-2.387-2.811-1.805-4.527L66.67,36.74c1.688-4.974,7.553-7.141,12.266-4.532
		s5.988,8.73,2.67,12.802L64.637,65.825C63.492,67.231,61.469,67.601,59.842,66.7z"/>
	<path fill="#EBCF31" d="M85.752,25.766H85.75c0.264-0.257,0.494-0.555,0.682-0.893c1.051-1.899,0.322-4.315-1.627-5.394
		c-1.949-1.08-4.383-0.414-5.436,1.485c-0.186,0.338-0.316,0.691-0.393,1.05h-0.002l-0.002,0.011
		c-0.021,0.102-0.039,0.204-0.051,0.307l-1.205,7.057c-0.1,0.581,0.189,1.168,0.717,1.46c0.52,0.287,1.16,0.227,1.598-0.153
		l5.367-4.627c0.119-0.091,0.232-0.189,0.342-0.294L85.752,25.766z"/>
	<g>
		<path fill="#F04F3A" d="M66.768,57.029c-0.137,0-0.273-0.027-0.408-0.085l-4.34-1.887c-0.52-0.226-0.758-0.828-0.531-1.348
			c0.225-0.518,0.828-0.755,1.346-0.529l4.342,1.887c0.518,0.225,0.756,0.827,0.531,1.346
			C67.539,56.798,67.162,57.029,66.768,57.029z"/>
		<path fill="#F04F3A" d="M73.236,53.704c-0.135,0-0.273-0.027-0.408-0.086l-5.645-2.451c-0.518-0.225-0.756-0.828-0.531-1.346
			s0.826-0.756,1.346-0.531l5.646,2.453c0.518,0.225,0.756,0.826,0.531,1.345C74.008,53.474,73.631,53.704,73.236,53.704z"/>
		<path fill="#F04F3A" d="M71.006,46.356c-0.135,0-0.273-0.027-0.406-0.085l-4.342-1.888c-0.518-0.225-0.756-0.826-0.529-1.346
			c0.225-0.516,0.828-0.756,1.344-0.529l4.342,1.886c0.52,0.226,0.756,0.829,0.531,1.346C71.777,46.126,71.402,46.356,71.006,46.356
			z"/>
		<path fill="#F04F3A" d="M79.541,44.067c-0.135,0-0.273-0.027-0.406-0.084l-7.787-3.383c-0.518-0.225-0.756-0.828-0.531-1.346
			c0.225-0.519,0.826-0.756,1.346-0.531l7.789,3.383c0.518,0.225,0.756,0.828,0.529,1.346
			C80.312,43.838,79.938,44.067,79.541,44.067z"/>
	</g>
	<path fill="#CCC033" d="M79.57,30.958c0.002-0.024,0.004-0.05,0.008-0.076l1.205-7.056c0.014-0.104,0.029-0.205,0.051-0.306
		l0.004-0.012l0,0c0.078-0.359,0.207-0.713,0.395-1.051c0.971-1.754,3.119-2.453,4.977-1.702c-0.348-0.512-0.82-0.954-1.404-1.276
		c-1.949-1.08-4.383-0.414-5.436,1.485c-0.186,0.338-0.316,0.691-0.393,1.051l-0.002-0.001l-0.002,0.012
		c-0.021,0.102-0.039,0.204-0.053,0.306l-1.203,7.058c-0.1,0.58,0.189,1.167,0.717,1.459C78.791,31.046,79.203,31.078,79.57,30.958z
		"/>
	<path fill="#FCE575" d="M79.008,29.707l-1.211-5.704c-0.018-0.121-0.043-0.243-0.076-0.362l-0.002-0.011h-0.002
		c-0.08-0.292-0.201-0.579-0.371-0.853c-0.947-1.538-2.965-2.054-4.506-1.151c-1.539,0.903-2.018,2.883-1.068,4.421
		c0.168,0.273,0.371,0.513,0.598,0.719v0.001l0.008,0.006c0.062,0.059,0.129,0.113,0.197,0.166l4.588,3.83
		c0.377,0.314,0.91,0.363,1.328,0.118C78.9,30.647,79.107,30.175,79.008,29.707z"/>
	<path fill="#EBCF31" d="M74.875,25.881c-0.068-0.052-0.135-0.107-0.199-0.165l-0.008-0.007h0.002c-0.227-0.206-0.43-0.446-0.6-0.72
		c-0.77-1.249-0.6-2.788,0.314-3.806c-0.531,0.015-1.061,0.159-1.545,0.442c-1.539,0.902-2.018,2.883-1.068,4.421
		c0.168,0.273,0.371,0.513,0.598,0.719v0.001l0.008,0.006c0.062,0.059,0.129,0.113,0.197,0.166l4.588,3.83
		c0.377,0.314,0.91,0.363,1.328,0.118c0.41-0.239,0.617-0.712,0.518-1.18l-0.098-0.455L74.875,25.881z"/>
	<path fill="#FCE575" d="M89.473,30.833c-0.053-1.784-1.561-3.22-3.369-3.208c-0.32,0.002-0.629,0.052-0.92,0.138l0,0l-0.01,0.004
		c-0.119,0.035-0.236,0.078-0.35,0.127l-5.475,2.002c-0.449,0.164-0.74,0.591-0.727,1.066c0.016,0.483,0.34,0.909,0.807,1.062
		l5.682,1.854c0.078,0.029,0.16,0.057,0.244,0.08l0.01,0.003V33.96c0.295,0.084,0.607,0.128,0.928,0.125
		C88.102,34.074,89.523,32.617,89.473,30.833z"/>
	<path fill="#EBCF31" d="M88.594,33.028c-0.322,0.002-0.633-0.043-0.928-0.125l0,0l-0.01-0.003c-0.084-0.023-0.166-0.05-0.246-0.079
		l-5.68-1.854c-0.469-0.152-0.791-0.58-0.807-1.062c-0.008-0.241,0.064-0.468,0.193-0.656l-1.768,0.647
		c-0.449,0.164-0.74,0.59-0.727,1.066c0.016,0.482,0.34,0.908,0.807,1.062l5.682,1.854c0.078,0.029,0.16,0.058,0.244,0.08
		l0.01,0.004v-0.001c0.295,0.083,0.607,0.128,0.928,0.125c0.953-0.007,1.799-0.415,2.377-1.06
		C88.645,33.026,88.619,33.028,88.594,33.028z"/>
	<path fill="#F04F3A" d="M62.547,63.326l8.633-25.432c1.18-3.474,4.395-5.578,7.832-5.644c-0.025-0.015-0.051-0.029-0.076-0.043
		C74.223,29.6,68.357,31.767,66.67,36.74l-8.633,25.433c-0.584,1.717,0.178,3.626,1.805,4.527c1.072,0.592,2.312,0.635,3.363,0.193
		C62.406,65.906,62.125,64.565,62.547,63.326z"/>
	<path fill="#BE6E29" d="M50.975,41.396c-0.51,0-0.932-0.413-0.963-0.943l-0.428-7.262c-0.033-0.578,0.408-1.066,0.964-1.066h0.854
		c0.557,0,0.998,0.488,0.965,1.066l-0.428,7.262C51.908,40.982,51.486,41.396,50.975,41.396z"/>
	<path fill="#EBCF31" d="M52.037,38.012c5.83,3.229,7.422-3.491,7.779-5.69c0.061-0.372-0.189-0.721-0.549-0.771
		c-2.172-0.302-9.075-0.769-7.719,5.792C51.609,37.629,51.787,37.874,52.037,38.012z"/>
	<path fill="#8C4E21" d="M50.914,40.452l-0.427-7.262c-0.033-0.57,0.395-1.052,0.939-1.065c-0.008-0.001-0.016-0.001-0.023-0.001
		h-0.854c-0.556,0-0.997,0.488-0.964,1.066l0.428,7.262c0.032,0.53,0.453,0.943,0.963,0.943c0.164,0,0.316-0.041,0.451-0.115
		C51.139,41.121,50.934,40.813,50.914,40.452z"/>
	<path fill="#F2634F" d="M59.584,38.322c-3.037-0.652-6.107,0.3-8.63,2.368c-2.524-2.068-5.596-3.021-8.631-2.368
		c-6.126,1.318-9.784,8.671-8.172,16.421c1.613,7.751,7.887,12.967,14.012,11.649c1-0.216,1.934-0.591,2.789-1.104
		c0.857,0.514,1.791,0.889,2.791,1.104c6.125,1.317,12.398-3.898,14.012-11.649C69.367,46.993,65.709,39.641,59.584,38.322z"/>
	<path fill="#CCC033" d="M53.305,38.22c-1.158-5.607,3.715-6.081,6.514-5.912c0.053-0.366-0.195-0.709-0.551-0.758
		c-2.172-0.303-9.074-0.769-7.719,5.792c0.061,0.286,0.24,0.532,0.488,0.67c0.525,0.291,1.018,0.5,1.475,0.641
		C53.412,38.529,53.338,38.381,53.305,38.22z"/>
	<path fill="#F04F3A" d="M39.418,54.743c-1.551-7.45,1.77-14.531,7.471-16.239c-1.48-0.43-3.028-0.512-4.566-0.182
		c-6.126,1.318-9.784,8.671-8.172,16.421c1.613,7.751,7.887,12.967,14.012,11.649c0.237-0.052,0.471-0.112,0.7-0.181
		C44.448,64.93,40.626,60.548,39.418,54.743z"/>
	<path fill="#DB9D2D" d="M16.836,83.854v-38.98c0-0.913,0.739-1.651,1.652-1.651h7.808c0.912,0,1.651,0.738,1.651,1.651v38.98
		c0,0.912-0.739,1.65-1.651,1.65h-7.808C17.576,85.504,16.836,84.766,16.836,83.854z"/>
	<path fill="#DB9D2D" d="M72.221,83.854v-38.98c0-0.913,0.738-1.651,1.65-1.651h7.809c0.912,0,1.65,0.738,1.65,1.651v38.98
		c0,0.912-0.738,1.65-1.65,1.65h-7.809C72.959,85.504,72.221,84.766,72.221,83.854z"/>
	<path fill="#FEC44E" d="M86.74,58.036H13.427c-0.942,0-1.705-0.763-1.705-1.704v-7.673c0-0.941,0.763-1.705,1.705-1.705H86.74
		c0.941,0,1.705,0.764,1.705,1.705v7.673C88.445,57.273,87.682,58.036,86.74,58.036z"/>
	<path fill="#FEC44E" d="M86.74,71.847H13.427c-0.942,0-1.705-0.764-1.705-1.705V62.47c0-0.941,0.763-1.705,1.705-1.705H86.74
		c0.941,0,1.705,0.764,1.705,1.705v7.672C88.445,71.083,87.682,71.847,86.74,71.847z"/>
	<path fill="#FEC44E" d="M86.74,85.657H13.427c-0.942,0-1.705-0.763-1.705-1.706v-7.672c0-0.941,0.763-1.705,1.705-1.705H86.74
		c0.941,0,1.705,0.764,1.705,1.705v7.672C88.445,84.895,87.682,85.657,86.74,85.657z"/>
	<path fill="#FFD551" d="M85.377,83.611c-0.564,0-1.023-0.459-1.023-1.023v-4.945c0-0.564,0.459-1.022,1.023-1.022
		s1.023,0.458,1.023,1.022v4.945C86.4,83.152,85.941,83.611,85.377,83.611z"/>
	<path fill="#FFDF75" d="M79.41,79.688c0,0.943-0.764,1.706-1.705,1.706S76,80.632,76,79.688c0-0.94,0.764-1.704,1.705-1.704
		S79.41,78.748,79.41,79.688z"/>
	<path fill="#FFDF75" d="M79.41,65.88c0,0.941-0.764,1.704-1.705,1.704S76,66.821,76,65.88c0-0.942,0.764-1.705,1.705-1.705
		S79.41,64.938,79.41,65.88z"/>
	<path fill="#FFDF75" d="M79.41,52.069c0,0.941-0.764,1.705-1.705,1.705S76,53.011,76,52.069s0.764-1.705,1.705-1.705
		S79.41,51.128,79.41,52.069z"/>
	<path fill="#F8BB30" d="M21.952,70.142V62.47c0-0.941,0.764-1.705,1.705-1.705H13.427c-0.942,0-1.705,0.764-1.705,1.705v7.672
		c0,0.941,0.763,1.705,1.705,1.705h10.229C22.715,71.847,21.952,71.083,21.952,70.142z"/>
	<path fill="#F8BB30" d="M21.952,83.951v-7.672c0-0.941,0.764-1.705,1.705-1.705H13.427c-0.942,0-1.705,0.764-1.705,1.705v7.672
		c0,0.943,0.763,1.706,1.705,1.706h10.229C22.715,85.657,21.952,84.895,21.952,83.951z"/>
	<path fill="#F8BB30" d="M21.952,56.332v-7.673c0-0.941,0.764-1.705,1.705-1.705H13.427c-0.942,0-1.705,0.764-1.705,1.705v7.673
		c0,0.941,0.763,1.704,1.705,1.704h10.229C22.715,58.036,21.952,57.273,21.952,56.332z"/>
	<path fill="#FFDF75" d="M24.168,52.069c0,0.941-0.763,1.705-1.705,1.705c-0.941,0-1.705-0.764-1.705-1.705s0.764-1.705,1.705-1.705
		C23.406,50.364,24.168,51.128,24.168,52.069z"/>
	<path fill="#FFDF75" d="M24.168,65.88c0,0.941-0.763,1.704-1.705,1.704c-0.941,0-1.705-0.763-1.705-1.704
		c0-0.942,0.764-1.705,1.705-1.705C23.406,64.175,24.168,64.938,24.168,65.88z"/>
	<path fill="#FFDF75" d="M24.168,79.688c0,0.943-0.763,1.706-1.705,1.706c-0.941,0-1.705-0.763-1.705-1.706
		c0-0.94,0.764-1.704,1.705-1.704C23.406,77.984,24.168,78.748,24.168,79.688z"/>
	<path fill="#FFD551" d="M21.952,67.506v-3.253c-0.691,0.217-1.193,0.863-1.193,1.627S21.26,67.288,21.952,67.506z"/>
	<path fill="#FFD551" d="M21.952,81.315v-3.253c-0.691,0.218-1.193,0.863-1.193,1.626C20.758,80.453,21.26,81.099,21.952,81.315z"/>
	<path fill="#FFD551" d="M21.952,53.695v-3.253c-0.691,0.217-1.193,0.863-1.193,1.627C20.758,52.832,21.26,53.479,21.952,53.695z"/>
	<path fill="#F8BB30" d="M35.926,52.069c0,1.647-1.336,2.983-2.983,2.983s-2.983-1.336-2.983-2.983c0-1.648,1.336-2.984,2.983-2.984
		S35.926,50.421,35.926,52.069z"/>
	<path fill="#F8BB30" d="M46.157,65.88c0,1.646-1.336,2.983-2.983,2.983s-2.984-1.337-2.984-2.983c0-1.648,1.337-2.984,2.984-2.984
		S46.157,64.231,46.157,65.88z"/>
	<path fill="#FFD551" d="M85.377,69.801c-0.564,0-1.023-0.458-1.023-1.023v-4.944c0-0.564,0.459-1.023,1.023-1.023
		s1.023,0.459,1.023,1.023v4.944C86.4,69.343,85.941,69.801,85.377,69.801z"/>
	<path fill="#FFD551" d="M85.377,55.478c-0.564,0-1.023-0.457-1.023-1.022v-4.944c0-0.564,0.459-1.023,1.023-1.023
		s1.023,0.459,1.023,1.023v4.944C86.4,55.021,85.941,55.478,85.377,55.478z"/>
</g>
</svg>
