<?xml version="1.0" encoding="utf-8"?>
<!-- Generator: Adobe Illustrator 16.0.0, SVG Export Plug-In . SVG Version: 6.00 Build 0)  -->
<!DOCTYPE svg PUBLIC "-//W3C//DTD SVG 1.1//EN" "http://www.w3.org/Graphics/SVG/1.1/DTD/svg11.dtd">
<svg version="1.1" id="Layer_1" xmlns="http://www.w3.org/2000/svg" xmlns:xlink="http://www.w3.org/1999/xlink" x="0px" y="0px"
	 width="100px" height="100px" viewBox="0 0 100 100" enable-background="new 0 0 100 100" xml:space="preserve">
<g>
	<polygon fill="#906976" points="81.025,20.074 81.025,16.297 72.699,16.297 72.699,12.263 63.855,12.263 63.855,5.824 
		55.016,5.824 55.016,9.257 44.798,9.257 44.798,5.824 35.958,5.824 35.958,12.263 27.116,12.263 27.116,16.297 18.788,16.297 
		18.788,20.074 10.375,20.074 10.375,91.939 25.867,92.024 33.512,95.533 66.879,95.288 74.41,91.939 89.373,92.183 89.439,20.074 	
		"/>
	<polygon fill="#A47786" points="50.486,9.257 44.798,9.257 44.798,5.824 35.958,5.824 35.958,12.263 27.116,12.263 27.116,16.297 
		18.788,16.297 18.788,20.074 10.375,20.074 10.375,91.939 25.867,92.024 33.512,95.533 50.486,95.408 	"/>
	<polygon fill="#A48181" points="72.699,25.865 72.699,21.487 65.619,21.487 65.619,16.98 49.905,16.98 47.139,16.98 34.776,16.98 
		34.776,21.487 27.694,21.487 27.694,25.865 19.453,25.865 19.453,91.669 27.694,91.669 34.776,91.669 35.934,91.669 47.139,91.669 
		49.905,91.669 64.459,91.669 65.619,91.669 72.699,91.669 80.939,91.669 80.939,25.865 	"/>
	<polygon fill="#C19797" points="50.486,16.98 49.905,16.98 47.139,16.98 34.776,16.98 34.776,21.487 27.694,21.487 27.694,25.865 
		19.453,25.865 19.453,91.669 27.694,91.669 34.776,91.669 35.934,91.669 47.139,91.669 49.905,91.669 50.486,91.669 	"/>
	<polygon fill="#414B54" points="50.486,10.67 41.86,16.851 41.86,95.145 59.113,95.145 59.113,16.851 	"/>
	<polygon fill="#4D5963" points="50.486,10.67 41.86,16.851 41.86,95.145 50.486,95.145 	"/>
	<polyline fill="none" stroke="#3D3C45" stroke-width="4.5752" stroke-miterlimit="10" points="9.472,86.646 25.76,86.646 
		33.487,89.993 41.985,89.993 66.969,89.993 74.5,86.646 91.689,86.646 	"/>
	<rect x="89.373" y="68.618" fill="#9C4A2B" width="2.316" height="23.564"/>
	<rect x="79.91" y="68.618" fill="#86442A" width="2.875" height="23.564"/>
	<rect x="65.252" y="71.151" fill="#9C4A2B" width="1.586" height="23.564"/>
	<rect x="58.688" y="71.151" fill="#9C4A2B" width="1.588" height="23.564"/>
	<rect x="58.854" y="80.4" fill="#9C4A2B" width="6.828" height="1.395"/>
	<rect x="58.854" y="71.151" fill="#9C4A2B" width="6.828" height="1.846"/>
	<rect x="58.854" y="75.657" fill="#9C4A2B" width="6.828" height="2.446"/>
	<rect x="73.75" y="78.383" fill="#9C4A2B" width="6.826" height="1.395"/>
	<rect x="73.75" y="69.132" fill="#9C4A2B" width="6.826" height="1.846"/>
	<rect x="73.75" y="73.641" fill="#9C4A2B" width="6.826" height="2.443"/>
	<polygon fill="#86442A" points="72.992,80.387 68.312,82.522 68.262,81.03 72.936,78.895 	"/>
	<polygon fill="#86442A" points="72.719,71.071 68.041,73.205 67.969,71.232 72.645,69.097 	"/>
	<polygon fill="#86442A" points="72.729,76.547 68.053,78.681 67.955,76.064 72.637,73.931 	"/>
	<rect x="82.977" y="78.383" fill="#9C4A2B" width="6.826" height="1.395"/>
	<rect x="82.977" y="69.132" fill="#9C4A2B" width="6.826" height="1.846"/>
	<rect x="82.977" y="73.641" fill="#9C4A2B" width="6.826" height="2.443"/>
	<rect x="72.549" y="69.132" fill="#9C4A2B" width="1.588" height="23.564"/>
	<polygon fill="#86442A" points="66.838,71.179 68.428,70.526 68.428,94.091 66.838,94.743 	"/>
	<rect x="72.119" y="69.097" fill="#86442A" width="0.525" height="23.6"/>
	<rect x="80.576" y="68.618" fill="#9C4A2B" width="2.875" height="23.564"/>
	<polyline fill="none" stroke="#DCBB99" stroke-width="1.0302" stroke-miterlimit="10" points="57.654,71.107 66.838,71.107 
		72.729,68.618 91.689,68.618 	"/>
	<rect x="8.31" y="68.618" fill="#9C4A2B" width="2.321" height="23.564"/>
	<rect x="17.219" y="68.618" fill="#86442A" width="2.875" height="23.564"/>
	<rect x="33.164" y="71.151" fill="#9C4A2B" width="1.588" height="23.564"/>
	<rect x="40.761" y="71.151" fill="#9C4A2B" width="1.588" height="23.564"/>
	<rect x="34.323" y="80.4" fill="#9C4A2B" width="6.825" height="1.395"/>
	<rect x="34.323" y="71.151" fill="#9C4A2B" width="6.825" height="1.846"/>
	<rect x="34.323" y="75.657" fill="#9C4A2B" width="6.825" height="2.446"/>
	<rect x="19.429" y="78.383" fill="#9C4A2B" width="6.825" height="1.395"/>
	<rect x="19.429" y="69.132" fill="#9C4A2B" width="6.825" height="1.846"/>
	<rect x="19.429" y="73.641" fill="#9C4A2B" width="6.825" height="2.443"/>
	<polygon fill="#86442A" points="27.013,80.387 31.689,82.522 31.743,81.03 27.064,78.895 	"/>
	<polygon fill="#86442A" points="27.286,71.071 31.961,73.205 32.035,71.232 27.359,69.097 	"/>
	<polygon fill="#86442A" points="27.274,76.547 31.953,78.681 32.049,76.064 27.369,73.931 	"/>
	<rect x="10.202" y="78.383" fill="#9C4A2B" width="6.823" height="1.395"/>
	<rect x="10.202" y="69.132" fill="#9C4A2B" width="6.823" height="1.846"/>
	<rect x="10.202" y="73.641" fill="#9C4A2B" width="6.823" height="2.443"/>
	<rect x="25.867" y="69.132" fill="#9C4A2B" width="1.588" height="23.564"/>
	<polygon fill="#86442A" points="33.164,71.179 31.577,70.526 31.577,94.091 33.164,94.743 	"/>
	<rect x="27.359" y="69.097" fill="#86442A" width="0.525" height="23.6"/>
	<rect x="16.554" y="68.618" fill="#9C4A2B" width="2.875" height="23.564"/>
	<polyline fill="none" stroke="#DCBB99" stroke-width="1.0302" stroke-miterlimit="10" points="42.35,71.107 33.164,71.107 
		27.274,68.618 8.31,68.618 	"/>
	<polyline fill="none" stroke="#DCBB99" stroke-width="2.2876" stroke-miterlimit="10" points="8.31,91.939 25.67,91.939 
		33.398,95.288 41.896,95.288 66.879,95.288 74.41,91.939 91.689,91.939 	"/>
	<polygon fill="#BCBFB8" points="54.455,16.98 50.571,14.405 46.686,16.98 43.616,16.98 43.616,21.187 57.525,21.187 57.525,16.98 	
		"/>
	<polygon fill="#F05023" points="53.1,19.003 52.678,18.762 53.072,17.984 52.219,18.168 52.094,17.699 51.225,18.352 
		51.578,16.678 50.984,16.924 50.488,15.882 49.99,16.924 49.398,16.678 49.75,18.352 48.882,17.699 48.757,18.168 47.903,17.984 
		48.299,18.762 47.876,19.003 49.322,19.99 49.011,20.424 50.488,20.424 51.965,20.424 51.654,19.99 	"/>
</g>
</svg>
