<?xml version="1.0" encoding="utf-8"?>
<!-- Generator: Adobe Illustrator 16.0.0, SVG Export Plug-In . SVG Version: 6.00 Build 0)  -->
<!DOCTYPE svg PUBLIC "-//W3C//DTD SVG 1.1//EN" "http://www.w3.org/Graphics/SVG/1.1/DTD/svg11.dtd">
<svg version="1.1" id="Layer_1" xmlns="http://www.w3.org/2000/svg" xmlns:xlink="http://www.w3.org/1999/xlink" x="0px" y="0px"
	 width="100px" height="100px" viewBox="0 0 100 100" enable-background="new 0 0 100 100" xml:space="preserve">
<g>
	<path fill="#F2663D" d="M19.938,49.061c0,0,3.014,4.427,9.33,8.175c0,0-4.576-38.662,25.23-45.375
		c-7.636,28.026,9.714,35.931,16.038,21.124c10.562,14.1,2.543,26.404,2.543,26.404c4.331,0.623,7.969-4.109,7.969-4.109
		c0.032,0.584,0.051,1.17,0.051,1.762c0,17.174-13.923,31.098-31.099,31.098S18.901,74.215,18.901,57.041
		C18.901,54.281,19.264,51.607,19.938,49.061z"/>
	<path fill="#EF4828" d="M81.048,55.279c0,0-3.638,4.732-7.969,4.109c0,0,8.02-12.304-2.543-26.404
		c-6.324,14.807-23.674,6.903-16.037-21.124c-1.598,0.359-3.094,0.811-4.499,1.343v74.935c17.176,0,31.099-13.924,31.099-31.098
		C81.099,56.449,81.08,55.863,81.048,55.279z"/>
	<path fill="#F9BF14" d="M36.361,74.502c0,7.531,6.106,13.637,13.639,13.637s13.639-6.105,13.639-13.637
		c0-4.033-1.75-7.656-4.531-10.152c-5.272,7.164-12.786-3.703-6.931-11.639C52.177,52.711,36.361,54.691,36.361,74.502z"/>
	<path fill="#FBA919" d="M63.639,74.502c0-4.033-1.75-7.656-4.531-10.152c-5.272,7.164-12.786-3.703-6.931-11.639
		c0,0-0.859,0.107-2.177,0.523v34.904C57.532,88.139,63.639,82.033,63.639,74.502z"/>
</g>
</svg>
