<?xml version="1.0" encoding="utf-8"?>
<!-- Generator: Adobe Illustrator 16.0.0, SVG Export Plug-In . SVG Version: 6.00 Build 0)  -->
<!DOCTYPE svg PUBLIC "-//W3C//DTD SVG 1.1//EN" "http://www.w3.org/Graphics/SVG/1.1/DTD/svg11.dtd">
<svg version="1.1" id="Layer_1" xmlns="http://www.w3.org/2000/svg" xmlns:xlink="http://www.w3.org/1999/xlink" x="0px" y="0px"
	 width="100px" height="100px" viewBox="0 0 100 100" enable-background="new 0 0 100 100" xml:space="preserve">
<g>
	<path fill="#6FBF58" d="M52.546,23.801c13.397,13.384,12.567,27.59,3.284,36.863c-9.284,9.274-23.506,10.103-36.903-3.28
		S4.222,15.288,7.313,12.2C10.404,9.111,39.148,10.417,52.546,23.801L52.546,23.801z"/>
	<path fill="#5EBB51" d="M52.546,23.801c-10.485-10.474-30.367-13.55-39.999-12.913c10.422,0.561,25.787,4.145,34.565,12.913
		c13.397,13.384,12.567,27.59,3.284,36.864c-3.721,3.717-8.235,6.074-13.172,6.707c7.045,0.881,13.556-1.664,18.605-6.707
		C65.113,51.391,65.943,37.185,52.546,23.801L52.546,23.801z"/>
	<path fill="#489443" d="M64.447,67.409L47.209,50.188L48.665,36.4c0.077-0.724-0.448-1.373-1.173-1.45
		c-0.723-0.076-1.373,0.449-1.449,1.174l-1.232,11.669l-6.466-6.458l1.204-10.578c0.083-0.725-0.437-1.377-1.16-1.46
		c-0.725-0.083-1.377,0.438-1.46,1.161l-0.968,8.496l-5.869-5.863l0.953-8.367c0.082-0.723-0.438-1.377-1.161-1.459
		c-0.726-0.081-1.377,0.438-1.46,1.161l-0.715,6.284l-5.774-5.768c-0.515-0.514-1.35-0.514-1.864,0.001
		c-0.515,0.516-0.515,1.351,0.001,1.864l5.771,5.765l-6.289,0.715c-0.724,0.082-1.244,0.735-1.162,1.46
		c0.077,0.672,0.647,1.169,1.31,1.169c0.05,0,0.1-0.003,0.15-0.009l8.377-0.952l5.866,5.86l-8.503,0.967
		c-0.724,0.082-1.243,0.736-1.161,1.459c0.076,0.674,0.647,1.17,1.309,1.17c0.05,0,0.101-0.002,0.15-0.008l10.592-1.204l6.463,6.456
		l-11.68,1.23c-0.725,0.076-1.25,0.726-1.174,1.449c0.071,0.678,0.644,1.182,1.31,1.182c0.047,0,0.093-0.003,0.14-0.008
		l13.806-1.455l17.238,17.221c0.258,0.257,0.595,0.386,0.933,0.386c0.337,0,0.675-0.129,0.933-0.388
		C64.963,68.759,64.963,67.924,64.447,67.409z"/>
	<path fill="#6FBF58" d="M82.929,80.812c-13.397,13.383-27.619,12.554-36.903,3.28c-9.283-9.274-10.112-23.48,3.284-36.864
		c13.398-13.383,42.142-14.689,45.232-11.601C97.634,38.714,96.326,67.428,82.929,80.812z"/>
	<path fill="#5EBB51" d="M94.542,35.627c-1.065-1.064-5.183-1.606-10.667-1.312c2.676,0.177,4.562,0.641,5.233,1.312
		c3.092,3.088,1.784,31.801-11.613,45.185c-6.11,6.104-12.392,9.249-18.298,9.988c7.381,0.945,15.703-1.97,23.73-9.988
		C96.326,67.428,97.634,38.715,94.542,35.627z"/>
	<path fill="#489443" d="M81.217,56.821l-5.54-0.485l6.106-6.101c0.516-0.515,0.517-1.35,0.001-1.865
		c-0.515-0.515-1.349-0.516-1.864,0l-6.109,6.104l-0.486-5.536c-0.064-0.726-0.705-1.263-1.43-1.198s-1.262,0.704-1.198,1.43
		l0.681,7.736l-5.896,5.89l-0.829-8.976c-0.067-0.726-0.709-1.261-1.435-1.192c-0.726,0.067-1.259,0.71-1.191,1.435l1.029,11.156
		l-6.009,6.003l-1.232-11.669c-0.077-0.725-0.726-1.248-1.45-1.174c-0.725,0.077-1.249,0.727-1.173,1.45l1.456,13.788L37.408,90.837
		c-0.516,0.515-0.516,1.35-0.001,1.864c0.258,0.258,0.595,0.387,0.933,0.387s0.675-0.129,0.933-0.386l17.238-17.221l13.806,1.455
		c0.047,0.005,0.093,0.007,0.139,0.007c0.667,0,1.238-0.503,1.31-1.181c0.077-0.724-0.448-1.373-1.173-1.449l-11.68-1.23
		l6.008-6.001l11.169,1.029c0.041,0.004,0.082,0.006,0.122,0.006c0.674,0,1.249-0.514,1.312-1.198
		c0.066-0.725-0.467-1.367-1.192-1.434l-8.984-0.828l5.894-5.888l7.747,0.679c0.039,0.004,0.078,0.006,0.116,0.006
		c0.677,0,1.252-0.518,1.312-1.203C82.479,57.524,81.942,56.885,81.217,56.821L81.217,56.821z"/>
</g>
</svg>
