<?xml version="1.0" encoding="utf-8"?>
<!-- Generator: Adobe Illustrator 16.0.0, SVG Export Plug-In . SVG Version: 6.00 Build 0)  -->
<!DOCTYPE svg PUBLIC "-//W3C//DTD SVG 1.1//EN" "http://www.w3.org/Graphics/SVG/1.1/DTD/svg11.dtd">
<svg version="1.1" id="Layer_1" xmlns="http://www.w3.org/2000/svg" xmlns:xlink="http://www.w3.org/1999/xlink" x="0px" y="0px"
	 width="100px" height="100px" viewBox="0 0 100 100" enable-background="new 0 0 100 100" xml:space="preserve">
<g>
	<rect x="1.685" y="53.864" fill="#F4EDD0" width="96.631" height="22.889"/>
	<rect x="1.685" y="70.116" fill="#816A50" width="96.631" height="6.554"/>
	<g>
		<rect x="43.408" y="35.929" fill="#F4EDD0" width="13.952" height="8.655"/>
	</g>
	<g>
		<rect x="50.383" y="35.929" fill="#E5DFC4" width="6.977" height="8.655"/>
	</g>
	<rect x="41.307" y="44.584" fill="#F4EDD0" width="18.154" height="9.722"/>
	<rect x="50.383" y="44.584" fill="#E5DFC4" width="9.078" height="9.722"/>
	<path fill="#BE5B39" d="M50.383,22.778c0,0-1.537-0.081-1.511,2.243h3.023C51.922,22.697,50.383,22.778,50.383,22.778z"/>
	<path fill="#9C4A2B" d="M50.383,22.778c0,0,1.539-0.081,1.512,2.243h-1.512"/>
	<g>
		<rect x="48.83" y="24.724" fill="#F4EDD0" width="1.928" height="3.453"/>
		<polyline fill="#D3AF89" points="50.383,24.724 51.938,24.724 51.938,28.177 50.383,28.177 		"/>
	</g>
	<rect x="1.685" y="76.283" fill="#564633" width="96.631" height="0.939"/>
	
		<rect x="2.455" y="53.864" fill="#C03726" stroke="#3D3C45" stroke-width="0.6454" stroke-miterlimit="10" width="36.058" height="2.402"/>
	
		<line fill="none" stroke="#3D3C45" stroke-width="0.6454" stroke-miterlimit="10" x1="38.513" y1="56.932" x2="2.455" y2="56.932"/>
	<path fill="#BE5B39" d="M50.383,27.349c0,0-7.238-0.307-7.122,8.514h14.242C57.623,27.042,50.383,27.349,50.383,27.349z"/>
	<path fill="#9C4A2B" d="M50.383,27.349c0,0,7.24-0.307,7.122,8.514h-7.122"/>
	<path fill="#92785B" d="M46.946,38.091c-0.712,0-1.291,0.576-1.291,1.289v3.044h2.58V39.38
		C48.235,38.667,47.659,38.091,46.946,38.091z"/>
	<path fill="#92785B" d="M53.822,38.091c-0.713,0-1.289,0.576-1.289,1.289v3.044h2.579V39.38
		C55.112,38.667,54.534,38.091,53.822,38.091z"/>
	
		<rect x="36.946" y="55.598" fill="#D3AF89" stroke="#3D3C45" stroke-width="0.6454" stroke-miterlimit="10" width="26.876" height="2.042"/>
	<rect x="1.685" y="53.487" fill="#9C4A2B" width="96.631" height="3.759"/>
	<rect x="1.685" y="57.171" fill="#564633" width="96.631" height="0.938"/>
	<rect x="1.685" y="69.645" fill="#564633" width="96.631" height="0.939"/>
	<rect x="17.771" y="57.249" fill="#564633" width="0.918" height="19.463"/>
	<rect x="1.685" y="57.249" fill="#564633" width="0.918" height="19.463"/>
	<rect x="97.358" y="57.249" fill="#564633" width="0.918" height="19.463"/>
	<rect x="82.079" y="57.249" fill="#564633" width="0.918" height="19.463"/>
	<rect x="38.546" y="55.598" fill="#AF8F6E" width="23.677" height="18.325"/>
	<rect x="50.383" y="55.598" fill="#92785B" width="11.839" height="18.325"/>
	<path fill="#F4EDD0" d="M50.383,68.04c-0.779,0-1.41,0.631-1.41,1.41v4.473h2.818V69.45C51.792,68.671,51.162,68.04,50.383,68.04z"
		/>
	<path fill="#F4EDD0" d="M44.502,68.04c-0.777,0-1.408,0.631-1.408,1.41v4.473h2.818V69.45C45.912,68.671,45.281,68.04,44.502,68.04
		z"/>
	<path fill="#F4EDD0" d="M56.268,68.04c-0.779,0-1.411,0.631-1.411,1.41v4.473h2.817V69.45C57.674,68.671,57.043,68.04,56.268,68.04
		z"/>
	<rect x="41.307" y="44.584" fill="#564633" width="18.154" height="1.296"/>
	<polygon fill="#92785B" points="50.383,50.607 34.484,56.132 34.484,57.152 66.284,57.152 66.284,56.132 	"/>
	<polygon fill="#AF8F6E" points="50.383,50.607 34.484,56.132 34.484,57.152 50.383,57.152 	"/>
	<rect x="39.417" y="58.109" fill="#C2B59B" width="1.416" height="16.109"/>
	<rect x="41.307" y="58.109" fill="#C2B59B" width="1.416" height="16.109"/>
	<rect x="58.417" y="58.109" fill="#C2B59B" width="1.416" height="16.109"/>
	<rect x="60.307" y="58.109" fill="#C2B59B" width="1.416" height="16.109"/>
	<rect x="46.819" y="58.109" fill="#C2B59B" width="1.416" height="16.109"/>
	<rect x="52.533" y="58.109" fill="#C2B59B" width="1.416" height="16.109"/>
	<rect x="35.728" y="73.849" fill="#564633" width="29.312" height="2.904"/>
	<rect x="34.484" y="57.152" fill="#D3AF89" width="31.8" height="1.712"/>
</g>
</svg>
