<?xml version="1.0" encoding="utf-8"?>
<!-- Generator: Adobe Illustrator 16.0.0, SVG Export Plug-In . SVG Version: 6.00 Build 0)  -->
<!DOCTYPE svg PUBLIC "-//W3C//DTD SVG 1.1//EN" "http://www.w3.org/Graphics/SVG/1.1/DTD/svg11.dtd">
<svg version="1.1" id="Layer_1" xmlns="http://www.w3.org/2000/svg" xmlns:xlink="http://www.w3.org/1999/xlink" x="0px" y="0px"
	 width="100px" height="100px" viewBox="0 0 100 100" enable-background="new 0 0 100 100" xml:space="preserve">
<g>
	<polygon fill="#2E94BB" points="10.127,58.408 50.027,59.464 89.861,58.408 89.861,94.885 49.966,93.945 10.127,94.885 	"/>
	<polygon fill="#1C76A3" points="49.86,59.459 10.127,58.408 10.127,94.885 49.86,93.948 	"/>
	<polygon fill="#FCD463" points="70.463,5.579 76.166,94.333 59.336,94.333 57.482,23.014 65.898,7.608 	"/>
	<polygon fill="#FCD463" points="27.491,6.13 24.678,94.885 39.368,94.885 40.472,23.565 32.055,8.16 	"/>
	<path fill="#2BA2DC" d="M34.804,94.885l0.57-35.07c0,0,12.837-3.136,28.669,0l1.855,34.519L34.804,94.885z"/>
	<polygon fill="#FAD79C" points="71.461,94.305 71.033,94.331 76.166,94.331 70.463,5.58 65.898,7.608 66.326,7.583 	"/>
	<polygon fill="#FAD79C" points="27.491,6.151 24.678,94.903 30.096,94.63 31.57,7.965 	"/>
	<path fill="#2791C4" d="M49.86,58.423c-8.651-0.033-14.486,1.392-14.486,1.392l-0.57,35.07l15.056-0.269V58.423z"/>
	<path fill="#1C76A3" d="M49.86,54.466c-3.479,0-6.299,2.533-6.299,4.411h12.6C56.16,56.999,53.34,54.466,49.86,54.466z"/>
	<rect x="42.81" y="85.205" fill="#939598" width="14.101" height="9.411"/>
	<circle fill="#1C76A3" cx="49.861" cy="70.654" r="6.274"/>
	<polygon fill="#EA8E23" points="33.878,38.16 32.902,37.785 32.902,28.345 34.026,28.934 	"/>
	<polygon fill="#EA8E23" points="36.309,39.042 35.337,38.667 35.337,29.228 36.462,29.815 	"/>
	<polygon fill="#EA8E23" points="38.69,39.818 37.716,39.443 37.716,30.003 38.844,30.592 	"/>
	<polygon fill="#EA8E23" points="64.922,37.438 65.898,37.063 65.898,27.623 64.77,28.213 	"/>
	<polygon fill="#EA8E23" points="62.328,38.561 63.305,38.188 63.305,28.746 62.18,29.335 	"/>
	<polygon fill="#EA8E23" points="59.895,39.604 60.869,39.229 60.869,29.789 59.744,30.379 	"/>
	<path fill="#D5D6DC" d="M42.81,85.205l-3.231-3.994c0,0,10.448-3.026,20.9,0l-3.709,3.994C56.77,85.205,52.238,85.205,42.81,85.205
		z"/>
	<path fill="#808285" d="M89.889,94.203c-30.127-1.535-79.286-0.017-79.778-0.005l0.017,1.396l0,0V97h79.734v-1.405l0,0
		L89.889,94.203z"/>
	<rect x="45.757" y="88.127" fill="#647A8A" width="4.179" height="6.424"/>
	<rect x="47.73" y="88.127" fill="#3B566A" width="0.232" height="6.424"/>
	<rect x="45.639" y="88.127" fill="#3B566A" width="0.237" height="6.424"/>
	<rect x="50.052" y="88.127" fill="#647A8A" width="4.178" height="6.424"/>
	<rect x="52.023" y="88.127" fill="#3B566A" width="0.232" height="6.424"/>
	<rect x="54.113" y="88.127" fill="#3B566A" width="0.236" height="6.424"/>
	<rect x="49.82" y="88.127" fill="#3B566A" width="0.232" height="6.424"/>
	<rect x="45.639" y="88.011" fill="#3B566A" width="8.711" height="0.232"/>
	<rect x="45.639" y="94.435" fill="#3B566A" width="8.711" height="0.232"/>
</g>
</svg>
