<?xml version="1.0" encoding="utf-8"?>
<!-- Generator: Adobe Illustrator 16.0.0, SVG Export Plug-In . SVG Version: 6.00 Build 0)  -->
<!DOCTYPE svg PUBLIC "-//W3C//DTD SVG 1.1//EN" "http://www.w3.org/Graphics/SVG/1.1/DTD/svg11.dtd">
<svg version="1.1" id="Layer_1" xmlns="http://www.w3.org/2000/svg" xmlns:xlink="http://www.w3.org/1999/xlink" x="0px" y="0px"
	 width="100px" height="100px" viewBox="0 0 100 100" enable-background="new 0 0 100 100" xml:space="preserve">
<g>
	<path fill="#F15A5B" d="M72.394,41.848l-2.349-6.307l-3.121-8.383c0,0,8.466-3.984,10.982-13.37
		c0.234-0.877,1.451-0.949,1.773-0.101C81.761,19.161,84.646,31.807,72.394,41.848z"/>
	<path fill="#F15A5B" d="M33.217,27.188l-3.147,8.356l-2.394,6.35c-12.251-10.042-9.478-22.802-7.396-28.275
		c0.323-0.849,1.536-0.772,1.773,0.102C24.569,23.105,33.217,27.188,33.217,27.188z"/>
	<path fill="#F3787A" d="M70.045,35.541l-3.121-8.383c0,0,8.466-3.984,10.982-13.37c0.067-0.255,0.22-0.442,0.411-0.56
		C79.38,19.439,78.697,28.149,70.045,35.541z"/>
	<path fill="#F3787A" d="M33.217,27.188l-3.147,8.356c-8.583-7.362-9.341-16.082-8.325-22.31c0.142,0.115,0.253,0.278,0.309,0.485
		C24.569,23.105,33.217,27.188,33.217,27.188z"/>
	<path fill="#C42E2D" d="M72.53,41.779v41.917c0,1.813-1.471,3.283-3.284,3.283h-38.35c-1.815,0-3.286-1.47-3.286-3.283V41.779
		c0-13.576,11.965-24.058,25.43-22.265c5.014,0.663,9.507,2.978,12.911,6.384C70.015,29.963,72.53,35.578,72.53,41.779z"/>
	<path fill="#D63030" d="M72.53,41.779v41.917c0,1.813-1.471,3.283-3.284,3.283h-32.41c-1.815,0-3.285-1.47-3.285-3.283V41.779
		c0-11.396,8.489-20.811,19.489-22.265c5.014,0.663,9.507,2.978,12.911,6.384C70.015,29.963,72.53,35.578,72.53,41.779z"/>
	<path fill="#FCB42D" d="M47.755,43.289c-4.497,3.233-15.748,9.662-14.807-7.787c0.022-0.438,0.053-0.892,0.093-1.359
		c0.056-0.664,0.886-0.928,1.31-0.412c1.817,2.196,5.679,6.262,10.407,7.714c0.85,0.262,1.728,0.438,2.625,0.506
		C48.071,42,48.317,42.887,47.755,43.289z"/>
	<path fill="#FCB42D" d="M52.34,43.289c-0.562-0.402-0.317-1.289,0.371-1.339c0.898-0.067,1.776-0.244,2.626-0.506
		c4.729-1.452,8.59-5.518,10.407-7.714c0.423-0.516,1.253-0.252,1.31,0.412c0.039,0.468,0.07,0.922,0.093,1.359
		C68.088,52.951,56.837,46.522,52.34,43.289z"/>
	<path fill="#FFCB6A" d="M44.758,41.444c-4.67,2.586-11.15,4.239-11.81-5.942c0.022-0.438,0.053-0.892,0.093-1.359
		c0.056-0.664,0.886-0.928,1.31-0.412C36.168,35.927,40.029,39.992,44.758,41.444z"/>
	<path fill="#FFCB6A" d="M67.146,35.502c-0.659,10.182-7.14,8.528-11.81,5.942c4.729-1.452,8.59-5.518,10.407-7.714
		c0.423-0.516,1.253-0.252,1.31,0.412C67.093,34.61,67.124,35.064,67.146,35.502z"/>
	<path fill="#B02728" d="M61.613,53.729v14.962c0,5.284-4.284,9.568-9.567,9.568h-3.997c-5.283,0-9.568-4.284-9.568-9.568V53.729
		c0-0.319,0.26-0.58,0.579-0.58h21.975C61.354,53.149,61.613,53.41,61.613,53.729z"/>
	<g>
		<path fill="#FCB42D" d="M47.074,53.149l-2.507,8.169c-0.114,0.37-0.604,0.37-0.718,0l-2.509-8.169H47.074z"/>
		<path fill="#FCB42D" d="M58.753,53.149l-2.509,8.169c-0.112,0.37-0.603,0.37-0.717,0l-2.507-8.169H58.753z"/>
	</g>
</g>
</svg>
