<?xml version="1.0" encoding="utf-8"?>
<!-- Generator: Adobe Illustrator 16.0.0, SVG Export Plug-In . SVG Version: 6.00 Build 0)  -->
<!DOCTYPE svg PUBLIC "-//W3C//DTD SVG 1.1//EN" "http://www.w3.org/Graphics/SVG/1.1/DTD/svg11.dtd">
<svg version="1.1" id="Layer_1" xmlns="http://www.w3.org/2000/svg" xmlns:xlink="http://www.w3.org/1999/xlink" x="0px" y="0px"
	 width="100px" height="100px" viewBox="0 0 100 100" enable-background="new 0 0 100 100" xml:space="preserve">
<g>
	<path fill="#FAA736" d="M13.825,35.262v26.796h32.156V35.262H13.825z"/>
	<path fill="#F0542D" d="M48.661,35.262L29.903,11.145L11.145,35.262H48.661z"/>
	<path fill="#3FBDAC" d="M20.524,62.059h-4.02v26.797h5.359V62.059H20.524z"/>
	<path fill="#3FBDAC" d="M37.942,62.059v26.797h5.359V62.059H37.942z"/>
	<path fill="#F8981E" d="M21.864,62.059h16.078v26.797H21.864V62.059z"/>
	<path fill="#4899D3" d="M87.516,83.496h-7.896c-0.732,0-1.434-0.301-1.939-0.83L56.15,57.529c-0.506-0.529-1.207-0.83-1.939-0.83
		h-8.23v5.359h5.214c0.734,0,1.436,0.301,1.939,0.83l21.531,25.137c0.506,0.529,1.205,0.83,1.939,0.83h10.91
		c0.74,0,1.34-0.6,1.34-1.34v-2.68C88.855,84.096,88.256,83.496,87.516,83.496z"/>
	<path fill="#FFD421" d="M37.942,62.059h1.34V51.34c0-5.18-4.199-9.378-9.379-9.378s-9.379,4.198-9.379,9.378v10.719H37.942z"/>
	<path fill="#ED8823" d="M13.825,35.262h32.156v2.68H13.825V35.262z"/>
	<path fill="#ED8823" d="M21.864,62.059h16.078v2.68H21.864V62.059z"/>
	<path fill="#03B39C" d="M16.504,62.059h5.359v2.68h-5.359V62.059z"/>
	<path fill="#03B39C" d="M37.942,62.059h5.359v2.68h-5.359V62.059z"/>
	<path fill="#2C80C3" d="M45.981,56.699h2.68v5.359h-2.68V56.699z"/>
	<path fill="#764E2A" d="M43.301,62.059h2.68v26.797h-2.68V62.059z"/>
	<path fill="#764E2A" d="M13.825,62.059h2.68v26.797h-2.68V62.059z"/>
	<g>
		<path fill="#603A17" d="M13.825,62.059h2.68v2.68h-2.68V62.059z"/>
		<path fill="#603A17" d="M43.301,62.059h2.68v2.68h-2.68V62.059z"/>
	</g>
</g>
</svg>
