<?xml version="1.0" encoding="utf-8"?>
<!-- Generator: Adobe Illustrator 16.0.0, SVG Export Plug-In . SVG Version: 6.00 Build 0)  -->
<!DOCTYPE svg PUBLIC "-//W3C//DTD SVG 1.1//EN" "http://www.w3.org/Graphics/SVG/1.1/DTD/svg11.dtd">
<svg version="1.1" id="Layer_1" xmlns="http://www.w3.org/2000/svg" xmlns:xlink="http://www.w3.org/1999/xlink" x="0px" y="0px"
	 width="100px" height="100px" viewBox="0 0 100 100" enable-background="new 0 0 100 100" xml:space="preserve">
<g>
	<path fill="#2F5998" d="M47.082,65.904v15.103H33.258l-6.839-10.205V50.227h4.607v0.594l4.28,1.104l3.942,1.018h2.305v12.963
		H47.082z"/>
	<path fill="#183258" d="M47.082,65.904v15.103H35.307V51.924l3.942,1.018h2.305v12.963H47.082z"/>
	<path fill="#F8991D" d="M27.99,28.259l-0.011-0.02l4.105-2.093c-0.151-0.299-3.863-7.346-13.771-7.149l-2.259,0.045v13.071h4.608
		v-0.971l7.231-3.048C27.948,28.183,27.98,28.241,27.99,28.259z"/>
	<path fill="#D6EEF1" d="M63.326,35.891h12.631v7.577H63.326V35.891z"/>
	<path fill="#F8991D" d="M89.319,39.679c0,4.164-3.389,7.552-7.553,7.552c-4.163,0-7.55-3.388-7.55-7.552
		c0-0.089,0.002-0.176,0.004-0.266c0.141-4.042,3.472-7.285,7.546-7.285c4.076,0,7.409,3.243,7.549,7.285
		C89.318,39.503,89.319,39.59,89.319,39.679z"/>
	<path fill="#09BFF1" d="M69.353,19.908v39.008l-2.314-0.01c-8.77-0.038-18.911-1.201-28.028-3.148
		c-2.848-0.606-5.593-1.288-8.165-2.038c-1.799-0.523-3.482-1.067-5.055-1.633c-3.51-1.261-6.448-2.623-8.772-4.066
		c-4.205-2.613-6.337-5.51-6.337-8.607c0-3.1,2.132-5.995,6.337-8.608c2.324-1.444,5.263-2.807,8.772-4.067
		c1.572-0.564,3.256-1.107,5.055-1.632c2.572-0.749,5.317-1.432,8.165-2.038c9.117-1.947,19.259-3.109,28.028-3.148L69.353,19.908z"
		/>
	<path fill="#D6EEF1" d="M39.01,23.067v32.69c-2.848-0.606-5.593-1.288-8.165-2.038c-1.799-0.523-3.482-1.067-5.055-1.633v-25.35
		c1.572-0.564,3.256-1.107,5.055-1.632C33.417,24.356,36.162,23.674,39.01,23.067z"/>
	<path fill="#B8DFF6" d="M63.326,39.413h12.631v4.055H63.326V39.413z"/>
	<path fill="#2B96D3" d="M69.353,39.413v19.503l-2.314-0.01c-8.77-0.038-18.911-1.201-28.028-3.148
		c-2.848-0.606-5.593-1.288-8.165-2.038c-1.799-0.523-3.482-1.067-5.055-1.633c-3.51-1.261-6.448-2.623-8.772-4.066
		c-4.205-2.613-6.337-5.51-6.337-8.607H69.353z"/>
	<path fill="#B8DFF6" d="M25.79,39.413h13.22v16.345c-2.848-0.606-5.593-1.288-8.165-2.038c-1.799-0.523-3.482-1.067-5.055-1.633
		V39.413z"/>
	<path fill="#E37725" d="M89.319,39.679c0,4.164-3.389,7.552-7.553,7.552c-4.163,0-7.55-3.388-7.55-7.552
		c0-0.089,0.002-0.176,0.004-0.266h15.095C89.318,39.503,89.319,39.59,89.319,39.679z"/>
</g>
</svg>
