<?xml version="1.0" encoding="utf-8"?>
<!-- Generator: Adobe Illustrator 16.0.0, SVG Export Plug-In . SVG Version: 6.00 Build 0)  -->
<!DOCTYPE svg PUBLIC "-//W3C//DTD SVG 1.1//EN" "http://www.w3.org/Graphics/SVG/1.1/DTD/svg11.dtd">
<svg version="1.1" id="Layer_1" xmlns="http://www.w3.org/2000/svg" xmlns:xlink="http://www.w3.org/1999/xlink" x="0px" y="0px"
	 width="100px" height="100px" viewBox="0 0 100 100" enable-background="new 0 0 100 100" xml:space="preserve">
<g>
	<rect x="80.771" y="65" fill="#E1E6E8" width="18.569" height="3.79"/>
	<polygon fill="#AAACB1" points="74.641,63.206 74.985,63.275 76.941,63.275 76.571,63.206 	"/>
	<polygon fill="#AAACB1" points="80.771,63.206 76.571,63.206 76.941,63.275 80.771,63.275 	"/>
	<rect x="80.771" y="63.206" fill="#AAACB1" width="18.569" height="0.069"/>
	<path fill="#AAACB1" d="M67.031,45.24c0,0-2.07-9.549-30.25-10.112C9.947,34.591,3.689,44.926,3.152,45.914v17.657H2.884v4.199
		l61.352,0.457L75.188,65h5.584h18.569v-1.204v-0.521H80.771h-3.83h-1.956l-0.345-0.069l-10.79-2.133l-14.719-2.908
		c0,0,29.602-4.087,40.331-1.362l2.045,0.548l0.077,0.02l7.756,2.076v-2.096v-3.318C73.148,53.683,67.031,45.24,67.031,45.24z"/>
	<polygon fill="#2E94BB" points="64.494,60.987 76.571,63.206 80.771,63.206 80.771,58.813 	"/>
	<polygon fill="#2E94BB" points="64.494,60.987 63.851,61.073 74.641,63.206 76.571,63.206 	"/>
	<polygon fill="#2E94BB" points="80.771,58.813 80.771,63.206 99.341,63.206 99.341,59.446 91.585,57.37 	"/>
	<path fill="#2BA2DC" d="M80.771,58.813v-1.463h10.736l-2.045-0.548c-10.729-2.725-40.331,1.362-40.331,1.362l15.362,2.822
		L80.771,58.813z"/>
	<polygon fill="#2BA2DC" points="49.132,58.165 63.851,61.073 64.494,60.987 	"/>
	<polygon fill="#2BA2DC" points="80.771,58.813 91.585,57.37 91.508,57.351 80.771,57.351 	"/>
	<path fill="#E1E6E8" d="M16.289,37.447C6.55,40.387,3.593,45.111,3.171,45.869V63.01l29.128,1.945V38.403
		C28.753,38.27,22.269,37.857,16.289,37.447z"/>
	<path fill="#616264" d="M2.745,62.568"/>
	<path fill="#C2C4C9" d="M43.23,37.304c0,0,16.975,2.13,23.434,7.274c0,0,4.086,4.248,6.103,4.785
		c2.014,0.536-8.616-1.351-20.339-6.807C40.707,37.099,43.23,37.304,43.23,37.304z"/>
	<path fill="#D5D6DC" d="M9.969,40.025c0,0,13.612-7.091,28.663-4.098c2.288,0.454,6.603,1.933,8.696,3.382
		c2.093,1.449,9.059,4.791,10.427,5.395c1.369,0.603-13.325-4.736-21.256-5.797C28.63,37.853,18.904,37.199,9.969,40.025z"/>
	<path fill="#2BA2DC" d="M49.132,58.165c0,0,29.602-4.087,40.331-1.362l9.878,2.644v3.829H74.985L49.132,58.165z"/>
	<path fill="#E6E7E8" d="M0.659,63.363c0,0,23.326-3.396,31.64-3.084v9.398l-31.64-1.695V63.363z"/>
	<polygon fill="#D1D3D4" points="32.299,60.26 80.771,64.969 80.771,68.79 32.299,69.678 	"/>
	<path fill="#F1F2F2" d="M13.9,47.192c-4.56-1.947-8.961,0.982-10.729,2.415v3.625c0.577-0.279,1.556-0.943,3.233-2.414
		c3.995-3.501,11.427-1.476,11.427-1.476S19.798,49.713,13.9,47.192z"/>
	<path fill="#D5D6DC" d="M9.969,40.025c0,0,13.612-7.091,28.663-4.098c2.288,0.454,6.603,1.933,8.696,3.382
		c2.093,1.449,9.059,4.791,10.427,5.395c1.369,0.603-13.325-4.736-21.256-5.797C28.63,37.853,18.904,37.199,9.969,40.025z"/>
	<path fill="#BCBEC0" d="M32.299,51.585v11.402l48.473,2.237c0,0-9.322-1.558-12.51-2.154c-4.058-0.759-9.902-2.092-15.86-6.854
		C48.184,52.846,40.412,50.795,32.299,51.585z"/>
	<path fill="#6D6E71" d="M32.299,52.907c-4.883-0.003-10.163,0.586-13.472,2.695l2.016,8.193c0,0,5.24-0.606,11.456-0.812V52.907z"
		/>
	<path fill="#414042" d="M32.299,52.907c4.885-0.003,10.167,0.586,13.475,2.695l-2.016,8.193c0,0-5.239-0.606-11.458-0.812V52.907z"
		/>
	<path fill="#E66454" d="M28.608,49.544c-0.268-0.084-0.348-0.131-0.542-0.309c-0.226-0.208-0.335-0.449-0.335-0.756
		c0-0.256,0.066-0.525,0.164-0.674l0.062-0.096l0.157,0.282c0.52,0.904,1.36,1.363,2.165,1.174c0.139-0.034,0.225-0.04,0.213-0.015
		c-0.021,0.069-0.478,0.32-0.71,0.392C29.474,49.635,28.894,49.639,28.608,49.544z"/>
	<path fill="#E66454" d="M29.635,49.012c-0.084-0.025-0.197-0.077-0.247-0.109l-0.096-0.062l0.231-0.128
		c0.64-0.354,1.061-0.856,1.217-1.452c0.067-0.261,0.071-0.438,0.004-0.736c-0.025-0.128-0.034-0.23-0.018-0.23
		c0.043,0,0.254,0.357,0.354,0.595c0.109,0.269,0.149,0.841,0.084,1.152c-0.093,0.431-0.365,0.799-0.708,0.955
		C30.272,49.077,29.872,49.088,29.635,49.012z M27.559,48.818c-0.117-0.16-0.255-0.449-0.321-0.678
		c-0.087-0.303-0.061-0.945,0.051-1.233c0.103-0.267,0.369-0.561,0.605-0.67c0.302-0.144,0.815-0.104,1.101,0.083
		c0.084,0.056,0.083,0.058-0.188,0.212c-0.361,0.208-0.599,0.408-0.822,0.704c-0.342,0.461-0.469,0.974-0.352,1.459
		c0.028,0.124,0.04,0.226,0.028,0.226C27.646,48.92,27.601,48.874,27.559,48.818z"/>
	<path fill="#E66454" d="M30.289,47.272c-0.246-0.467-0.649-0.873-1.075-1.083c-0.388-0.19-0.724-0.23-1.126-0.135
		c-0.115,0.025-0.209,0.037-0.209,0.025c0-0.08,0.465-0.332,0.781-0.424c0.301-0.086,0.944-0.061,1.232,0.052
		c0.267,0.102,0.543,0.354,0.664,0.595c0.152,0.307,0.113,0.856-0.084,1.12l-0.062,0.081L30.289,47.272L30.289,47.272z"/>
	<path fill="#E66454" d="M37.879,46.872c-0.345-0.553-1.052-0.818-1.642-0.618c-0.691,0.236-0.957,1.266-0.592,2.275
		c0.145,0.399,0.491,0.75,0.88,0.893c0.218,0.079,0.675,0.093,0.884,0.03c0.327-0.102,0.632-0.458,0.727-0.844
		c0.021-0.072,0.035-0.325,0.032-0.563C38.168,47.539,38.083,47.2,37.879,46.872z M37.603,48.183
		c-0.047,0.429-0.171,0.646-0.43,0.746c-0.299,0.116-0.651-0.015-0.873-0.321c-0.277-0.39-0.315-1.273-0.065-1.621
		c0.236-0.336,0.757-0.347,1.065-0.013C37.524,47.213,37.653,47.729,37.603,48.183z"/>
	<path fill="#E66454" d="M39.748,49.689c-0.568-0.197-0.935-0.675-1.051-1.364c-0.125-0.749,0.144-1.487,0.628-1.729
		c0.371-0.183,0.889-0.168,1.344,0.037c0.241,0.112,0.244,0.125,0.164,0.417c-0.061,0.205-0.061,0.205-0.344,0.07
		c-0.556-0.269-1.062-0.063-1.203,0.478c-0.06,0.242-0.046,0.646,0.035,0.922c0.081,0.268,0.336,0.569,0.543,0.654
		c0.179,0.068,0.463,0.09,0.602,0.051l0.106-0.035l-0.028-0.687l-0.444-0.037l0.061-0.245l0.065-0.244l0.851,0.071l0.065,1.548
		l-0.153,0.062C40.642,49.803,40.109,49.817,39.748,49.689z"/>
	<path fill="#E66454" d="M47.328,50.33c-0.12-0.04-0.265-0.103-0.324-0.14l-0.104-0.072l0.061-0.245
		c0.053-0.193,0.079-0.238,0.121-0.215c0.339,0.192,0.721,0.279,0.88,0.201c0.237-0.121,0.286-0.339,0.127-0.552
		c-0.049-0.064-0.238-0.215-0.417-0.333c-0.603-0.407-0.768-0.638-0.764-1.088c0.004-0.346,0.114-0.537,0.392-0.67
		c0.155-0.077,0.249-0.092,0.494-0.084c0.172,0.006,0.394,0.04,0.513,0.078l0.21,0.067l0.021,0.278
		c0.015,0.193,0.007,0.283-0.019,0.28c-0.021-0.002-0.127-0.037-0.231-0.083c-0.442-0.178-0.809-0.081-0.796,0.215
		c0.006,0.156,0.122,0.291,0.382,0.455c0.378,0.239,0.66,0.487,0.769,0.68c0.098,0.162,0.112,0.229,0.123,0.444
		c0.008,0.221-0.006,0.283-0.096,0.452c-0.086,0.171-0.14,0.219-0.326,0.312c-0.188,0.095-0.269,0.111-0.512,0.1
		C47.66,50.406,47.454,50.373,47.328,50.33z"/>
	<path fill="#E66454" d="M58.62,51.286c-0.665-0.236-1.056-0.839-1.09-1.676c-0.042-0.902,0.328-1.447,1.038-1.539
		c0.338-0.05,0.942,0.089,1.128,0.256c0.055,0.051,0.056,0.073,0.001,0.292c-0.032,0.128-0.07,0.233-0.093,0.23
		c-0.02-0.001-0.104-0.047-0.187-0.101c-0.104-0.064-0.229-0.106-0.423-0.134c-0.252-0.034-0.295-0.031-0.463,0.055
		c-0.249,0.121-0.382,0.339-0.427,0.708c-0.064,0.566,0.132,1.082,0.509,1.321c0.179,0.115,0.218,0.128,0.473,0.131
		c0.211,0.008,0.313-0.01,0.45-0.073c0.1-0.054,0.188-0.088,0.206-0.088c0.019,0.002,0.061,0.097,0.1,0.211
		c0.035,0.112,0.078,0.225,0.086,0.252c0.026,0.07-0.219,0.184-0.488,0.227C59.164,51.398,58.858,51.372,58.62,51.286L58.62,51.286z
		"/>
	<path fill="#E66454" d="M35.048,48.711c-0.175-0.331-0.361-0.648-0.417-0.704c-0.082-0.083-0.087-0.1-0.037-0.125
		c0.261-0.148,0.393-0.424,0.378-0.802c-0.016-0.428-0.196-0.748-0.537-0.941c-0.166-0.088-0.251-0.108-0.799-0.171l-0.618-0.066
		l0.068,1.621l0.066,1.624l0.518,0.045l-0.049-1.233l0.169,0.012c0.24,0.023,0.325,0.118,0.654,0.748
		c0.15,0.294,0.296,0.541,0.317,0.548c0.026,0.016,0.167,0.031,0.322,0.036l0.284,0.015L35.048,48.711z M34.218,47.411
		c-0.061,0.03-0.194,0.041-0.361,0.028l-0.259-0.022l-0.039-0.964l0.175,0.016c0.438,0.038,0.661,0.221,0.675,0.552
		C34.417,47.224,34.358,47.339,34.218,47.411z"/>
	<path fill="#E66454" d="M41.88,48.27l-0.067-1.618l0.903,0.079c0.701,0.058,0.896,0.084,0.883,0.123
		c-0.004,0.021-0.032,0.136-0.058,0.246l-0.052,0.194L42.389,47.2l0.035,0.848l1.075,0.09l0.019,0.503l-1.072-0.091l0.037,0.887
		l1.245,0.104l0.021,0.501l-1.8-0.153L41.88,48.27z"/>
	<path fill="#E66454" d="M45.952,48.984l-0.108-0.119l0.137-0.108c0.223-0.174,0.301-0.383,0.29-0.729
		c-0.021-0.441-0.188-0.724-0.556-0.939c-0.158-0.09-0.243-0.108-0.792-0.166l-0.615-0.067l0.068,1.623l0.065,1.623l0.555,0.046
		l-0.05-1.232l0.169,0.015c0.225,0.019,0.283,0.084,0.633,0.756l0.292,0.55l0.311,0.026c0.168,0.015,0.304,0.02,0.304,0.007
		C46.652,50.205,46.039,49.087,45.952,48.984z M45.534,48.35c-0.083,0.05-0.168,0.061-0.361,0.045l-0.251-0.021l-0.04-0.962
		l0.166,0.013c0.365,0.036,0.613,0.209,0.667,0.462C45.75,48.059,45.668,48.267,45.534,48.35z"/>
	<path fill="#E66454" d="M51.928,47.797c-0.239-0.24-0.396-0.296-1.047-0.37l-0.583-0.062l0.069,1.623l0.065,1.623l0.518,0.042
		l-0.042-1.11l0.356,0.016c0.401,0.015,0.588-0.043,0.765-0.23c0.167-0.185,0.212-0.321,0.215-0.661
		C52.244,48.285,52.15,48.016,51.928,47.797z M51.419,49.025c-0.065,0.024-0.214,0.034-0.327,0.024l-0.21-0.018l-0.044-1.117
		l0.143,0.013c0.247,0.021,0.444,0.115,0.56,0.265c0.089,0.115,0.109,0.172,0.116,0.344C51.668,48.786,51.582,48.962,51.419,49.025z
		"/>
	<polygon fill="#E66454" points="52.755,49.19 52.688,47.573 53.24,47.62 53.354,50.355 54.393,50.443 54.414,50.944 52.821,50.811 
			"/>
	<path fill="#E66454" d="M56.729,49.479l-0.595-1.618l-0.26-0.011l-0.259-0.01l-0.463,1.516c-0.258,0.838-0.462,1.541-0.466,1.567
		c0.004,0.031,0.078,0.052,0.276,0.069l0.273,0.022l0.116-0.392l0.119-0.393l1.009,0.086l0.151,0.415l0.143,0.415l0.295,0.025
		c0.222,0.02,0.292,0.015,0.276-0.022C57.338,51.12,57.062,50.367,56.729,49.479z M55.61,49.743l0.078-0.253
		c0.044-0.142,0.106-0.352,0.141-0.467c0.036-0.122,0.074-0.217,0.087-0.215c0.017,0,0.054,0.075,0.084,0.17
		c0.029,0.091,0.111,0.312,0.18,0.495l0.116,0.326L55.61,49.743z"/>
	<path fill="#E66454" d="M60.338,49.832l-0.065-1.618l0.9,0.075c0.659,0.057,0.899,0.089,0.9,0.123c0,0.023-0.021,0.133-0.049,0.246
		l-0.048,0.2l-1.131-0.095l0.035,0.848l1.108,0.093l0.021,0.503l-1.107-0.092L60.938,51l1.247,0.104l0.021,0.502l-1.799-0.153
		L60.338,49.832z"/>
</g>
</svg>
