<?xml version="1.0" encoding="utf-8"?>
<!-- Generator: Adobe Illustrator 16.0.0, SVG Export Plug-In . SVG Version: 6.00 Build 0)  -->
<!DOCTYPE svg PUBLIC "-//W3C//DTD SVG 1.1//EN" "http://www.w3.org/Graphics/SVG/1.1/DTD/svg11.dtd">
<svg version="1.1" id="Layer_1" xmlns="http://www.w3.org/2000/svg" xmlns:xlink="http://www.w3.org/1999/xlink" x="0px" y="0px"
	 width="100px" height="100px" viewBox="0 0 100 100" enable-background="new 0 0 100 100" xml:space="preserve">
<g>
	<path fill="#FFCF5E" d="M79.602,30.343v11.102l11.669,1.812c1.803,0.279,3.132,1.832,3.132,3.656v10.719h0.186
		c0.766,0,1.387,0.621,1.387,1.387v6.938c0,0.766-0.621,1.389-1.387,1.389H7.263c-0.766,0-1.388-0.623-1.388-1.389V30.343
		c0-4.087,3.313-7.4,7.401-7.4h58.925C76.288,22.942,79.602,26.256,79.602,30.343z"/>
	<path fill="#F8983F" d="M95.975,65.956v-6.938c0-0.766-0.621-1.387-1.387-1.387h-0.186V46.913c0-1.824-1.329-3.377-3.132-3.656
		l-11.669-1.812V30.343c0-1.999-0.794-3.812-2.083-5.144c-2.032,0.824-3.468,2.815-3.468,5.144v11.102
		c0,2.736,1.995,5.062,4.699,5.484l10.103,1.568v13.297H5.875v4.162c0,0.768,0.622,1.389,1.388,1.389h87.325
		C95.354,67.345,95.975,66.724,95.975,65.956z"/>
	<path fill="#5A6876" d="M5.412,57.632h2.776c0.766,0,1.387,0.621,1.387,1.387v8.326H5.412c-0.766,0-1.387-0.621-1.387-1.389v-6.938
		C4.025,58.253,4.646,57.632,5.412,57.632z"/>
	<path fill="#36414B" d="M94.588,57.632h-2.775c-0.766,0-1.388,0.621-1.388,1.387v8.326h4.163c0.766,0,1.387-0.621,1.387-1.389
		v-6.938C95.975,58.253,95.354,57.632,94.588,57.632z"/>
	<path fill="#5A6876" d="M80.713,77.058c-5.356,0-9.714-4.357-9.714-9.713s4.357-9.713,9.714-9.713c5.354,0,9.712,4.357,9.712,9.713
		S86.067,77.058,80.713,77.058z"/>
	<path fill="#36414B" d="M82.698,57.837c-1.139,2.104-0.82,4.785,0.958,6.564l-5.888,5.887c-1.778-1.777-4.461-2.098-6.564-0.957
		c0.919,4.406,4.832,7.727,9.509,7.727c5.355,0,9.712-4.357,9.712-9.713C90.425,62.669,87.104,58.755,82.698,57.837z"/>
	<path fill="#E9E3D5" d="M84.875,67.345c0,2.299-1.863,4.162-4.162,4.162c-2.3,0-4.164-1.863-4.164-4.162s1.864-4.162,4.164-4.162
		C83.012,63.183,84.875,65.046,84.875,67.345z"/>
	<path fill="#5A6876" d="M24.562,77.058c-5.355,0-9.714-4.357-9.714-9.713s4.358-9.713,9.714-9.713c5.356,0,9.713,4.357,9.713,9.713
		S29.917,77.058,24.562,77.058z"/>
	<path fill="#36414B" d="M26.547,57.837c-1.139,2.104-0.82,4.785,0.959,6.564l-5.888,5.887c-1.777-1.777-4.462-2.098-6.565-0.957
		c0.919,4.406,4.833,7.727,9.509,7.727c5.356,0,9.713-4.357,9.713-9.713C34.274,62.669,30.954,58.755,26.547,57.837z"/>
	<path fill="#E9E3D5" d="M28.725,67.345c0,2.299-1.864,4.162-4.163,4.162s-4.163-1.863-4.163-4.162s1.864-4.162,4.163-4.162
		S28.725,65.046,28.725,67.345z"/>
	<path fill="#9BD9E0" d="M50.648,31.269v36.076h14.8l-7.4-36.076H50.648z"/>
	<path fill="#45C2CC" d="M58.048,31.269v30.525h-7.399v5.551h14.8c0-3.518,0-34.997,0-36.076H58.048z"/>
	<path fill="#F8983F" d="M65.448,29.881h-14.8c-0.767,0-1.388,0.62-1.388,1.388v36.076h2.774V47.456h4.626v19.889h2.774V47.456
		h4.625v19.889h2.775V31.269C66.836,30.501,66.215,29.881,65.448,29.881z M52.035,44.681V32.656h4.626v12.024H52.035z
		 M59.436,44.681V32.656h4.625v12.024H59.436z"/>
	<path fill="#45C2CC" d="M70.999,31.269h8.603v10.176h-8.603V31.269z"/>
	<path fill="#9BD9E0" d="M5.875,31.269v14.801h39.223V31.269C43.873,31.269,8.388,31.269,5.875,31.269z"/>
	<path fill="#45C2CC" d="M39.547,31.269v9.25h-9.251v-9.25h-5.55v9.25h-9.25v-9.25H9.945v9.25h-4.07v5.551h39.223V31.269
		C44.812,31.269,42.683,31.269,39.547,31.269z"/>
	<g>
		<path fill="#FFCF5E" d="M28.909,29.881h2.775v17.575h-2.775V29.881z"/>
		<path fill="#FFCF5E" d="M14.108,29.881h2.775v17.575h-2.775V29.881z"/>
	</g>
</g>
</svg>
