<?xml version="1.0" encoding="utf-8"?>
<!-- Generator: Adobe Illustrator 16.0.0, SVG Export Plug-In . SVG Version: 6.00 Build 0)  -->
<!DOCTYPE svg PUBLIC "-//W3C//DTD SVG 1.1//EN" "http://www.w3.org/Graphics/SVG/1.1/DTD/svg11.dtd">
<svg version="1.1" id="Layer_1" xmlns="http://www.w3.org/2000/svg" xmlns:xlink="http://www.w3.org/1999/xlink" x="0px" y="0px"
	 width="522px" height="188.992px" viewBox="0 0 522 188.992" enable-background="new 0 0 522 188.992" xml:space="preserve">
<g>
	<path fill="#EA8E23" d="M282.262,175.477H262.55v-46.865h19.712v39.164V175.477L282.262,175.477z"/>
	<path fill="#FBAE18" d="M265.665,121.436h-3.115l-2.575,20.583l2.575,32.851l3.115-0.438V121.436z"/>
	<path fill="#FDCC09" d="M237.931,116.283v5.153h-2.938v52.996l16.613,1.973l10.943-1.535v-58.587H237.931z"/>
	<g>
		<path fill="#F3FAF8" d="M244.004,128.653h3.621v5.15h-3.621V128.653z"/>
		<path fill="#F3FAF8" d="M253.016,128.653h3.62v5.15h-3.62V128.653z"/>
		<path fill="#F3FAF8" d="M244.004,138.952h3.621v5.148h-3.621V138.952z"/>
		<path fill="#F3FAF8" d="M253.016,138.952h3.62v5.148h-3.62V138.952z"/>
		<path fill="#F3FAF8" d="M244.004,149.25h3.621v5.148h-3.621V149.25z"/>
		<path fill="#F3FAF8" d="M253.016,149.25h3.62v5.148h-3.62V149.25z"/>
		<path fill="#F3FAF8" d="M244.004,159.547h3.621v5.15h-3.621V159.547z"/>
		<path fill="#F3FAF8" d="M253.016,159.547h3.62v5.15h-3.62V159.547z"/>
	</g>
	<path fill="#FFD27B" d="M270.312,138.952h3.621v5.148h-3.621V138.952z"/>
	<path fill="#FFD27B" d="M270.312,149.25h3.621v5.148h-3.621V149.25z"/>
	<path fill="#8D9CA8" d="M288.296,174.432H262.55l-1.288,2.354l1.288,1.267h25.746V174.432z"/>
	<path fill="#AAB8C7" d="M234.994,174.432h27.556v3.621h-27.556V174.432z"/>
</g>
<g>
	<rect x="421.379" y="116.009" fill="#A9D4F1" width="14.52" height="37.335"/>
	<rect x="435.898" y="93.193" fill="#EF463D" width="26.965" height="60.151"/>
	<rect x="442.121" y="132.602" fill="#BAE4FA" width="14.52" height="20.742"/>
	<rect x="448.861" y="132.602" fill="#5EA6DB" width="1.037" height="20.742"/>
	<rect x="462.863" y="116.009" fill="#A9D4F1" width="14.519" height="37.335"/>
	<g>
		<rect x="467.012" y="120.158" fill="#5EA6DB" width="6.222" height="4.147"/>
		<rect x="467.012" y="128.454" fill="#5EA6DB" width="6.222" height="4.148"/>
		<rect x="467.012" y="136.75" fill="#5EA6DB" width="6.222" height="4.15"/>
		<rect x="467.012" y="145.047" fill="#5EA6DB" width="6.222" height="4.148"/>
	</g>
	<polygon fill="#BAE4FA" points="452.492,97.341 446.27,97.341 446.27,103.564 440.047,103.564 440.047,109.787 446.27,109.787 
		446.27,116.009 452.492,116.009 452.492,109.787 458.715,109.787 458.715,103.564 452.492,103.564 	"/>
	<g>
		<rect x="425.527" y="120.158" fill="#5EA6DB" width="6.223" height="4.147"/>
		<rect x="425.527" y="128.454" fill="#5EA6DB" width="6.223" height="4.148"/>
		<rect x="425.527" y="136.75" fill="#5EA6DB" width="6.223" height="4.15"/>
		<rect x="425.527" y="145.047" fill="#5EA6DB" width="6.223" height="4.148"/>
	</g>
	<g>
		<path fill="#A9D4F1" d="M445.232,153.344h3.629v-2.992C447.698,151.403,446.487,152.399,445.232,153.344z"/>
		<path fill="#A9D4F1" d="M449.898,149.374v3.971h6.742v-11.822C454.659,144.358,452.401,146.986,449.898,149.374z"/>
	</g>
	<path fill="#478ECC" d="M449.381,149.868c-0.174,0.162-0.344,0.326-0.52,0.484v2.992h1.037v-3.971
		C449.726,149.539,449.556,149.706,449.381,149.868z"/>
</g>
<g>
	<path fill="#95A5A4" d="M159.763,101.201l37.744-0.237l0.173,27.46l-37.745,0.236L159.763,101.201z"/>
	<path fill="#D1D4D1" d="M194.096,102.587l6.408-0.041l0.15,23.951l-6.407,0.04L194.096,102.587z"/>
	<path fill="#D1D4D1" d="M163.125,126.308l-6.407,0.04l-0.143-22.688l6.407-0.041L163.125,126.308z"/>
	<g>
		<path fill="#BDC3C7" d="M192.252,100.539l10.068-0.063l0.014,2.289c0.007,1.012-0.808,1.836-1.818,1.842l-6.406,0.041
			c-1.012,0.006-1.836-0.808-1.844-1.818L192.252,100.539z"/>
		<path fill="#BDC3C7" d="M194.236,124.783l6.408-0.04c1.01-0.007,1.835,0.809,1.841,1.818l0.014,2.289l-10.068,0.064l-0.014-2.289
			C192.411,125.615,193.225,124.79,194.236,124.783z"/>
		<path fill="#BDC3C7" d="M162.989,104.842l-6.406,0.041c-1.01,0.006-1.835-0.809-1.842-1.82l-0.014-2.288l10.068-0.063l0.014,2.289
			C164.815,104.012,164,104.835,162.989,104.842z"/>
		<path fill="#BDC3C7" d="M164.973,129.086l-10.068,0.062l-0.014-2.287c-0.005-1.012,0.808-1.836,1.82-1.843l6.406-0.04
			c1.012-0.007,1.836,0.809,1.842,1.818L164.973,129.086z"/>
	</g>
	<path fill="#295781" d="M153.782,96.387l50.341-0.315l0.025,3.935c0.002,0.506-0.405,0.918-0.91,0.922l-48.51,0.305
		c-0.505,0.004-0.918-0.404-0.921-0.909L153.782,96.387z"/>
	<path fill="#295781" d="M154.903,128.692l48.509-0.306c0.506-0.003,0.918,0.405,0.921,0.909l0.03,4.578l-50.341,0.316l-0.03-4.576
		C153.989,129.108,154.396,128.695,154.903,128.692z"/>
	<path fill="#4482C4" d="M204.132,97.26l-51.256,0.322c-0.505,0.005-0.918-0.402-0.921-0.909l-0.03-4.816
		c-0.003-0.4,0.254-0.757,0.635-0.878l25.039-7.943c0.529-0.168,1.097-0.171,1.629-0.01l25.138,7.626
		c0.382,0.119,0.644,0.471,0.645,0.871l0.031,4.817C205.044,96.844,204.637,97.258,204.132,97.26z"/>
	<path fill="#295781" d="M155.598,93.904v-0.048l22.564-7.161c0.175-0.055,0.365-0.057,0.542-0.003l22.659,6.875v0.048
		L155.598,93.904z"/>
	<path fill="#82CA9C" d="M188.682,114.75c0.034,5.562-4.444,10.097-10.005,10.131c-5.56,0.035-10.096-4.444-10.132-10.005
		c-0.035-5.561,4.444-10.096,10.005-10.131C184.11,104.709,188.646,109.188,188.682,114.75z"/>
	<path fill="#25AE5F" d="M178.619,115.727c-2.022,0.014-3.672-1.615-3.685-3.637c-0.013-2.022,1.616-3.672,3.638-3.686
		c2.022-0.012,3.671,1.617,3.685,3.639c0.002,0.506-0.403,0.919-0.909,0.922c-0.506,0.003-0.918-0.404-0.922-0.911
		c-0.006-1.011-0.831-1.825-1.842-1.817c-1.01,0.006-1.825,0.83-1.818,1.84c0.005,1.014,0.831,1.826,1.842,1.821
		c0.505-0.005,0.917,0.403,0.921,0.909C179.532,115.313,179.124,115.725,178.619,115.727z"/>
	<path fill="#25AE5F" d="M178.653,121.22c-2.022,0.013-3.67-1.616-3.683-3.638c-0.004-0.507,0.403-0.918,0.908-0.922
		c0.505-0.004,0.918,0.404,0.921,0.91c0.007,1.01,0.832,1.824,1.842,1.818c1.012-0.008,1.825-0.83,1.819-1.842
		c-0.007-1.012-0.832-1.826-1.842-1.82c-0.505,0.004-0.918-0.402-0.921-0.908c-0.002-0.506,0.403-0.918,0.91-0.921
		c2.022-0.015,3.67,1.616,3.683,3.638S180.675,121.208,178.653,121.22z"/>
	<path fill="#25AE5F" d="M178.659,122.135c-0.505,0.003-0.917-0.404-0.921-0.91l-0.081-12.814c-0.003-0.505,0.405-0.918,0.91-0.921
		c0.507-0.003,0.918,0.405,0.921,0.909l0.081,12.815C179.571,121.719,179.165,122.133,178.659,122.135z"/>
	<path fill="#4482C4" d="M153.095,132.366l51.256-0.323c0.505-0.003,0.917,0.403,0.92,0.909l0.013,1.83
		c0.002,0.506-0.405,0.918-0.91,0.922l-51.256,0.323c-0.505,0.003-0.918-0.405-0.921-0.91l-0.011-1.831
		C152.182,132.78,152.59,132.368,153.095,132.366z"/>
</g>
<g>
	<path fill="#FFCF5E" d="M101.418,44.438v8.042l8.454,1.313c1.306,0.203,2.268,1.329,2.268,2.649v7.765h0.134
		c0.555,0,1.004,0.45,1.004,1.006v5.025c0,0.555-0.45,1.005-1.004,1.005H49.016c-0.555,0-1.006-0.45-1.006-1.005v-25.8
		c0-2.96,2.401-5.361,5.362-5.361h42.685C99.019,39.078,101.418,41.479,101.418,44.438z"/>
	<path fill="#F8983F" d="M113.279,70.239v-5.025c0-0.556-0.45-1.004-1.004-1.004h-0.134v-7.767c0-1.32-0.962-2.446-2.268-2.649
		l-8.454-1.313v-8.042c0-1.447-0.574-2.762-1.508-3.725c-1.473,0.597-2.513,2.039-2.513,3.725v8.042
		c0,1.982,1.446,3.669,3.404,3.973l7.319,1.136v9.634H48.01v3.015c0,0.556,0.452,1.005,1.006,1.005h63.258
		C112.829,71.244,113.279,70.795,113.279,70.239z"/>
	<path fill="#5A6876" d="M47.675,64.209h2.012c0.555,0,1.004,0.448,1.004,1.004v6.03h-3.016c-0.555,0-1.005-0.449-1.005-1.005
		v-5.025C46.67,64.657,47.12,64.209,47.675,64.209z"/>
	<path fill="#36414B" d="M112.274,64.209h-2.01c-0.555,0-1.005,0.448-1.005,1.004v6.03h3.015c0.555,0,1.004-0.449,1.004-1.005
		v-5.025C113.279,64.657,112.829,64.209,112.274,64.209z"/>
	<path fill="#5A6876" d="M102.223,78.28c-3.879,0-7.036-3.155-7.036-7.036c0-3.88,3.157-7.035,7.036-7.035
		c3.88,0,7.036,3.155,7.036,7.035C109.259,75.125,106.103,78.28,102.223,78.28z"/>
	<path fill="#36414B" d="M103.662,64.356c-0.825,1.524-0.594,3.468,0.693,4.755l-4.264,4.264c-1.289-1.287-3.232-1.518-4.755-0.693
		c0.665,3.192,3.5,5.597,6.887,5.597c3.88,0,7.036-3.155,7.036-7.036C109.259,67.858,106.854,65.022,103.662,64.356z"/>
	<path fill="#E9E3D5" d="M105.238,71.244c0,1.665-1.35,3.017-3.015,3.017c-1.665,0-3.016-1.352-3.016-3.017
		c0-1.666,1.351-3.015,3.016-3.015C103.889,68.229,105.238,69.578,105.238,71.244z"/>
	<path fill="#5A6876" d="M61.547,78.28c-3.879,0-7.038-3.155-7.038-7.036c0-3.88,3.158-7.035,7.038-7.035s7.036,3.155,7.036,7.035
		C68.583,75.125,65.427,78.28,61.547,78.28z"/>
	<path fill="#36414B" d="M62.985,64.356c-0.825,1.524-0.594,3.468,0.695,4.755l-4.265,4.264c-1.288-1.287-3.233-1.518-4.757-0.693
		c0.667,3.192,3.502,5.597,6.889,5.597c3.879,0,7.036-3.155,7.036-7.036C68.583,67.858,66.178,65.022,62.985,64.356z"/>
	<path fill="#E9E3D5" d="M64.562,71.244c0,1.665-1.35,3.017-3.015,3.017s-3.017-1.352-3.017-3.017c0-1.666,1.351-3.015,3.017-3.015
		S64.562,69.578,64.562,71.244z"/>
	<path fill="#9BD9E0" d="M80.444,45.109v26.134h10.722l-5.361-26.134H80.444z"/>
	<path fill="#45C2CC" d="M85.805,45.109v22.115h-5.361v4.02h10.722c0-2.548,0-25.352,0-26.134H85.805z"/>
	<path fill="#F8983F" d="M91.166,44.104H80.444c-0.555,0-1.004,0.449-1.004,1.005v26.134h2.009V56.837h3.352v14.407h2.009V56.837
		h3.351v14.407h2.011V45.109C92.171,44.553,91.721,44.104,91.166,44.104z M81.449,54.827v-8.711h3.352v8.711H81.449z M86.81,54.827
		v-8.711h3.351v8.711H86.81z"/>
	<path fill="#45C2CC" d="M95.187,45.109h6.231v7.371h-6.231V45.109z"/>
	<path fill="#9BD9E0" d="M48.01,45.109v10.722h28.414V45.109C75.536,45.109,49.831,45.109,48.01,45.109z"/>
	<path fill="#45C2CC" d="M72.402,45.109v6.701h-6.701v-6.701H61.68v6.701h-6.701v-6.701h-4.021v6.701H48.01v4.021h28.414V45.109
		C76.217,45.109,74.674,45.109,72.402,45.109z"/>
	<g>
		<path fill="#FFCF5E" d="M64.697,44.104h2.011v12.732h-2.011V44.104z"/>
		<path fill="#FFCF5E" d="M53.975,44.104h2.01v12.732h-2.01V44.104z"/>
	</g>
</g>
<g>
	<path fill="#FAA736" d="M59.599,121.328v19.41h23.294v-19.41H59.599z"/>
	<path fill="#F0542D" d="M84.834,121.328l-13.588-17.471l-13.588,17.471H84.834z"/>
	<path fill="#3FBDAC" d="M64.452,140.738h-2.912v19.412h3.882v-19.412H64.452z"/>
	<path fill="#3FBDAC" d="M77.07,140.738v19.412h3.882v-19.412H77.07z"/>
	<path fill="#F8981E" d="M65.423,140.738H77.07v19.412H65.423V140.738z"/>
	<path fill="#4899D3" d="M112.982,156.268h-5.72c-0.531,0-1.039-0.217-1.405-0.602l-15.596-18.208
		c-0.367-0.386-0.875-0.603-1.405-0.603h-5.962v3.882h3.778c0.532,0,1.04,0.218,1.405,0.603l15.598,18.208
		c0.366,0.384,0.873,0.602,1.405,0.602h7.903c0.536,0,0.971-0.435,0.971-0.971v-1.94
		C113.953,156.702,113.518,156.268,112.982,156.268z"/>
	<path fill="#FFD421" d="M77.07,140.738h0.971v-7.765c0-3.752-3.042-6.793-6.794-6.793c-3.752,0-6.794,3.041-6.794,6.793v7.765
		H77.07z"/>
	<path fill="#ED8823" d="M59.599,121.328h23.294v1.94H59.599V121.328z"/>
	<path fill="#ED8823" d="M65.423,140.738H77.07v1.941H65.423V140.738z"/>
	<path fill="#03B39C" d="M61.541,140.738h3.882v1.941h-3.882V140.738z"/>
	<path fill="#03B39C" d="M77.07,140.738h3.882v1.941H77.07V140.738z"/>
	<path fill="#2C80C3" d="M82.894,136.856h1.941v3.882h-1.941V136.856z"/>
	<path fill="#764E2A" d="M80.952,140.738h1.941v19.412h-1.941V140.738z"/>
	<path fill="#764E2A" d="M59.599,140.738h1.941v19.412h-1.941V140.738z"/>
	<g>
		<path fill="#603A17" d="M59.599,140.738h1.941v1.941h-1.941V140.738z"/>
		<path fill="#603A17" d="M80.952,140.738h1.941v1.941h-1.941V140.738z"/>
	</g>
</g>
<g>
	<path fill="#FCDA4F" d="M421.363,56.13l0.087-0.017c2.178-0.43,3.593-2.545,3.163-4.721l-2.282-11.523l-4.029,0.798L421.363,56.13z
		"/>
	<path fill="#CCC033" d="M423.044,16.865c-4.615-0.096-8.473,5.376-8.616,12.224c-0.144,6.85,3.48,12.479,8.096,12.577
		c4.614,0.098,8.471-5.376,8.615-12.224C431.281,22.592,427.657,16.962,423.044,16.865z"/>
	<path fill="#97AF3B" d="M427.158,26.138c-0.748-3.786-2.427-7.028-4.559-9.263c-4.515,0.257-8.155,5.81-8.175,12.547
		c-0.02,6.593,3.431,11.919,7.807,12.231C426.36,39.435,428.524,33.028,427.158,26.138z"/>
	<path fill="#FCDA4F" d="M421.363,56.13l-0.089,0.019c-2.176,0.43-4.29-0.985-4.722-3.161l-2.28-11.524l4.029-0.796L421.363,56.13z"
		/>
	<path fill="#97AF3B" d="M417.507,28.482c-2.742-6.276-8.395-9.867-12.624-8.021c-4.229,1.848-5.435,8.436-2.692,14.713
		c2.743,6.278,8.396,9.867,12.625,8.02C419.044,41.346,420.248,34.759,417.507,28.482z"/>
	<path fill="#EBCF31" d="M425.584,26.451c-1.562-7.892-7.161-13.433-12.505-12.376c-5.342,1.059-8.407,8.314-6.846,16.206
		c1.562,7.894,7.161,13.434,12.506,12.376C424.081,41.6,427.146,34.344,425.584,26.451z"/>
	<path fill="#CCC033" d="M411.49,29.239c-1.296-6.546,0.591-12.654,4.322-15.15c-0.903-0.182-1.822-0.195-2.733-0.014
		c-5.342,1.059-8.407,8.314-6.846,16.206c1.562,7.892,7.161,13.433,12.504,12.376c0.911-0.181,1.756-0.542,2.522-1.056
		C416.86,40.715,412.786,35.786,411.49,29.239z"/>
	<path fill="#FEEDA4" d="M415.261,29.505c-2.02,0-3.645-1.083-3.724-1.136c-0.34-0.229-0.429-0.69-0.2-1.028
		c0.229-0.34,0.689-0.429,1.029-0.2c0.025,0.017,1.816,1.191,3.68,0.802c1.055-0.221,1.96-0.911,2.693-2.054
		c0.219-0.345,0.678-0.446,1.023-0.225c0.344,0.221,0.444,0.679,0.224,1.024c-0.959,1.496-2.187,2.408-3.651,2.709
		C415.97,29.473,415.608,29.505,415.261,29.505z"/>
	<path fill="#FEEDA4" d="M416.478,36.149c-3.043,0-5.603-2.136-5.725-2.238c-0.312-0.264-0.351-0.733-0.086-1.044
		c0.264-0.313,0.73-0.351,1.043-0.088c0.027,0.024,2.869,2.383,5.716,1.792c1.62-0.335,2.979-1.584,4.04-3.714
		c0.184-0.366,0.629-0.515,0.995-0.334c0.365,0.184,0.515,0.628,0.333,0.995c-1.276,2.559-2.984,4.076-5.077,4.506
		C417.298,36.111,416.882,36.149,416.478,36.149z"/>
	<path fill="#FFF9DD" d="M416.079,23.898c-0.112-0.487-0.629-0.791-1.166-0.685c-0.535,0.106-0.897,0.582-0.816,1.075l4.925,30.331
		c0.015,0.081,0.038,0.154,0.071,0.225c0.284,0.918,1.258,1.487,2.265,1.288c0.007-0.001,0.015-0.003,0.021-0.006
		c0.008,0,0.017-0.001,0.025-0.003c0.996-0.196,1.666-1.093,1.568-2.047c0.003-0.075-0.002-0.152-0.02-0.23L416.079,23.898z"/>
	<path fill="#FFF4C1" d="M420.284,54.608c-0.035-0.071-0.059-0.145-0.071-0.224l-4.927-30.332c-0.047-0.288,0.059-0.569,0.26-0.774
		c-0.19-0.082-0.41-0.109-0.633-0.065c-0.535,0.106-0.897,0.582-0.816,1.074l4.925,30.332c0.015,0.08,0.038,0.154,0.071,0.225
		c0.284,0.918,1.258,1.487,2.265,1.288c0.007-0.001,0.015-0.003,0.021-0.006c0.008-0.001,0.017-0.001,0.025-0.003
		c0.197-0.04,0.383-0.107,0.551-0.196C421.179,55.853,420.51,55.344,420.284,54.608z"/>
	<path fill="#F2634F" d="M436.445,51.873c-1.179-0.652-1.729-2.036-1.308-3.28l6.254-18.423c1.223-3.604,5.472-5.173,8.886-3.284
		c3.414,1.89,4.338,6.324,1.934,9.274l-12.292,15.078C439.09,52.258,437.624,52.525,436.445,51.873z"/>
	<path fill="#EBCF31" d="M455.215,22.22L455.215,22.22c0.189-0.187,0.357-0.402,0.493-0.646c0.761-1.377,0.233-3.125-1.179-3.908
		c-1.412-0.783-3.175-0.3-3.938,1.077c-0.135,0.245-0.229,0.501-0.285,0.76h-0.001l-0.001,0.008
		c-0.016,0.074-0.028,0.147-0.037,0.222l-0.873,5.112c-0.072,0.42,0.137,0.846,0.52,1.057c0.376,0.208,0.84,0.164,1.157-0.11
		l3.888-3.352c0.086-0.066,0.169-0.137,0.248-0.213L455.215,22.22z"/>
	<g>
		<path fill="#F04F3A" d="M441.463,44.868c-0.1,0-0.198-0.02-0.296-0.062l-3.144-1.367c-0.377-0.163-0.549-0.6-0.385-0.976
			c0.162-0.375,0.6-0.546,0.975-0.383l3.146,1.366c0.375,0.163,0.547,0.6,0.385,0.975C442.021,44.7,441.748,44.868,441.463,44.868z"
			/>
		<path fill="#F04F3A" d="M446.148,42.458c-0.098,0-0.197-0.02-0.295-0.062l-4.09-1.775c-0.375-0.163-0.547-0.6-0.385-0.975
			c0.163-0.375,0.599-0.548,0.976-0.385l4.09,1.777c0.375,0.163,0.548,0.598,0.385,0.975
			C446.708,42.292,446.435,42.458,446.148,42.458z"/>
		<path fill="#F04F3A" d="M444.533,37.136c-0.098,0-0.198-0.02-0.295-0.061l-3.145-1.368c-0.375-0.163-0.548-0.598-0.384-0.975
			c0.163-0.374,0.6-0.547,0.974-0.383l3.146,1.367c0.376,0.163,0.547,0.6,0.385,0.975C445.092,36.969,444.82,37.136,444.533,37.136z
			"/>
		<path fill="#F04F3A" d="M450.716,35.478c-0.098,0-0.198-0.02-0.294-0.061l-5.642-2.45c-0.375-0.163-0.547-0.6-0.385-0.975
			c0.163-0.375,0.599-0.547,0.976-0.385l5.642,2.451c0.375,0.163,0.548,0.6,0.384,0.975
			C451.274,35.312,451.003,35.478,450.716,35.478z"/>
	</g>
	<path fill="#CCC033" d="M450.737,25.981c0.001-0.017,0.003-0.035,0.006-0.055l0.873-5.11c0.01-0.075,0.021-0.149,0.036-0.222
		l0.003-0.009l0,0c0.057-0.26,0.15-0.516,0.286-0.761c0.703-1.271,2.26-1.777,3.604-1.232c-0.251-0.371-0.594-0.692-1.017-0.925
		c-1.412-0.783-3.175-0.3-3.938,1.077c-0.135,0.245-0.229,0.501-0.285,0.761l-0.001-0.001l-0.001,0.008
		c-0.016,0.074-0.028,0.148-0.039,0.222l-0.871,5.112c-0.072,0.42,0.137,0.846,0.52,1.057
		C450.173,26.044,450.471,26.069,450.737,25.981z"/>
	<path fill="#FCE575" d="M450.33,25.076l-0.878-4.133c-0.013-0.088-0.031-0.176-0.055-0.262l-0.002-0.009h-0.001
		c-0.059-0.211-0.146-0.419-0.269-0.617c-0.687-1.115-2.148-1.489-3.265-0.835c-1.114,0.655-1.461,2.088-0.773,3.203
		c0.121,0.198,0.269,0.371,0.433,0.521l0,0l0.006,0.004c0.045,0.042,0.093,0.082,0.143,0.121l3.323,2.774
		c0.273,0.228,0.66,0.263,0.963,0.086C450.252,25.756,450.402,25.414,450.33,25.076z"/>
	<path fill="#EBCF31" d="M447.336,22.304c-0.05-0.038-0.098-0.078-0.145-0.12l-0.006-0.004h0.002
		c-0.164-0.15-0.312-0.324-0.435-0.522c-0.558-0.904-0.435-2.019,0.228-2.756c-0.385,0.012-0.768,0.115-1.119,0.32
		c-1.114,0.654-1.461,2.088-0.773,3.203c0.121,0.198,0.269,0.371,0.433,0.521l0,0l0.006,0.004c0.045,0.042,0.093,0.082,0.143,0.121
		l3.323,2.774c0.273,0.228,0.66,0.263,0.963,0.086c0.297-0.174,0.447-0.517,0.375-0.854l-0.071-0.33L447.336,22.304z"/>
	<path fill="#FCE575" d="M457.91,25.891c-0.038-1.292-1.13-2.332-2.44-2.323c-0.231,0.001-0.455,0.037-0.666,0.099l0,0l-0.007,0.002
		c-0.087,0.026-0.172,0.057-0.254,0.092l-3.966,1.45c-0.325,0.119-0.536,0.429-0.526,0.772c0.012,0.351,0.246,0.659,0.585,0.77
		l4.115,1.343c0.057,0.021,0.116,0.041,0.177,0.058l0.008,0.003v-0.001c0.213,0.061,0.439,0.093,0.672,0.09
		C456.917,28.239,457.947,27.184,457.91,25.891z"/>
	<path fill="#EBCF31" d="M457.273,27.481c-0.233,0.001-0.458-0.031-0.672-0.091l0,0l-0.007-0.001
		c-0.061-0.017-0.12-0.037-0.179-0.058l-4.114-1.342c-0.339-0.111-0.573-0.42-0.584-0.77c-0.006-0.174,0.047-0.338,0.14-0.475
		l-1.28,0.47c-0.325,0.119-0.536,0.427-0.526,0.772c0.012,0.349,0.246,0.658,0.585,0.768l4.115,1.343
		c0.057,0.021,0.116,0.042,0.177,0.058l0.008,0.003l0,0c0.213,0.059,0.439,0.092,0.672,0.09c0.69-0.006,1.303-0.301,1.722-0.768
		C457.311,27.479,457.292,27.481,457.273,27.481z"/>
	<path fill="#F04F3A" d="M438.405,49.43l6.254-18.423c0.854-2.517,3.184-4.041,5.673-4.089c-0.018-0.01-0.036-0.021-0.055-0.031
		c-3.414-1.889-7.663-0.32-8.886,3.284l-6.254,18.423c-0.422,1.244,0.129,2.627,1.308,3.28c0.777,0.429,1.676,0.46,2.437,0.14
		C438.304,51.298,438.1,50.327,438.405,49.43z"/>
	<path fill="#BE6E29" d="M430.022,33.542c-0.369,0-0.676-0.298-0.697-0.683l-0.311-5.261c-0.023-0.419,0.296-0.772,0.699-0.772
		h0.618c0.403,0,0.724,0.354,0.698,0.772l-0.309,5.261C430.698,33.244,430.393,33.542,430.022,33.542z"/>
	<path fill="#EBCF31" d="M430.792,31.091c4.223,2.339,5.377-2.53,5.636-4.123c0.043-0.269-0.138-0.522-0.397-0.559
		c-1.574-0.218-6.574-0.556-5.592,4.196C430.481,30.814,430.61,30.991,430.792,31.091z"/>
	<path fill="#8C4E21" d="M429.979,32.859l-0.31-5.261c-0.024-0.413,0.285-0.761,0.68-0.771c-0.006-0.001-0.011-0.001-0.017-0.001
		h-0.618c-0.403,0-0.723,0.354-0.699,0.772l0.311,5.261c0.023,0.385,0.328,0.683,0.697,0.683c0.119,0,0.229-0.03,0.326-0.083
		C430.142,33.344,429.992,33.121,429.979,32.859z"/>
	<path fill="#F2634F" d="M436.259,31.316c-2.2-0.473-4.424,0.216-6.252,1.715c-1.828-1.499-4.054-2.188-6.252-1.715
		c-4.438,0.955-7.088,6.281-5.92,11.895c1.168,5.615,5.713,9.393,10.15,8.439c0.724-0.157,1.4-0.429,2.02-0.801
		c0.621,0.372,1.298,0.644,2.021,0.801c4.438,0.954,8.982-2.824,10.151-8.439C443.346,37.597,440.696,32.271,436.259,31.316z"/>
	<path fill="#CCC033" d="M431.71,31.242c-0.839-4.062,2.691-4.405,4.719-4.283c0.038-0.265-0.142-0.514-0.398-0.549
		c-1.574-0.219-6.574-0.556-5.592,4.196c0.043,0.207,0.174,0.385,0.354,0.485c0.381,0.211,0.736,0.362,1.068,0.464
		C431.788,31.466,431.734,31.359,431.71,31.242z"/>
	<path fill="#F04F3A" d="M421.65,43.211c-1.124-5.396,1.282-10.527,5.412-11.764c-1.073-0.311-2.193-0.371-3.308-0.131
		c-4.438,0.955-7.088,6.281-5.92,11.895c1.168,5.615,5.713,9.393,10.15,8.439c0.172-0.038,0.34-0.082,0.508-0.132
		C425.294,50.591,422.526,47.416,421.65,43.211z"/>
	<path fill="#DB9D2D" d="M405.292,64.3V36.062c0-0.662,0.536-1.197,1.197-1.197h5.656c0.66,0,1.195,0.535,1.195,1.197V64.3
		c0,0.661-0.535,1.195-1.195,1.195h-5.656C405.828,65.495,405.292,64.96,405.292,64.3z"/>
	<path fill="#DB9D2D" d="M445.413,64.3V36.062c0-0.662,0.535-1.197,1.195-1.197h5.657c0.66,0,1.195,0.535,1.195,1.197V64.3
		c0,0.661-0.535,1.195-1.195,1.195h-5.657C445.948,65.495,445.413,64.96,445.413,64.3z"/>
	<path fill="#FEC44E" d="M455.932,45.597h-53.108c-0.684,0-1.236-0.552-1.236-1.234v-5.559c0-0.682,0.553-1.235,1.236-1.235h53.108
		c0.682,0,1.234,0.553,1.234,1.235v5.559C457.166,45.045,456.613,45.597,455.932,45.597z"/>
	<path fill="#FEC44E" d="M455.932,55.601h-53.108c-0.684,0-1.236-0.553-1.236-1.235v-5.557c0-0.682,0.553-1.235,1.236-1.235h53.108
		c0.682,0,1.234,0.553,1.234,1.235v5.557C457.166,55.048,456.613,55.601,455.932,55.601z"/>
	<path fill="#FEC44E" d="M455.932,65.605h-53.108c-0.684,0-1.236-0.552-1.236-1.235v-5.558c0-0.682,0.553-1.235,1.236-1.235h53.108
		c0.682,0,1.234,0.553,1.234,1.235v5.558C457.166,65.054,456.613,65.605,455.932,65.605z"/>
	<path fill="#FFD551" d="M454.943,64.125c-0.408,0-0.741-0.333-0.741-0.742V59.8c0-0.409,0.333-0.741,0.741-0.741
		c0.409,0,0.741,0.333,0.741,0.741v3.583C455.685,63.792,455.353,64.125,454.943,64.125z"/>
	<path fill="#FFDF75" d="M450.621,61.282c0,0.684-0.553,1.237-1.235,1.237c-0.682,0-1.235-0.553-1.235-1.237
		c0-0.681,0.554-1.233,1.235-1.233C450.068,60.048,450.621,60.601,450.621,61.282z"/>
	<path fill="#FFDF75" d="M450.621,51.279c0,0.682-0.553,1.235-1.235,1.235c-0.682,0-1.235-0.553-1.235-1.235
		s0.554-1.235,1.235-1.235C450.068,50.043,450.621,50.597,450.621,51.279z"/>
	<path fill="#FFDF75" d="M450.621,41.274c0,0.682-0.553,1.235-1.235,1.235c-0.682,0-1.235-0.553-1.235-1.235
		c0-0.682,0.554-1.235,1.235-1.235C450.068,40.039,450.621,40.592,450.621,41.274z"/>
	<path fill="#F8BB30" d="M408.997,54.366v-5.557c0-0.682,0.553-1.235,1.235-1.235h-7.409c-0.684,0-1.236,0.553-1.236,1.235v5.557
		c0,0.682,0.553,1.235,1.236,1.235h7.409C409.55,55.601,408.997,55.048,408.997,54.366z"/>
	<path fill="#F8BB30" d="M408.997,64.371v-5.558c0-0.682,0.553-1.235,1.235-1.235h-7.409c-0.684,0-1.236,0.553-1.236,1.235v5.558
		c0,0.683,0.553,1.235,1.236,1.235h7.409C409.55,65.605,408.997,65.054,408.997,64.371z"/>
	<path fill="#F8BB30" d="M408.997,44.363v-5.559c0-0.682,0.553-1.235,1.235-1.235h-7.409c-0.684,0-1.236,0.553-1.236,1.235v5.559
		c0,0.682,0.553,1.234,1.236,1.234h7.409C409.55,45.597,408.997,45.045,408.997,44.363z"/>
	<path fill="#FFDF75" d="M410.603,41.274c0,0.682-0.551,1.235-1.234,1.235c-0.682,0-1.235-0.553-1.235-1.235
		c0-0.682,0.554-1.235,1.235-1.235C410.052,40.039,410.603,40.592,410.603,41.274z"/>
	<path fill="#FFDF75" d="M410.603,51.279c0,0.682-0.551,1.235-1.234,1.235c-0.682,0-1.235-0.553-1.235-1.235
		s0.554-1.235,1.235-1.235C410.052,50.043,410.603,50.597,410.603,51.279z"/>
	<path fill="#FFDF75" d="M410.603,61.282c0,0.684-0.551,1.237-1.234,1.237c-0.682,0-1.235-0.553-1.235-1.237
		c0-0.681,0.554-1.233,1.235-1.233C410.052,60.048,410.603,60.601,410.603,61.282z"/>
	<path fill="#FFD551" d="M408.997,52.458V50.1c-0.5,0.157-0.864,0.625-0.864,1.179S408.497,52.299,408.997,52.458z"/>
	<path fill="#FFD551" d="M408.997,62.46v-2.356c-0.5,0.157-0.864,0.625-0.864,1.177C408.133,61.836,408.497,62.303,408.997,62.46z"
		/>
	<path fill="#FFD551" d="M408.997,42.453v-2.357c-0.5,0.157-0.864,0.625-0.864,1.179S408.497,42.296,408.997,42.453z"/>
	<path fill="#F8BB30" d="M419.12,41.274c0,1.194-0.967,2.162-2.16,2.162s-2.162-0.968-2.162-2.162c0-1.194,0.969-2.162,2.162-2.162
		S419.12,40.08,419.12,41.274z"/>
	<path fill="#F8BB30" d="M426.532,51.279c0,1.193-0.969,2.162-2.161,2.162c-1.194,0-2.161-0.969-2.161-2.162
		c0-1.194,0.967-2.162,2.161-2.162C425.563,49.117,426.532,50.084,426.532,51.279z"/>
	<path fill="#FFD551" d="M454.943,54.12c-0.408,0-0.741-0.333-0.741-0.741v-3.583c0-0.409,0.333-0.741,0.741-0.741
		c0.409,0,0.741,0.333,0.741,0.741v3.583C455.685,53.787,455.353,54.12,454.943,54.12z"/>
	<path fill="#FFD551" d="M454.943,43.743c-0.408,0-0.741-0.331-0.741-0.74v-3.583c0-0.409,0.333-0.742,0.741-0.742
		c0.409,0,0.741,0.333,0.741,0.742v3.583C455.685,43.412,455.353,43.743,454.943,43.743z"/>
</g>
<g>
	<path fill="#394A4A" d="M358.522,134.069h-7.644c-1.071,0-1.911,0.842-1.911,1.912v7.771c0,1.07,0.84,1.912,1.911,1.912h7.644
		c1.07,0,1.912-0.842,1.912-1.912v-7.771C360.435,134.911,359.593,134.069,358.522,134.069z"/>
	<path fill="#293939" d="M360.435,135.981v7.771c0,1.07-0.842,1.912-1.912,1.912H354.7v-11.596h3.822
		C359.593,134.069,360.435,134.911,360.435,135.981z"/>
	<g>
		<path fill="#394A4A" d="M343.233,99.542c-5.268,0-9.555-4.287-9.555-9.556c0-1.057,0.854-1.912,1.911-1.912h7.644
			c1.057,0,1.911,0.854,1.911,1.912v7.644C345.145,98.685,344.29,99.542,343.233,99.542z"/>
		<path fill="#394A4A" d="M343.233,114.958c-5.268,0-9.555-4.285-9.555-9.557c0-1.055,0.854-1.909,1.911-1.909h7.644
			c1.057,0,1.911,0.854,1.911,1.909v7.645C345.145,114.103,344.29,114.958,343.233,114.958z"/>
		<path fill="#394A4A" d="M343.233,130.247c-5.268,0-9.555-4.287-9.555-9.555c0-1.057,0.854-1.911,1.911-1.911h7.644
			c1.057,0,1.911,0.854,1.911,1.911v7.643C345.145,129.392,344.29,130.247,343.233,130.247z"/>
	</g>
	<path fill="#4B6970" d="M362.345,80.429h-15.289c-3.172,0-5.732,2.561-5.732,5.734v45.995c0,3.172,2.561,5.732,5.732,5.732h15.289
		c3.174,0,5.734-2.561,5.734-5.732V86.164C368.079,82.99,365.519,80.429,362.345,80.429z"/>
	<path fill="#293939" d="M366.168,99.542c-1.057,0-1.911-0.856-1.911-1.912v-7.644c0-1.057,0.854-1.912,1.911-1.912h7.644
		c1.057,0,1.912,0.854,1.912,1.912C375.724,95.254,371.436,99.542,366.168,99.542z"/>
	<path fill="#293939" d="M366.168,114.958c-1.057,0-1.911-0.854-1.911-1.912v-7.645c0-1.055,0.854-1.909,1.911-1.909h7.644
		c1.057,0,1.912,0.854,1.912,1.909C375.724,110.672,371.436,114.958,366.168,114.958z"/>
	<path fill="#293939" d="M366.168,130.247c-1.057,0-1.911-0.854-1.911-1.912v-7.643c0-1.057,0.854-1.911,1.911-1.911h7.644
		c1.057,0,1.912,0.854,1.912,1.911C375.724,125.959,371.436,130.247,366.168,130.247z"/>
	<path fill="#3F5A5A" d="M368.079,86.164v45.995c0,3.172-2.561,5.732-5.734,5.732H354.7V80.429h7.645
		C365.519,80.429,368.079,82.99,368.079,86.164z"/>
	<path fill="#E63B51" d="M354.7,88.074c-3.172,0-5.732,2.561-5.732,5.734c0,3.173,2.561,5.733,5.732,5.733
		c3.173,0,5.734-2.561,5.734-5.733C360.435,90.635,357.873,88.074,354.7,88.074z"/>
	<path fill="#FBBF12" d="M354.7,103.492c-3.172,0-5.732,2.56-5.732,5.731c0,3.175,2.561,5.734,5.732,5.734
		c3.173,0,5.734-2.56,5.734-5.734C360.435,106.051,357.873,103.492,354.7,103.492z"/>
	<path fill="#A8CF38" d="M354.7,118.781c-3.172,0-5.732,2.561-5.732,5.733c0,3.172,2.561,5.732,5.732,5.732
		c3.173,0,5.734-2.561,5.734-5.732C360.435,121.341,357.873,118.781,354.7,118.781z"/>
	<path fill="#93C03E" d="M360.435,124.514c0,3.172-2.562,5.732-5.734,5.732v-11.466
		C357.873,118.781,360.435,121.341,360.435,124.514z"/>
	<path fill="#F99F1B" d="M360.435,109.223c0,3.175-2.562,5.734-5.734,5.734v-11.466
		C357.873,103.492,360.435,106.051,360.435,109.223z"/>
	<path fill="#CC2E43" d="M354.7,99.542V88.074c3.173,0,5.734,2.561,5.734,5.734C360.435,96.981,357.873,99.542,354.7,99.542z"/>
</g>
<g id="Page-1_1_">
	<g id="_x30_13---Study_1_">
		<path id="Shape_9_" fill="#C03B2B" d="M285.41,74.002h-34.624c-0.546,0-0.989,0.443-0.989,0.989v6.926
			c0,0.546,0.442,0.989,0.989,0.989h34.624c0.546,0,0.988-0.443,0.988-0.989v-6.926C286.398,74.445,285.956,74.002,285.41,74.002z"
			/>
		<path id="Shape_8_" fill="#34907C" d="M244.851,38.39h-6.924c-0.547,0-0.99,0.443-0.99,0.99v42.538
			c0,0.546,0.443,0.989,0.99,0.989h6.924c0.546,0,0.991-0.443,0.991-0.989V39.379C245.842,38.833,245.397,38.39,244.851,38.39z"/>
		<path id="Shape_7_" fill="#E47E26" d="M235.949,49.271h-5.937c-0.546,0-0.989,0.443-0.989,0.989v31.657
			c0,0.546,0.442,0.989,0.989,0.989h5.937c0.545,0,0.988-0.443,0.988-0.989V50.26C236.937,49.714,236.494,49.271,235.949,49.271z"/>
		<path id="Shape_6_" fill="#3C97D3" d="M279.188,35.165c-1.365-2.259-3.272-4.143-5.55-5.48
			c-6.871-4.023-15.665-2.301-20.512,4.018c-4.847,6.317-4.232,15.256,1.435,20.853c5.665,5.596,14.611,6.098,20.87,1.171
			C281.686,50.8,283.298,41.986,279.188,35.165z"/>
		<path id="Rectangle-path_13_" fill="#D25727" d="M264.635,63.121h1.979v5.935h-1.979V63.121z"/>
		<path id="Shape_5_" fill="#F19C22" d="M265.654,64.122c-4.433-0.06-8.763-1.355-12.499-3.741
			c-0.435-0.299-0.559-0.886-0.282-1.334c0.276-0.448,0.857-0.601,1.319-0.347c6.791,4.183,14.287,4.569,20.567,1.062
			c6.093-3.388,9.81-9.869,9.657-16.837c-0.153-6.97-4.15-13.281-10.383-16.4c-0.488-0.246-0.685-0.841-0.438-1.329
			c0.245-0.488,0.841-0.685,1.328-0.438c6.891,3.444,11.31,10.419,11.478,18.121c0.17,7.701-3.938,14.864-10.669,18.607
			C272.655,63.217,269.185,64.125,265.654,64.122z"/>
		<path id="Shape_4_" fill="#82CA9C" d="M257.711,50.667v2.067c-0.001,0.31-0.148,0.603-0.395,0.791l-2.197,1.652
			c-3.26-2.897-5.183-7.011-5.314-11.37c-0.13-4.36,1.541-8.582,4.623-11.669l2.889,2.888c0.246,0.245,0.345,0.604,0.256,0.939
			l-0.811,3.245c-0.025,0.11-0.072,0.214-0.139,0.306l-1.711,2.583c-0.109,0.16-0.167,0.35-0.168,0.544v4.244
			c0.001,0.259,0.104,0.507,0.286,0.692l2.396,2.394C257.606,50.159,257.709,50.407,257.711,50.667L257.711,50.667z"/>
		<path id="Shape_3_" fill="#82CA9C" d="M279.188,35.165l-5.302,3.026c-0.221,0.13-0.485,0.167-0.731,0.099l-3.333-0.831
			c-0.157-0.04-0.32-0.04-0.478,0l-3.086,0.772c-0.385,0.097-0.792-0.047-1.028-0.367l-2.059-2.75
			c-0.294-0.391-0.256-0.939,0.091-1.286l2.156-2.156c0.133-0.133,0.3-0.227,0.484-0.268l7.735-1.721
			C275.915,31.022,277.822,32.906,279.188,35.165z"/>
		<path id="Rectangle-path_12_" fill="#F19C22" d="M229.023,53.228h7.913v19.786h-7.913V53.228z"/>
		<path id="Rectangle-path_11_" fill="#29B99A" d="M236.937,42.347h8.905v28.687h-8.905V42.347z"/>
		<path id="Rectangle-path_10_" fill="#81CCB8" d="M236.937,71.034h8.905v4.946h-8.905V71.034z"/>
		<path id="Rectangle-path_9_" fill="#FDD7AD" d="M229.023,73.013h7.913v4.946h-7.913V73.013z"/>
		<path id="Shape_2_" fill="#82CA9C" d="M274.479,48.539l-2.542,0.643c-0.239,0.052-0.45,0.198-0.583,0.406l-3.453,5.173
			c-0.185,0.277-0.496,0.446-0.831,0.446h-1.443c-0.546,0-0.991-0.443-0.991-0.989v-3.424c0-0.333-0.166-0.645-0.443-0.831
			l-2.354-1.573c-0.112-0.072-0.206-0.166-0.276-0.277l-1.296-1.938c-0.15-0.226-0.201-0.502-0.14-0.766
			c0.058-0.264,0.223-0.491,0.455-0.629l3.74-2.246c0.201-0.12,0.439-0.166,0.673-0.129l5.431,0.91
			c0.098,0.009,0.192,0.039,0.275,0.089l3.462,1.721c0.236,0.117,0.415,0.325,0.496,0.574l0.524,1.573
			c0.085,0.26,0.057,0.546-0.076,0.785C274.973,48.299,274.744,48.473,274.479,48.539L274.479,48.539z"/>
		<path id="Shape_1_" fill="#F19C22" d="M261.668,69.056h7.915c2.185,0,3.956,1.773,3.956,3.958c0,0.546-0.442,0.989-0.989,0.989
			H258.7c-0.545,0-0.989-0.443-0.989-0.989C257.711,70.829,259.482,69.056,261.668,69.056z"/>
		<path id="Rectangle-path_8_" fill="#E54D3C" d="M260.679,74.002h21.763v8.904h-21.763V74.002z"/>
		<path id="Rectangle-path_7_" fill="#F37A76" d="M255.733,74.002h4.946v8.904h-4.946V74.002z"/>
	</g>
</g>
</svg>
