<?xml version="1.0" encoding="utf-8"?>
<!-- Generator: Adobe Illustrator 16.0.0, SVG Export Plug-In . SVG Version: 6.00 Build 0)  -->
<!DOCTYPE svg PUBLIC "-//W3C//DTD SVG 1.1//EN" "http://www.w3.org/Graphics/SVG/1.1/DTD/svg11.dtd">
<svg version="1.1" id="Layer_1" xmlns="http://www.w3.org/2000/svg" xmlns:xlink="http://www.w3.org/1999/xlink" x="0px" y="0px"
	 width="100px" height="100px" viewBox="0 0 100 100" enable-background="new 0 0 100 100" xml:space="preserve">
<g>
	<path fill="#64C9D3" d="M80.437,61.319c0,16.689-13.504,30.286-30.16,30.436c-0.065,0.002-0.131,0.002-0.195,0.002h-0.082
		c-16.781,0-30.436-13.655-30.436-30.438c0-6.908,4.847-17.602,14.41-31.782c6.98-10.355,14.064-18.929,14.136-19.014l1.89-2.28
		l0.082,0.099l1.809,2.182c0.07,0.085,7.154,8.658,14.135,19.014C75.587,43.718,80.437,54.411,80.437,61.319z"/>
	<path fill="#11A9C6" d="M80.437,61.319c0,16.689-13.504,30.286-30.16,30.436h-0.261L49.999,8.254V8.243l0.082,0.099l1.809,2.182
		c0.07,0.085,7.154,8.658,14.135,19.014C75.587,43.718,80.437,54.411,80.437,61.319z"/>
	<path fill="#C0DEF4" d="M50.013,81.136v-4.906c8.215,0,14.896-6.683,14.896-14.896h4.908
		C69.817,72.253,60.933,81.136,50.013,81.136z"/>
</g>
</svg>
