<?xml version="1.0" encoding="utf-8"?>
<!-- Generator: Adobe Illustrator 16.0.0, SVG Export Plug-In . SVG Version: 6.00 Build 0)  -->
<!DOCTYPE svg PUBLIC "-//W3C//DTD SVG 1.1//EN" "http://www.w3.org/Graphics/SVG/1.1/DTD/svg11.dtd">
<svg version="1.1" id="Layer_1" xmlns="http://www.w3.org/2000/svg" xmlns:xlink="http://www.w3.org/1999/xlink" x="0px" y="0px"
	 width="100px" height="100px" viewBox="0 0 100 100" enable-background="new 0 0 100 100" xml:space="preserve">
<g id="_x30_01---Cutting-Wires-Bomb_1_" transform="translate(-1)">
	<path id="Shape_122_" fill="#C03B2B" d="M84.808,16.18h-7.512c-1.384,0-2.504,1.121-2.504,2.504V16.18
		c0-1.383-1.122-2.504-2.504-2.504H62.271c-1.383,0-2.504,1.121-2.504,2.504v2.504c0-1.383-1.121-2.504-2.504-2.504h-7.513
		c-1.382,0-2.503,1.121-2.503,2.504v48.827c0,1.384,1.121,2.505,2.503,2.505l7.513,3.756c1.383,0,2.504-1.121,2.504-2.505v3.756
		l14.561,0.201c0.576-0.79,0.464-1.252,0.464-3.957c0,1.384,1.12,2.505,2.504,2.505h7.512c1.383,0,2.504-1.121,2.504-2.505V18.684
		C87.312,17.301,86.19,16.18,84.808,16.18z M80.226,42.597c-3.696,6.262-11.348,8.979-18.165,6.447
		c-6.817-2.528-10.846-9.578-9.561-16.736c1.282-7.157,7.508-12.368,14.779-12.372c5.396-0.004,10.378,2.887,13.053,7.572
		C83.009,32.191,82.967,37.95,80.226,42.597L80.226,42.597z"/>
	<path id="Shape_121_" fill="#E54D3C" d="M59.768,75.022V47.98c4.648,2.684,10.376,2.684,15.024,0v25.791
		c0,0.52-0.162,1.028-0.464,1.452L59.768,75.022z"/>
	<path id="Shape_120_" fill="#BDC3C7" d="M68.419,83.974l-1.026,1.027c-0.428,0.432-1.104,0.496-1.603,0.15l-8.864-6.26
		c0.964-0.301,0.488-2.366,1.327-2.779s3.306,0.613,4.144,0l6.022,6.033c0.253,0.236,0.396,0.568,0.396,0.914
		C68.815,83.407,68.672,83.737,68.419,83.974L68.419,83.974z"/>
	<path id="Shape_119_" fill="#BDC3C7" d="M57.915,71.693c-1.391,0.838-1.665,4.019-3.757,4.269
		c-1.101,0.138-3.756-2.391-5.008-2.504c-0.463-0.425-0.35-0.376-3.756-7.174l0.302-0.301c2.043,0.974,4.416,0.974,6.459,0
		L57.915,71.693z"/>
	<path id="Shape_118_" fill="#E54D3C" d="M42.24,83.323c-0.073,1.729-1.533,3.07-3.261,2.998c-1.729-0.072-3.072-1.531-2.999-3.262
		c0.074-1.814-1.49-3.755-2.742-5.069c1.252-0.325,2.503-3.029,3.993-2.968c1.178,0,2.441,2.792,3.757,3.081
		C41.856,79.703,42.288,81.503,42.24,83.323L42.24,83.323z"/>
	<path id="Shape_117_" fill="#E54D3C" d="M35.254,71.38c-2.004,0.112-1.353,1.715-3.03,2.392c-0.7,0.288-3.881-0.589-4.519-0.214
		c-2.104-1.477-4.545-3.343-5.435-6.522c-1.114-4.006,0.451-7.976,4.683-11.818c1.252,0.701,3.631-1.253,4.933-0.852
		c0.054,0.235,0.171,0.452,0.338,0.626l0.288,3.756c-3.255,2.504-4.721,4.833-4.207,6.674C28.818,67.261,31.535,68.325,35.254,71.38
		L35.254,71.38z"/>
	<path id="Shape_116_" fill="#E54D3C" d="M74.792,16.18v5.759c-4.648-2.683-10.376-2.683-15.024,0V16.18
		c0-1.383,1.121-2.504,2.504-2.504h10.017C73.67,13.676,74.792,14.797,74.792,16.18z"/>
	<path id="Shape_115_" fill="#85B6CC" d="M80.363,27.572c-2.665-4.719-7.664-7.637-13.084-7.637
		c-13.696,0-20.231,16.914-10.166,26.079c2.762,2.567,6.396,3.987,10.166,3.969c5.342,0,10.283-2.837,12.976-7.45
		C82.948,37.921,82.988,32.225,80.363,27.572z"/>
	<path id="Shape_114_" fill="#A0C9D3" d="M76.044,22.766c-5.522,0.926-18.468,4.857-21.76,19.706l-0.089-0.151
		c-2.613-4.649-2.564-10.337,0.127-14.941c2.691-4.605,7.624-7.438,12.957-7.443C70.429,19.914,73.502,20.906,76.044,22.766
		L76.044,22.766z"/>
	<path id="Shape_113_" fill="#405D6C" d="M46.547,41.144c-0.4-0.087-0.839,1.253-1.139,1.591c-4.821,3.493-4.42,3.155-4.595,3.38
		c-0.044-0.273-0.044-0.552,0-0.826c0.262-2.179-1.065-5.946-4.583-9.465c-3.519-3.518-7.612-4.934-9.69-4.532
		c-1.686,0.283-3.288-0.832-3.608-2.511c-0.32-1.678,0.76-3.305,2.432-3.662C33.714,23.554,44.243,32.455,46.547,41.144z"/>
	<path id="Shape_112_" fill="#405D6C" d="M35.867,51.06c-0.238,0.163,0.075-0.287-3.381,5.222c-0.312,0.3-1.677,0.112-1.59,0.513
		c-8.688-2.341-17.603-12.771-16.025-21.208c0.357-1.672,1.983-2.752,3.662-2.432s2.794,1.923,2.511,3.608
		c-0.401,2.078,0.839,5.996,4.532,9.69c3.693,3.692,7.286,4.845,9.465,4.582C35.316,50.999,35.595,51.008,35.867,51.06L35.867,51.06
		z"/>
	<path id="Shape_111_" fill="#7F8284" d="M51.604,47.68v4.494c-1.469-0.562-3.078-0.64-4.595-0.226l-2.504-2.503l1.152-3.043
		l3.28-1.428L51.604,47.68z"/>
	<path id="Shape_110_" fill="#7F8284" d="M41.927,61.852h-4.494l-2.704-2.666l1.126-2.942l3.355-1.478l2.504,2.505
		C41.298,58.781,41.372,60.386,41.927,61.852z"/>
	<g>
		<path id="Shape_109_" fill="#405D6C" d="M74.792,36.212h-7.513c-0.69,0-1.252-0.561-1.252-1.253v-7.512
			c0-0.691,0.562-1.252,1.252-1.252c0.691,0,1.252,0.561,1.252,1.252v6.261h6.261c0.691,0,1.252,0.56,1.252,1.251
			C76.044,35.651,75.483,36.212,74.792,36.212z"/>
		<path id="Shape_108_" fill="#405D6C" d="M67.279,23.691c-0.69,0-1.252-0.561-1.252-1.252v-2.504c0-0.691,0.562-1.252,1.252-1.252
			c0.691,0,1.252,0.561,1.252,1.252v2.504C68.531,23.131,67.971,23.691,67.279,23.691z"/>
		<path id="Shape_107_" fill="#405D6C" d="M67.279,51.234c-0.69,0-1.252-0.56-1.252-1.251v-2.505c0-0.69,0.562-1.251,1.252-1.251
			c0.691,0,1.252,0.561,1.252,1.251v2.505C68.531,50.675,67.971,51.234,67.279,51.234z"/>
		<path id="Shape_106_" fill="#405D6C" d="M82.304,36.212h-2.505c-0.69,0-1.251-0.561-1.251-1.253c0-0.691,0.561-1.251,1.251-1.251
			h2.505c0.691,0,1.252,0.56,1.252,1.251C83.556,35.651,82.995,36.212,82.304,36.212z"/>
		<path id="Shape_105_" fill="#405D6C" d="M54.76,36.212h-2.504c-0.692,0-1.252-0.561-1.252-1.253c0-0.691,0.56-1.251,1.252-1.251
			h2.504c0.69,0,1.252,0.56,1.252,1.251C56.012,35.651,55.45,36.212,54.76,36.212z"/>
		<path id="Shape_104_" fill="#405D6C" d="M61.02,25.37c-0.449,0.001-0.864-0.237-1.089-0.627l-1.252-2.166
			c-0.224-0.389-0.223-0.868,0.002-1.256c0.226-0.39,0.641-0.628,1.09-0.626c0.448,0,0.863,0.24,1.086,0.631l1.252,2.165
			c0.225,0.389,0.224,0.866-0.001,1.255C61.883,25.134,61.468,25.371,61.02,25.37z"/>
		<path id="Shape_103_" fill="#405D6C" d="M74.792,49.22c-0.449,0.001-0.865-0.237-1.09-0.626l-1.252-2.166
			c-0.223-0.39-0.223-0.868,0.003-1.257c0.225-0.388,0.64-0.627,1.089-0.626c0.449,0.002,0.863,0.242,1.086,0.631l1.253,2.166
			c0.224,0.389,0.224,0.867-0.001,1.254C75.654,48.984,75.24,49.221,74.792,49.22z"/>
		<path id="Shape_102_" fill="#405D6C" d="M73.539,25.37c-0.447,0.001-0.862-0.236-1.087-0.624
			c-0.225-0.389-0.227-0.866-0.002-1.255l1.252-2.165c0.225-0.391,0.638-0.631,1.087-0.631c0.449-0.002,0.864,0.236,1.09,0.626
			c0.225,0.388,0.226,0.867,0.002,1.256l-1.253,2.166C74.403,25.133,73.988,25.371,73.539,25.37z"/>
		<path id="Shape_101_" fill="#405D6C" d="M59.768,49.22c-0.448,0.001-0.862-0.235-1.088-0.624
			c-0.225-0.387-0.226-0.865-0.001-1.254l1.252-2.166c0.346-0.603,1.113-0.809,1.715-0.464c0.602,0.346,0.81,1.114,0.463,1.716
			l-1.252,2.166C60.632,48.982,60.217,49.221,59.768,49.22z"/>
		<path id="Shape_100_" fill="#405D6C" d="M54.195,43.599c-0.596,0.033-1.134-0.358-1.284-0.938
			c-0.148-0.579,0.132-1.183,0.672-1.44l2.178-1.252c0.603-0.339,1.364-0.126,1.704,0.476c0.339,0.599,0.132,1.359-0.464,1.702
			C54.548,43.585,54.622,43.599,54.195,43.599z"/>
		<path id="Shape_99_" fill="#405D6C" d="M78.185,30.052c-0.57,0.004-1.071-0.378-1.219-0.929s0.097-1.132,0.593-1.413l2.191-1.251
			c0.601-0.347,1.369-0.139,1.715,0.463c0.345,0.601,0.138,1.369-0.464,1.715C78.548,30.038,78.548,30.052,78.185,30.052z"/>
		<path id="Shape_98_" fill="#405D6C" d="M56.5,29.852c-0.451,0-0.476-0.075-2.792-1.453c-0.436-0.196-0.721-0.624-0.736-1.101
			c-0.015-0.479,0.244-0.923,0.666-1.146c0.423-0.223,0.937-0.188,1.321,0.095l2.167,1.251c0.511,0.275,0.765,0.864,0.615,1.425
			C57.593,29.481,57.079,29.866,56.5,29.852z"/>
		<path id="Shape_97_" fill="#405D6C" d="M80.213,43.848c-0.414,0-0.414-0.124-2.792-1.451c-0.52-0.378-0.669-1.087-0.347-1.643
			c0.323-0.555,1.014-0.775,1.599-0.511l2.153,1.252c0.508,0.273,0.762,0.858,0.616,1.417
			C81.298,43.471,80.789,43.857,80.213,43.848z"/>
	</g>
	<path id="Shape_96_" fill="#3C97D3" d="M66.027,72.731c-2.353,2.931-5.513,5.107-9.089,6.261
		c-6.986,2.14-13.159-0.326-15.913-0.852c-3.405-0.738-7.299-0.889-10.254,0.913c-1.721,1.094-2.984,2.775-3.556,4.732
		c-0.346,1.693-1.999,2.787-3.693,2.441s-2.787-2-2.441-3.693c0.924-3.775,3.335-7.018,6.686-8.988
		c5.134-3.043,11.52-2.505,17.277-0.914c6.474,1.828,12.521,1.014,16.651-4.294l3.618,0.2L66.027,72.731z"/>
	<path id="Shape_95_" fill="#E54D3C" d="M82.304,53.739c-0.692,0-1.253-0.561-1.253-1.253v-2.503c0-0.691,0.561-1.252,1.253-1.252
		c0.691,0,1.252,0.561,1.252,1.252v2.503C83.556,53.179,82.995,53.739,82.304,53.739z"/>
	<path id="Shape_94_" fill="#E54D3C" d="M82.304,70.016c-0.692,0-1.253-0.562-1.253-1.253V57.495c0-0.691,0.561-1.252,1.253-1.252
		c0.691,0,1.252,0.561,1.252,1.252v11.268C83.556,69.454,82.995,70.016,82.304,70.016z"/>
	<path id="Shape_93_" fill="#EDF0F1" d="M67.279,51.234c-8.989,0-16.275-7.286-16.275-16.275c0-8.988,7.286-16.275,16.275-16.275
		s16.276,7.287,16.276,16.275c0,4.316-1.715,8.457-4.768,11.509C75.736,49.52,71.597,51.234,67.279,51.234z M67.279,21.188
		c-7.605,0-13.771,6.166-13.771,13.771c0,7.606,6.166,13.772,13.771,13.772c7.606,0,13.771-6.166,13.771-13.772
		c0-3.651-1.45-7.155-4.033-9.738C74.435,22.639,70.933,21.188,67.279,21.188z"/>
	<path id="Shape_92_" fill="#BDC3C7" d="M74.792,77.64l-1.026,1.026c-0.489,0.485-1.277,0.485-1.766,0L55.724,62.39
		c0.978-2.046,0.978-4.425,0-6.472l0.301-0.301l6.51,3.256c0.827,0.412,0.113-0.702,12.37,17.126
		C75.281,76.497,75.233,77.197,74.792,77.64L74.792,77.64z"/>
	<path id="Shape_91_" fill="#A5A5A4" d="M56.449,62.778c-1.567,3.255-5.059,5.122-8.637,4.617c-3.576-0.504-6.417-3.263-7.024-6.824
		c-0.606-3.562,1.16-7.105,4.368-8.767c3.208-1.66,7.122-1.056,9.679,1.496C57.293,55.816,57.936,59.592,56.449,62.778z"/>
	<circle id="Oval_11_" fill="#575A5F" cx="48.938" cy="59.186" r="2.504"/>
	<path id="Shape_90_" fill="#364A5E" d="M39.21,54.766l-4.481,4.42c-0.489,0.484-1.277,0.484-1.767,0
		c-1.914-1.929-1.99-1.891-2.115-2.392c-0.086-0.413,0.041-0.84,0.338-1.139l4.482-4.421c0.488-0.484,1.276-0.484,1.766,0
		c0.914,0.902,0.525,0.502,1.777,1.767C39.695,53.488,39.695,54.277,39.21,54.766z"/>
	<path id="Shape_89_" fill="#364A5E" d="M48.938,44.975l-4.42,4.433c-0.235,0.237-0.556,0.371-0.89,0.371
		c-0.332,0-0.653-0.134-0.889-0.371l-1.752-1.728c-0.417-0.418-0.485-1.069-0.163-1.565c0.112-0.163-0.238,0.301,4.595-4.632
		c0.488-0.485,1.276-0.485,1.765,0l1.766,1.777C49.399,43.746,49.396,44.496,48.938,44.975L48.938,44.975z"/>
</g>
</svg>
